<?xml version="1.0" encoding="utf-8"?><!DOCTYPE svg PUBLIC "-//W3C//DTD SVG 1.1//EN" "http://www.w3.org/Graphics/SVG/1.1/DTD/svg11.dtd"><svg version="1.1" xmlns="http://www.w3.org/2000/svg" width="160" height="160" viewBox="0 0 160 160"><g transform="scale(0.303,0.303)"><g transform="translate(0,0)"><g transform="translate(0,0)"><g transform="translate(0,0) scale(1,1)"><g transform="scale(2.9464285714285716,2.9464285714285716) translate(19.599999999999994,32.099999999999994)"><g transform="translate(0.000000,115.000000) scale(0.100000,-0.100000)" fill="#000000" stroke="none">
<path d="M806 1108 c-7 -13 -17 -36 -20 -52 -6 -25 -60 -85 -77 -86 -3 0 -18 -25 -33 -55 -22 -42 -27 -63 -22 -90 4 -19 11 -37 16 -40 4 -3 41 -7 80 -10 81 -6 177 15 187 41 4 11 18 14 55 12 55 -3 62 -10 76 -76 9 -39 0 -69 -28 -92 -21 -17 -37 -75 -29 -103 14 -48 25 -54 62 -34 44 24 67 65 65 116 -1 29 5 51 20 71 12 16 22 33 22 39 0 5 18 33 40 62 43 57 48 81 26 132 -24 58 -121 77 -194 38 -12 -6 -42 -15 -68 -20 -37 -7 -47 -6 -51 7 -4 8 -2 22 4 31 13 20 -2 89 -24 113 -24 27 -89 24 -107 -4z"/>
<path d="M315 1093 c-76 -17 -121 -81 -96 -140 6 -15 10 -39 9 -53 -1 -14 2 -52 7 -85 5 -33 7 -64 5 -70 -1 -5 -4 -57 -6 -115 -4 -157 -36 -224 -115 -249 -61 -19 -99 -75 -99 -145 0 -26 5 -35 21 -39 26 -7 130 53 158 91 12 15 24 32 29 37 4 6 14 24 21 42 7 17 23 41 36 53 36 34 68 21 110 -45 39 -60 69 -85 102 -85 21 0 23 5 23 45 0 38 -5 50 -36 80 -19 20 -38 48 -40 63 -3 15 -13 32 -22 39 -9 7 -22 17 -28 22 -6 5 -20 11 -30 13 -12 2 -18 11 -17 23 1 11 5 103 8 205 3 102 7 201 8 220 3 36 -12 101 -22 99 -3 -1 -15 -3 -26 -6z"/>
<path d="M470 953 c-33 -12 -38 -22 -29 -70 8 -39 6 -50 -9 -67 -10 -12 -19 -33 -20 -47 -4 -33 15 -82 28 -74 5 3 18 2 27 -4 14 -7 26 -3 50 19 40 36 49 54 58 111 12 80 -46 153 -105 132z"/>
<path d="M72 838 c-28 -36 -20 -189 12 -220 35 -33 67 -58 77 -58 6 0 9 12 8 28 -2 15 2 36 7 47 15 30 12 179 -5 198 -16 20 -84 23 -99 5z"/>
<path d="M942 782 c-14 -2 -29 -17 -42 -41 -24 -47 -35 -52 -102 -42 -68 11 -120 5 -135 -16 -7 -9 -13 -38 -13 -64 0 -46 1 -48 36 -59 31 -11 39 -10 63 7 42 31 45 32 65 17 18 -12 18 -15 2 -39 -12 -19 -25 -25 -51 -25 -19 0 -35 4 -35 9 0 20 -58 17 -82 -4 -30 -26 -37 -42 -55 -130 -24 -118 -27 -187 -9 -210 l16 -20 15 20 c9 11 18 19 20 18 3 -2 6 -3 8 -2 1 0 34 3 74 5 52 3 93 -1 149 -16 43 -11 86 -20 95 -20 10 0 37 -15 61 -33 24 -18 57 -41 73 -51 17 -10 42 -30 57 -43 23 -22 32 -24 68 -18 51 9 102 58 119 117 8 24 18 53 23 65 6 11 7 26 4 32 -4 6 -2 11 3 11 6 0 11 9 11 20 0 24 1 24 -75 5 -64 -15 -61 -15 -210 25 -64 18 -93 21 -145 15 -36 -4 -95 -9 -133 -10 -63 -2 -68 0 -73 21 -12 47 2 61 68 68 35 3 69 13 77 21 10 9 16 36 17 70 1 36 10 71 26 102 14 27 28 64 32 84 4 21 13 42 21 49 33 28 4 69 -43 62z"/>
</g>
</g></g></g></g></g></svg>