<?xml version="1.0" encoding="utf-8"?><!DOCTYPE svg PUBLIC "-//W3C//DTD SVG 1.1//EN" "http://www.w3.org/Graphics/SVG/1.1/DTD/svg11.dtd"><svg version="1.1" xmlns="http://www.w3.org/2000/svg" width="160" height="160" viewBox="0 0 160 160"><g transform="scale(0.303,0.303)"><g transform="translate(0,0)"><g transform="translate(0,0)"><g transform="translate(0,0) scale(1,1)"><g transform="scale(2.9464285714285716,2.9464285714285716) translate(19.599999999999994,24.099999999999994)"><g transform="translate(0.000000,131.000000) scale(0.100000,-0.100000)" fill="#000000" stroke="none">
<path d="M618 1278 c-17 -13 -45 -98 -50 -153 l-3 -30 -180 0 c-128 0 -186 3 -201 12 -18 11 -23 10 -41 -9 -17 -18 -21 -32 -17 -67 4 -43 26 -81 47 -81 5 0 21 9 37 20 17 12 43 19 71 19 24 0 66 4 94 9 72 15 177 6 193 -15 13 -18 14 -91 1 -98 -3 -3 -30 -7 -58 -10 -38 -3 -59 0 -77 12 -20 13 -32 14 -60 5 -33 -10 -36 -9 -46 14 -17 38 -51 28 -62 -17 -7 -30 -4 -46 17 -91 32 -68 51 -171 45 -251 -3 -34 -1 -74 4 -89 8 -24 12 -26 29 -15 14 9 21 9 30 0 10 -10 20 -8 46 8 20 12 53 21 81 22 l47 2 -1 -43 c0 -24 -6 -47 -13 -51 -7 -5 -51 -14 -99 -21 -48 -7 -103 -16 -122 -21 -48 -11 -170 -14 -197 -5 -15 5 -38 0 -65 -12 -37 -16 -44 -24 -46 -50 -1 -18 3 -32 9 -32 6 0 17 -6 24 -12 35 -32 44 -37 49 -30 2 4 19 9 38 10 18 2 37 7 42 12 6 6 26 10 46 10 19 0 51 5 70 10 19 6 64 15 100 21 36 5 80 12 97 15 36 7 34 10 52 -76 6 -30 14 -64 17 -75 3 -11 8 -31 11 -45 3 -14 13 -33 21 -43 15 -17 16 -17 29 5 l14 23 -7 -25 -7 -25 21 25 c18 22 18 25 4 36 -15 11 -15 14 2 33 14 15 20 38 21 86 1 36 4 67 7 70 15 15 253 3 287 -14 45 -23 167 -44 254 -44 41 0 53 5 83 34 59 57 90 202 39 183 -8 -4 -13 -10 -10 -14 3 -5 -3 -9 -12 -8 -26 0 -120 -20 -141 -30 -9 -5 -26 -7 -37 -5 -11 3 -115 5 -231 5 -116 0 -218 4 -225 9 -10 6 -11 9 -1 9 8 0 10 8 6 25 -3 14 -3 36 0 49 5 22 9 23 88 22 51 -1 88 -6 96 -13 20 -20 41 -15 52 10 5 12 18 68 29 124 22 112 52 192 82 219 13 12 19 30 19 60 0 38 -2 42 -22 39 -13 -2 -51 -15 -85 -29 -49 -20 -75 -25 -115 -22 -29 2 -69 4 -88 5 -34 1 -36 3 -38 38 -2 21 -5 39 -7 41 -2 3 0 13 5 23 9 15 24 18 103 19 171 2 314 8 335 14 11 4 30 25 41 46 l21 40 -48 1 c-26 1 -49 1 -52 1 -138 -9 -399 -12 -403 -5 -10 16 -19 66 -22 122 -4 66 -29 88 -67 59z m152 -475 c0 -5 36 -8 80 -8 l79 0 -6 -25 c-10 -45 -18 -47 -175 -42 -44 2 -48 4 -48 26 0 14 7 32 16 40 16 16 54 22 54 9z m-208 -28 c4 -5 8 -20 8 -32 0 -22 -4 -23 -79 -23 -44 0 -86 -3 -94 -6 -10 -3 -17 3 -21 19 -3 14 -8 31 -11 39 -4 10 15 13 92 13 54 0 101 -4 105 -10z m271 -139 c38 -1 41 -5 31 -43 -5 -20 -12 -21 -79 -21 -66 1 -74 3 -77 22 -2 12 -2 29 0 40 3 16 9 17 45 10 23 -4 59 -8 80 -8z m-273 -25 c0 -28 -3 -29 -63 -40 -99 -17 -107 -16 -107 19 0 32 8 36 80 43 89 9 90 9 90 -22z m300 -67 c0 -8 -5 -12 -10 -9 -6 4 -8 11 -5 16 9 14 15 11 15 -7z m0 -34 c0 -5 -7 -7 -15 -4 -19 8 -19 14 0 14 8 0 15 -4 15 -10z"/>
</g>
</g></g></g></g></g></svg>