<?xml version="1.0" encoding="utf-8"?><!DOCTYPE svg PUBLIC "-//W3C//DTD SVG 1.1//EN" "http://www.w3.org/Graphics/SVG/1.1/DTD/svg11.dtd"><svg version="1.1" xmlns="http://www.w3.org/2000/svg" width="160" height="160" viewBox="0 0 160 160"><g transform="scale(0.303,0.303)"><g transform="translate(0,0)"><g transform="translate(0,0)"><g transform="translate(0,0) scale(1,1)"><g transform="scale(2.9464285714285716,2.9464285714285716) translate(20.099999999999994,19.599999999999994)"><g transform="translate(0.000000,140.000000) scale(0.100000,-0.100000)" fill="#000000" stroke="none">
<path d="M561 1373 c-5 -10 -5 -26 0 -40 10 -28 4 -48 -33 -95 -47 -60 -157 -124 -246 -143 -18 -4 -30 -10 -27 -15 3 -5 -12 -7 -32 -4 -29 3 -33 2 -18 -5 18 -9 17 -10 -7 -10 -24 -1 -28 3 -28 28 0 34 -19 91 -30 91 -18 0 -79 -42 -93 -63 -19 -31 -26 -62 -16 -78 4 -7 4 -18 0 -24 -12 -16 -12 -75 -1 -75 6 0 8 -5 4 -12 -4 -6 -3 -8 3 -5 5 3 22 -6 37 -20 25 -23 33 -25 89 -19 34 3 72 8 85 12 16 5 28 1 41 -12 33 -36 37 -53 29 -117 -8 -67 -2 -121 13 -111 5 3 9 0 9 -6 0 -6 14 -8 36 -6 42 5 37 2 58 44 9 17 22 32 29 32 6 0 22 3 35 6 58 16 -12 -71 -88 -108 -47 -23 -166 -68 -179 -68 -6 0 -11 -5 -11 -11 0 -5 -4 -8 -9 -5 -12 8 -30 -39 -21 -54 5 -8 7 -17 4 -21 -4 -7 28 -20 61 -23 11 -2 29 -8 41 -14 16 -8 32 -6 79 13 88 36 140 85 181 172 3 6 12 14 19 17 10 4 11 -2 4 -27 -18 -64 -103 -144 -229 -214 -36 -20 -73 -46 -82 -56 -20 -22 -24 -47 -7 -47 5 0 7 -6 3 -12 -4 -7 -4 -10 1 -6 4 4 14 3 22 -3 7 -6 13 -7 13 -2 0 5 11 10 26 11 36 3 57 16 143 90 42 36 87 75 100 86 43 37 -31 -53 -91 -110 -54 -51 -169 -141 -193 -151 -20 -7 -14 -39 7 -39 10 0 18 5 18 11 0 5 5 3 10 -5 6 -9 13 -11 18 -5 4 6 18 11 32 11 14 1 32 2 41 3 8 0 25 10 37 21 12 11 27 20 35 20 19 0 49 34 40 45 -5 4 2 5 15 2 12 -3 20 -2 18 1 -2 4 11 15 30 24 24 13 34 14 34 5 0 -17 -51 -124 -85 -177 -19 -31 -23 -41 -11 -37 11 4 18 -1 22 -18 3 -14 10 -25 15 -25 30 0 124 86 140 127 5 13 15 23 23 23 15 0 32 37 22 47 -3 3 4 14 16 25 12 10 19 21 15 24 -3 3 1 20 8 38 8 19 12 44 10 58 -3 13 2 33 10 44 13 18 19 14 102 -71 49 -49 100 -103 113 -120 47 -56 90 -85 126 -85 19 0 68 16 110 35 41 19 84 35 94 35 13 0 18 6 15 20 -2 11 0 20 5 20 5 0 7 6 4 13 -2 7 -28 22 -57 32 -29 10 -58 22 -64 28 -7 5 -13 6 -13 1 0 -5 -5 -1 -11 8 -5 10 -17 18 -24 18 -8 0 -15 5 -15 10 0 6 -4 9 -10 8 -15 -4 -169 105 -170 120 0 7 -19 22 -42 32 -24 11 -38 20 -32 20 6 0 22 9 35 20 12 12 37 30 55 41 27 16 43 43 44 71 1 34 -96 52 -121 22 -15 -18 -75 -50 -130 -69 -37 -13 -37 -13 -50 17 -7 17 -24 44 -37 60 -13 16 -23 30 -21 32 2 2 31 -1 64 -7 133 -22 165 -14 165 42 0 22 6 46 13 53 6 7 19 27 27 43 8 17 21 36 28 43 23 25 18 90 -11 114 -11 10 -23 18 -26 19 -67 6 -96 3 -114 -10 -16 -12 -37 -15 -80 -11 l-57 5 55 60 c56 62 65 84 41 104 -16 13 -117 41 -149 41 -21 0 -23 3 -17 48 7 60 -21 122 -56 122 -13 0 -27 -8 -33 -17z m26 -296 l33 -12 -19 -32 c-16 -25 -30 -33 -71 -42 -95 -20 -98 -17 -39 44 29 30 55 55 58 54 3 0 21 -6 38 -12z m236 -202 c15 -3 27 -11 27 -18 0 -11 -14 -11 -72 -1 -90 15 -90 15 -53 24 30 7 46 6 98 -5z m-263 -15 c0 -5 -12 -12 -27 -16 -16 -3 -41 -10 -56 -15 -21 -6 -27 -5 -24 4 9 27 107 53 107 27z m60 -784 c0 -2 -8 -10 -17 -17 -16 -13 -17 -12 -4 4 13 16 21 21 21 13z"/>
</g>
</g></g></g></g></g></svg>