<?xml version="1.0" encoding="utf-8"?><!DOCTYPE svg PUBLIC "-//W3C//DTD SVG 1.1//EN" "http://www.w3.org/Graphics/SVG/1.1/DTD/svg11.dtd"><svg version="1.1" xmlns="http://www.w3.org/2000/svg" width="160" height="160" viewBox="0 0 160 160"><g transform="scale(0.303,0.303)"><g transform="translate(0,0)"><g transform="translate(0,0)"><g transform="translate(0,0) scale(1,1)"><g transform="scale(2.9464285714285716,2.9464285714285716) translate(19.599999999999994,41.099999999999994)"><g transform="translate(0.000000,97.000000) scale(0.100000,-0.100000)" fill="#CC3300" stroke="none">
<path d="M519 953 c0 -5 -2 -23 -4 -41 -2 -18 -9 -40 -15 -47 -7 -8 -10 -21 -7 -29 8 -20 -13 -36 -46 -36 -17 0 -60 -9 -97 -20 -75 -22 -87 -38 -82 -108 4 -54 33 -72 82 -52 39 16 121 14 132 -3 13 -18 0 -88 -19 -111 -57 -67 -223 -221 -253 -233 -64 -28 -120 -22 -120 12 0 20 -10 18 -38 -5 -19 -16 -21 -23 -12 -40 9 -16 8 -22 -5 -26 -12 -5 -13 -10 -4 -20 6 -7 8 -17 5 -23 -3 -5 0 -12 6 -14 10 -4 10 -6 0 -6 -22 -1 8 -26 41 -35 15 -3 25 -10 22 -15 -2 -5 6 -16 19 -24 20 -14 26 -14 51 -1 16 8 33 13 39 11 10 -4 29 9 83 53 7 6 15 10 18 10 3 0 25 21 49 48 23 26 59 65 79 87 l36 40 1 -80 c1 -111 8 -183 20 -206 11 -20 40 -26 40 -8 0 5 5 7 10 4 6 -3 10 -2 10 3 0 5 11 20 23 33 33 33 39 65 38 210 l-2 126 51 -9 c40 -7 53 -6 65 6 8 8 15 19 15 25 0 6 7 11 15 11 22 0 18 15 -7 34 -23 16 -23 16 -1 6 42 -19 46 -4 8 31 -13 13 -25 30 -25 37 0 16 -41 32 -81 32 -24 0 -30 4 -27 18 3 14 15 18 65 20 58 3 63 5 90 40 15 20 27 39 26 42 -1 3 6 6 15 7 19 2 18 17 21 -297 1 -131 4 -190 11 -180 8 13 10 12 10 -2 0 -10 -5 -18 -12 -18 -9 0 -9 -3 0 -12 7 -7 12 -17 12 -23 0 -5 -5 -3 -11 5 -6 8 -9 9 -7 3 2 -7 6 -12 9 -10 4 1 16 -6 27 -16 11 -10 38 -21 60 -24 33 -4 42 -2 55 17 13 19 24 22 74 21 81 -2 87 -3 115 -34 14 -15 28 -24 31 -20 4 3 7 -1 7 -10 0 -21 14 -22 30 -2 7 8 20 15 30 15 19 0 33 31 32 67 -1 13 2 23 7 23 4 0 8 17 10 38 1 20 5 53 7 72 2 19 4 68 3 108 0 46 5 80 13 90 11 13 11 14 -1 7 -11 -6 -13 -4 -7 11 5 10 10 28 12 39 1 11 6 31 10 45 4 14 7 43 8 65 1 32 -3 41 -23 51 -13 7 -100 15 -206 19 -169 7 -187 6 -236 -13 -68 -25 -70 -25 -91 9 -17 28 -67 49 -118 49 -56 1 -65 8 -67 60 -3 63 -34 100 -87 100 -20 0 -36 -3 -37 -7z m705 -338 c-2 -5 -40 -10 -85 -11 -73 -1 -94 8 -44 18 41 8 133 3 129 -7z m-34 -147 c0 -5 -30 -8 -67 -8 -38 0 -79 -3 -93 -7 -14 -3 -22 -2 -17 2 17 19 177 30 177 13z m-17 -153 c8 -20 2 -22 -92 -21 -55 1 -86 5 -88 13 -8 24 171 32 180 8z"/>
</g>
</g></g></g></g></g></svg>