<?xml version="1.0" encoding="utf-8"?><!DOCTYPE svg PUBLIC "-//W3C//DTD SVG 1.1//EN" "http://www.w3.org/Graphics/SVG/1.1/DTD/svg11.dtd"><svg version="1.1" xmlns="http://www.w3.org/2000/svg" width="160" height="160" viewBox="0 0 160 160"><g transform="scale(0.303,0.303)"><g transform="translate(0,0)"><g transform="translate(0,0)"><g transform="translate(0,0) scale(1,1)"><g transform="scale(2.9464285714285716,2.9464285714285716) translate(27.599999999999994,19.599999999999994)"><g transform="translate(0.000000,140.000000) scale(0.100000,-0.100000)" fill="#CC3300" stroke="none">
<path d="M804 1382 c-28 -3 -33 -8 -43 -47 -16 -63 -15 -69 24 -106 33 -33 35 -37 35 -106 l0 -73 -80 0 c-43 0 -90 5 -104 11 -42 20 -52 -2 -51 -116 0 -135 -11 -302 -24 -345 -15 -49 -14 -63 9 -88 16 -17 18 -26 11 -41 -8 -14 -7 -20 5 -25 9 -4 18 2 24 17 8 20 9 20 9 -8 l1 -30 25 37 c14 21 34 42 44 48 13 7 18 19 17 40 -1 16 0 30 3 30 3 0 7 33 7 73 2 99 11 166 24 182 6 7 25 18 42 24 l30 11 -7 -70 c-4 -38 -6 -86 -6 -105 2 -55 2 -56 0 -131 -1 -39 0 -75 3 -80 3 -5 5 -73 3 -151 -2 -198 31 -326 79 -307 9 3 16 16 15 28 0 20 -1 20 -9 1 -8 -19 -9 -19 -9 3 -1 12 4 22 10 22 6 0 9 7 5 15 -4 12 -2 13 14 3 29 -18 41 0 43 65 1 32 5 57 9 57 4 0 3 14 -2 30 -5 17 -6 30 -2 30 4 0 7 23 8 50 0 28 -3 50 -8 50 -5 0 -6 5 -2 11 9 15 12 249 3 255 -4 2 -3 21 1 41 5 21 9 63 9 93 1 85 4 95 35 98 l28 4 -6 -69 c-19 -197 -7 -309 36 -357 10 -10 15 -23 12 -28 -6 -10 10 -11 20 0 4 4 11 7 15 7 18 0 59 63 66 100 9 48 18 143 19 207 1 27 3 48 7 48 3 0 6 10 7 23 0 12 4 42 8 67 17 97 13 112 -31 136 -35 20 -159 42 -192 36 -7 -2 -14 5 -14 15 -3 43 2 187 7 194 2 4 -3 26 -12 49 -22 54 -87 82 -170 72z"/>
<path d="M75 1200 c-3 -6 -10 -8 -15 -5 -11 7 -33 -32 -25 -45 3 -6 1 -10 -4 -10 -11 0 -10 -27 1 -45 7 -13 27 -155 30 -220 1 -36 -11 -269 -17 -310 -9 -63 -13 -175 -6 -175 4 0 7 -10 8 -21 3 -37 20 -45 41 -21 23 26 32 19 32 -22 1 -30 1 -30 16 -11 9 11 23 37 32 57 13 31 18 34 27 21 9 -13 12 -7 13 28 1 24 6 47 12 53 5 5 59 12 121 16 102 6 113 8 130 31 10 13 19 29 20 34 0 6 2 26 3 45 2 19 7 46 11 60 4 14 8 48 9 77 2 79 -11 87 -136 84 -57 -1 -114 -5 -128 -8 l-25 -6 19 22 c19 20 26 22 109 16 97 -6 127 -1 127 21 0 8 5 14 10 14 6 0 10 17 10 39 0 63 11 100 31 106 15 5 19 16 19 47 0 36 -6 46 -47 85 -27 24 -54 41 -61 38 -33 -12 -106 -16 -154 -7 -89 17 -206 24 -213 12z m275 -196 c0 -16 -24 -24 -76 -24 -35 0 -44 3 -44 18 0 14 10 17 60 17 38 0 60 -4 60 -11z m0 -336 c0 -26 -16 -35 -67 -42 -44 -6 -53 -4 -53 9 0 9 6 17 13 19 19 5 91 23 100 25 4 0 7 -5 7 -11z"/>
</g>
</g></g></g></g></g></svg>