<?xml version="1.0" encoding="utf-8"?><!DOCTYPE svg PUBLIC "-//W3C//DTD SVG 1.1//EN" "http://www.w3.org/Graphics/SVG/1.1/DTD/svg11.dtd"><svg version="1.1" xmlns="http://www.w3.org/2000/svg" width="160" height="160" viewBox="0 0 160 160"><g transform="scale(0.303,0.303)"><g transform="translate(0,0)"><g transform="translate(0,0)"><g transform="translate(0,0) scale(1,1)"><g transform="scale(2.9464285714285716,2.9464285714285716) translate(19.599999999999994,26.599999999999994)"><g transform="translate(0.000000,126.000000) scale(0.100000,-0.100000)" fill="#000000" stroke="none">
<path d="M954 1231 c-12 -15 -59 -50 -105 -78 -96 -58 -301 -163 -318 -163 -16 0 -61 -49 -61 -66 0 -10 16 -13 59 -12 62 2 85 -9 96 -43 5 -14 -1 -26 -20 -41 -24 -18 -41 -24 -102 -30 -7 -1 -29 -16 -48 -34 -38 -34 -40 -70 -4 -61 11 3 19 0 19 -7 0 -15 44 -13 63 3 8 6 32 14 53 16 21 3 61 16 88 30 28 14 60 26 71 29 64 12 85 20 109 42 14 14 26 22 26 19 0 -3 23 6 50 20 28 14 50 29 50 34 0 5 10 11 23 14 126 30 194 111 136 163 -28 25 -49 67 -49 98 0 26 -43 66 -90 84 -21 8 -28 5 -46 -17z m42 -173 c8 -12 -31 -48 -79 -74 -34 -18 -37 -16 -40 22 -2 24 3 30 43 45 56 21 67 22 76 7z m-208 -107 c11 -32 0 -51 -29 -51 -10 0 -20 -6 -22 -12 -3 -7 -6 -1 -6 14 -1 14 -4 33 -7 42 -4 11 2 19 17 25 35 14 36 14 47 -18z"/>
<path d="M223 1172 c-6 -4 -11 -9 -11 -12 -1 -3 -4 -13 -8 -23 -4 -11 0 -25 11 -37 10 -11 15 -20 10 -20 -4 0 -1 -7 6 -16 17 -20 20 -33 28 -117 l6 -69 -30 6 c-16 4 -64 24 -105 44 l-76 38 -18 -23 c-9 -13 -15 -27 -11 -32 3 -5 1 -12 -5 -16 -11 -7 -14 -74 -4 -100 10 -25 63 -45 91 -34 24 9 41 8 121 -6 37 -7 42 -11 42 -35 0 -25 -7 -30 -61 -50 -33 -13 -80 -23 -104 -22 -24 0 -50 -5 -59 -11 -34 -27 -16 -109 36 -160 28 -27 29 -27 56 -10 15 10 47 34 71 55 24 21 48 38 52 38 13 0 11 -327 -1 -372 -9 -33 -15 -38 -48 -43 -20 -3 -48 -8 -62 -11 -14 -3 -37 -8 -52 -11 -17 -3 -28 -1 -28 6 0 6 -11 11 -25 11 -17 0 -28 -7 -34 -23 -11 -28 -3 -56 10 -35 7 10 9 9 9 -4 0 -10 3 -17 8 -17 23 4 43 -3 59 -20 25 -27 76 -38 166 -37 73 1 81 3 102 28 36 41 48 121 39 251 -4 62 -6 117 -5 122 2 6 5 125 6 265 3 257 9 330 28 330 13 0 2 92 -14 118 -7 11 -24 26 -38 35 -29 17 -140 31 -158 19z"/>
<path d="M953 839 c-26 -10 -30 -35 -8 -59 8 -9 18 -37 21 -62 l6 -45 -148 -12 c-82 -7 -181 -17 -219 -22 -39 -5 -84 -9 -100 -7 -17 1 -36 -1 -43 -6 -14 -8 -9 -97 8 -141 9 -23 14 -26 37 -20 15 3 32 12 37 19 21 25 206 68 317 73 l106 5 6 -115 c7 -119 1 -203 -16 -224 -5 -7 -18 -13 -28 -13 -11 0 -19 -4 -19 -10 0 -5 -9 -10 -21 -10 -11 0 -17 -5 -14 -10 3 -6 1 -10 -5 -10 -7 0 -9 8 -5 20 6 20 -13 29 -29 13 -4 -5 -11 -8 -14 -9 -16 -2 -48 -18 -54 -28 -13 -19 -9 -63 8 -77 16 -13 27 -16 69 -22 11 -1 31 -9 44 -16 32 -18 129 -9 171 15 19 12 41 40 57 72 26 53 26 54 20 233 l-7 180 48 -8 c71 -12 138 -8 156 9 8 9 12 19 8 23 -4 4 -2 5 3 4 6 -2 20 3 33 11 17 11 22 24 22 56 0 56 -18 71 -61 48 -24 -12 -60 -17 -124 -18 l-90 -1 3 52 c5 83 -16 106 -110 116 -23 3 -53 1 -65 -4z"/>
<path d="M885 499 c-47 -23 -139 -36 -157 -22 -32 26 -88 -16 -88 -66 0 -28 33 -88 59 -108 27 -21 70 -15 133 19 40 21 55 34 46 39 -11 7 -11 12 0 30 9 14 10 24 4 28 -15 9 9 50 38 64 27 14 38 37 18 37 -7 -1 -31 -10 -53 -21z"/>
</g>
</g></g></g></g></g></svg>