<?xml version="1.0" encoding="utf-8"?><!DOCTYPE svg PUBLIC "-//W3C//DTD SVG 1.1//EN" "http://www.w3.org/Graphics/SVG/1.1/DTD/svg11.dtd"><svg version="1.1" xmlns="http://www.w3.org/2000/svg" width="160" height="160" viewBox="0 0 160 160"><g transform="scale(0.303,0.303)"><g transform="translate(0,0)"><g transform="translate(0,0)"><g transform="translate(0,0) scale(1,1)"><g transform="scale(2.9464285714285716,2.9464285714285716) translate(19.599999999999994,42.099999999999994)"><g transform="translate(0.000000,95.000000) scale(0.100000,-0.100000)" fill="#CC3300" stroke="none">
<path d="M849 918 c-15 -28 -39 -52 -40 -41 0 4 -4 -2 -10 -15 -5 -14 -5 -40 0 -65 5 -23 12 -83 15 -133 l6 -91 -115 -7 c-63 -3 -133 -12 -155 -20 -31 -11 -42 -11 -50 -1 -5 6 -7 15 -4 18 4 4 -5 1 -20 -6 -14 -7 -26 -20 -26 -29 0 -9 -4 -19 -8 -22 -15 -9 -12 -68 5 -97 19 -33 79 -51 93 -29 4 7 19 14 33 15 13 2 33 8 44 13 11 6 28 10 39 10 10 -1 49 2 87 6 l67 8 0 -30 c0 -49 -18 -58 -130 -66 -56 -3 -111 -11 -123 -18 -34 -18 -49 -37 -41 -50 4 -7 7 -26 6 -42 -2 -17 2 -43 9 -58 12 -28 47 -47 58 -31 3 5 22 18 41 28 28 14 62 18 165 21 120 2 174 -1 326 -21 50 -7 59 -5 78 14 17 17 21 32 20 75 l-2 54 -61 11 c-33 6 -88 14 -121 17 -33 4 -67 8 -75 10 -8 1 -21 3 -27 3 -17 1 -17 56 0 68 6 6 21 9 32 7 11 -2 44 -4 73 -5 29 -1 55 -5 57 -9 2 -3 21 -7 42 -9 21 -1 56 -6 78 -10 32 -6 50 -3 88 16 27 14 47 27 44 30 -6 5 15 71 33 105 10 18 -11 33 -26 18 -5 -5 -29 -4 -54 1 -25 5 -114 12 -198 15 l-153 7 1 101 c1 114 -12 219 -30 241 -19 23 -57 18 -71 -7z"/>
<path d="M485 890 c3 -4 -3 -6 -14 -3 -11 3 -26 -4 -37 -15 -11 -11 -29 -23 -42 -27 -12 -3 -33 -17 -46 -30 -13 -13 -27 -21 -30 -18 -3 4 -6 1 -6 -5 0 -7 -5 -12 -11 -12 -6 0 -16 -6 -24 -12 -7 -7 -28 -24 -46 -38 -18 -14 -47 -40 -65 -58 -27 -28 -34 -31 -41 -18 -8 14 -13 14 -48 -4 -22 -11 -43 -28 -47 -38 -22 -55 7 -125 65 -157 31 -16 35 -16 65 -1 18 9 32 21 32 26 0 6 7 10 15 10 8 0 15 5 15 10 0 6 3 10 8 10 4 0 6 -98 6 -218 -2 -216 4 -259 32 -248 8 3 14 -1 14 -9 0 -18 14 -19 41 -4 12 6 18 17 15 27 -3 9 0 37 8 62 9 30 11 72 8 125 -7 96 -7 181 0 297 5 83 6 87 40 120 20 18 43 48 52 66 15 30 15 32 -1 32 -13 0 -10 7 14 33 25 26 63 86 63 99 0 2 -9 4 -20 5 -11 1 -18 -2 -15 -7z"/>
</g>
</g></g></g></g></g></svg>