<?xml version="1.0" encoding="utf-8"?><!DOCTYPE svg PUBLIC "-//W3C//DTD SVG 1.1//EN" "http://www.w3.org/Graphics/SVG/1.1/DTD/svg11.dtd"><svg version="1.1" xmlns="http://www.w3.org/2000/svg" width="160" height="160" viewBox="0 0 160 160"><g transform="scale(0.303,0.303)"><g transform="translate(0,0)"><g transform="translate(0,0)"><g transform="translate(0,0) scale(1,1)"><g transform="scale(2.9464285714285716,2.9464285714285716) translate(19.599999999999994,53.099999999999994)"><g transform="translate(0.000000,73.000000) scale(0.100000,-0.100000)" fill="#000000" stroke="none">
<path d="M675 713 c-11 -3 -33 -14 -48 -26 -24 -16 -28 -25 -24 -51 9 -56 19 -101 23 -105 2 -2 -1 -11 -6 -21 -9 -17 -57 -33 -64 -21 -7 11 -321 -6 -376 -20 -19 -5 -48 -9 -65 -9 -36 -1 -79 -36 -89 -74 -11 -43 47 -187 82 -204 35 -17 81 1 101 38 22 42 50 57 117 63 28 2 56 7 62 11 7 4 56 7 109 8 l98 0 3 -35 3 -35 -53 -7 c-29 -3 -75 -8 -103 -10 -27 -2 -63 -8 -80 -13 -28 -8 -30 -12 -33 -63 -3 -38 2 -64 14 -87 20 -38 31 -38 114 -7 38 15 67 16 191 11 80 -3 172 -13 203 -21 79 -21 87 -19 119 19 20 26 27 46 27 80 0 41 -2 45 -32 55 -35 11 -83 19 -163 28 -27 3 -50 6 -51 6 0 1 1 20 4 43 4 46 2 45 103 25 30 -6 77 -13 104 -16 78 -9 97 -12 142 -24 25 -7 50 -8 65 -3 12 5 29 7 37 4 8 -3 11 0 7 7 -4 6 -3 11 2 11 17 0 102 81 102 98 0 8 14 39 30 69 37 66 38 76 4 62 -15 -5 -29 -7 -32 -5 -2 3 -12 1 -21 -3 -21 -12 -131 -22 -131 -13 0 4 -15 8 -32 8 -18 1 -109 5 -201 9 l-168 8 7 83 c7 81 6 83 -21 108 -27 26 -40 29 -80 19z"/>
</g>
</g></g></g></g></g></svg>