<?xml version="1.0" encoding="utf-8"?><!DOCTYPE svg PUBLIC "-//W3C//DTD SVG 1.1//EN" "http://www.w3.org/Graphics/SVG/1.1/DTD/svg11.dtd"><svg version="1.1" xmlns="http://www.w3.org/2000/svg" width="160" height="160" viewBox="0 0 160 160"><g transform="scale(0.303,0.303)"><g transform="translate(0,0)"><g transform="translate(0,0)"><g transform="translate(0,0) scale(1,1)"><g transform="scale(2.9464285714285716,2.9464285714285716) translate(19.599999999999994,30.099999999999994)"><g transform="translate(0.000000,119.000000) scale(0.100000,-0.100000)" fill="#000000" stroke="none">
<path d="M139 1159 c-7 -13 -8 -37 -4 -63 4 -22 9 -115 10 -206 5 -262 13 -454 20 -471 3 -9 5 -20 4 -25 -4 -23 3 -42 22 -63 23 -24 40 -24 108 5 23 10 81 17 161 19 69 3 125 5 125 5 0 3 176 12 195 10 14 -1 30 -1 35 -1 53 5 105 5 105 0 0 -3 56 -5 125 -4 l125 1 0 -53 c0 -55 -19 -133 -32 -133 -5 0 -8 -6 -8 -14 0 -7 -11 -30 -25 -50 -14 -20 -25 -42 -25 -49 1 -27 36 -56 75 -63 36 -5 46 -2 84 28 67 51 105 134 147 321 22 98 14 119 -58 152 -59 28 -104 31 -131 10 -15 -10 -61 -14 -198 -15 l-179 0 0 45 0 45 103 1 c56 1 134 1 174 0 81 -2 127 15 145 55 10 21 8 28 -9 46 -28 27 -85 37 -218 36 -60 0 -129 1 -153 1 l-43 1 3 38 3 37 183 6 c182 7 183 7 208 34 17 18 24 36 22 54 l-3 26 -208 -1 -208 -1 3 41 3 41 115 -1 c63 -1 148 -3 188 -4 68 -3 74 -2 102 25 34 32 39 70 12 84 -17 9 -479 24 -557 18 -16 -1 -100 -2 -186 -2 -130 0 -160 3 -175 16 -27 23 -80 39 -130 39 -34 0 -46 -5 -55 -21z m481 -171 c0 -13 3 -33 6 -45 6 -23 6 -23 -120 -23 l-127 0 3 37 c4 45 17 50 151 52 84 1 87 0 87 -21z m-3 -191 c2 -2 5 -21 6 -41 l3 -36 -133 0 -134 0 3 37 c2 30 8 39 28 44 25 7 219 3 227 -4z m-9 -213 c17 -5 22 -14 22 -40 0 -19 5 -34 12 -34 6 0 9 -2 6 -5 -3 -3 -61 -8 -129 -11 -68 -2 -136 -7 -151 -9 -16 -3 -28 0 -28 4 0 5 -3 17 -7 27 -4 12 -3 15 5 10 8 -5 12 3 12 23 l0 30 113 4 c61 1 114 4 117 5 3 1 15 -1 28 -4z"/>
<path d="M597 329 c-24 -14 -45 -66 -42 -99 2 -14 4 -28 4 -32 1 -10 40 -34 68 -42 33 -10 73 35 73 84 0 33 -6 43 -39 69 -44 35 -40 34 -64 20z"/>
<path d="M851 321 c-11 -11 -24 -37 -30 -57 -9 -34 -8 -41 11 -61 19 -20 30 -23 80 -20 57 3 87 21 88 53 0 6 -29 31 -65 57 -64 46 -65 47 -84 28z"/>
<path d="M68 298 c-22 -19 -58 -82 -58 -104 0 -17 43 -62 62 -65 14 -2 28 -6 31 -9 10 -11 50 -3 72 14 37 30 46 82 23 123 -27 45 -97 67 -130 41z"/>
<path d="M321 281 c-27 -38 -27 -74 2 -104 23 -25 67 -42 67 -26 0 5 5 9 11 9 16 0 59 48 59 65 0 8 -14 30 -31 50 -40 45 -79 47 -108 6z"/>
</g>
</g></g></g></g></g></svg>