<?xml version="1.0" encoding="utf-8"?><!DOCTYPE svg PUBLIC "-//W3C//DTD SVG 1.1//EN" "http://www.w3.org/Graphics/SVG/1.1/DTD/svg11.dtd"><svg version="1.1" xmlns="http://www.w3.org/2000/svg" width="160" height="160" viewBox="0 0 160 160"><g transform="scale(0.303,0.303)"><g transform="translate(0,0)"><g transform="translate(0,0)"><g transform="translate(0,0) scale(1,1)"><g transform="scale(2.9464285714285716,2.9464285714285716) translate(19.599999999999994,41.599999999999994)"><g transform="translate(0.000000,96.000000) scale(0.100000,-0.100000)" fill="#CC3300" stroke="none">
<path d="M566 904 c-48 -53 -131 -99 -200 -109 -59 -9 -93 -38 -102 -88 -6 -35 -4 -38 24 -48 28 -10 31 -15 42 -82 6 -40 12 -84 15 -98 4 -27 -11 -36 -83 -45 -13 -2 -59 -10 -103 -19 -44 -9 -85 -15 -92 -12 -15 5 -36 -15 -30 -29 2 -7 0 -15 -6 -19 -14 -8 -14 -89 -1 -137 19 -69 58 -68 144 0 50 40 134 72 188 72 27 0 47 3 45 8 -6 9 28 11 178 12 166 0 285 -4 285 -10 0 -3 15 -5 33 -5 17 0 36 -2 42 -4 29 -14 272 -24 280 -11 3 5 12 7 20 4 8 -4 18 1 21 10 3 9 12 16 19 16 17 0 40 29 40 50 0 10 7 26 16 36 17 21 49 71 49 78 0 2 -16 0 -34 -4 -19 -4 -38 -5 -41 -2 -3 3 -58 7 -123 8 -64 2 -143 4 -175 5 -32 1 -60 -1 -64 -4 -3 -4 -10 -4 -16 0 -6 3 -36 5 -68 4 -55 -2 -57 -2 -61 26 -3 15 -9 36 -13 46 -6 14 -2 17 26 18 19 1 37 1 42 0 4 0 7 4 7 9 0 6 15 10 34 10 19 0 37 4 40 9 3 4 25 14 48 20 45 13 87 56 71 72 -29 29 -415 34 -516 5 -71 -20 -67 -20 -67 3 0 16 11 22 56 31 30 6 62 9 70 6 8 -3 14 -1 14 5 0 6 7 9 15 5 10 -3 15 1 15 12 0 15 2 15 10 2 8 -13 10 -12 10 3 0 10 4 16 9 13 5 -4 25 13 45 36 68 79 42 138 -63 138 -51 0 -56 -2 -95 -46z m92 -369 c6 -41 -18 -54 -103 -57 -65 -2 -80 0 -82 12 -2 9 8 20 27 27 16 6 30 19 30 28 0 13 10 15 63 13 53 -3 62 -6 65 -23z"/>
<path d="M791 239 c-14 -13 -28 -18 -42 -14 -14 5 -25 1 -34 -12 -22 -28 -19 -37 29 -86 40 -42 49 -46 107 -53 35 -5 71 -7 79 -5 12 2 54 28 79 48 3 2 -5 10 -17 19 -12 8 -19 21 -16 29 4 8 1 15 -6 15 -6 0 -8 5 -4 12 4 7 3 8 -5 4 -7 -5 -26 6 -47 28 -27 28 -39 34 -52 27 -10 -5 -23 -6 -33 -1 -11 7 -23 3 -38 -11z"/>
<path d="M401 214 c-34 -9 -58 -11 -64 -5 -12 12 -57 -8 -57 -26 0 -7 -4 -13 -9 -13 -16 0 -12 -103 5 -128 15 -23 20 -24 83 -19 91 8 100 13 107 58 4 22 14 45 24 52 9 7 25 27 36 45 16 29 17 34 4 42 -21 13 -65 11 -129 -6z"/>
<path d="M987 149 c7 -7 15 -10 18 -7 3 3 -2 9 -12 12 -14 6 -15 5 -6 -5z"/>
</g>
</g></g></g></g></g></svg>