<?xml version="1.0" encoding="utf-8"?><!DOCTYPE svg PUBLIC "-//W3C//DTD SVG 1.1//EN" "http://www.w3.org/Graphics/SVG/1.1/DTD/svg11.dtd"><svg version="1.1" xmlns="http://www.w3.org/2000/svg" width="160" height="160" viewBox="0 0 160 160"><g transform="scale(0.303,0.303)"><g transform="translate(0,0)"><g transform="translate(0,0)">
<g transform="translate(0,0) scale(1,1)">

<path fill="#000000" d=" M 207.80 89.67 C 214.46 85.93 219.81 79.84 227.09 77.25 C 235.81 77.62 245.45 79.48 251.04 86.96 C 259.63 96.18 255.86 109.81 260.26 120.74 C 261.08 123.72 264.44 125.10 267.25 125.43 C 281.30 126.49 295.41 128.88 309.51 126.89 C 315.06 125.10 320.53 129.24 325.98 127.07 C 331.08 125.15 336.47 123.62 341.98 124.97 C 360.50 127.59 379.22 128.25 397.76 130.60 C 402.64 132.04 408.33 133.21 411.50 137.53 C 414.44 141.99 416.69 147.32 415.90 152.79 C 412.16 157.57 408.26 162.69 402.93 165.77 C 394.88 167.74 386.96 163.68 378.94 163.30 C 370.81 162.97 361.44 160.96 354.47 166.46 C 350.34 170.04 350.91 176.09 350.88 181.00 C 350.37 195.54 361.82 207.12 361.11 221.65 C 358.94 226.68 357.51 234.63 350.72 234.55 C 338.84 233.55 327.42 228.55 315.33 229.42 C 305.27 231.73 299.06 242.61 288.32 243.20 C 281.01 244.29 273.48 246.15 267.79 251.09 C 268.18 260.14 267.35 269.75 272.05 277.96 C 273.88 280.60 276.04 283.77 279.45 284.41 C 293.48 286.94 307.84 285.59 322.01 286.18 C 336.22 286.82 350.45 286.59 364.62 285.40 C 374.73 283.77 384.58 279.62 394.99 280.56 C 400.74 280.59 406.29 278.73 411.94 277.99 C 418.42 278.83 424.92 280.34 431.48 279.06 C 444.09 279.58 457.61 279.76 468.93 286.16 C 475.74 289.32 481.12 294.69 486.81 299.47 C 486.38 305.10 486.01 310.93 484.27 316.32 C 477.40 325.54 467.90 333.54 456.59 336.57 C 446.54 338.92 438.52 346.15 428.79 349.21 C 422.23 347.80 416.50 343.87 410.15 341.75 C 397.47 336.53 383.78 334.98 370.36 332.80 C 361.53 332.02 351.88 334.25 344.24 328.61 C 343.49 330.01 342.77 331.43 342.06 332.86 C 334.00 332.19 326.03 330.84 318.04 329.68 C 313.67 328.96 309.92 332.35 305.60 332.26 C 298.13 332.06 290.85 329.18 283.37 329.60 C 277.94 331.75 270.68 334.60 270.52 341.57 C 267.45 355.32 266.80 369.65 261.88 382.96 C 255.97 397.63 256.12 413.55 253.89 428.96 C 252.58 438.05 247.55 445.89 243.58 453.99 C 235.89 453.05 228.42 450.96 220.91 449.13 C 217.73 437.18 215.22 424.52 218.28 412.26 C 222.78 396.01 222.85 379.02 224.68 362.37 C 225.79 356.33 228.57 349.71 225.59 343.74 C 224.03 340.42 223.96 336.33 221.76 333.35 C 209.21 328.34 194.96 327.48 181.85 330.75 C 161.87 335.40 141.16 337.34 121.93 344.89 C 110.76 349.42 99.10 352.93 88.38 358.44 C 73.21 367.58 76.06 389.85 61.95 399.97 C 59.51 401.55 55.36 402.02 53.71 399.28 C 47.84 390.97 46.59 380.67 42.64 371.50 C 40.31 364.55 40.23 356.63 42.83 349.76 C 48.84 340.38 56.98 332.20 60.53 321.39 C 62.12 318.29 63.16 313.27 67.30 312.57 C 71.24 312.42 75.11 313.54 79.06 313.52 C 86.17 315.05 91.11 308.01 98.04 308.41 C 110.14 307.42 122.07 305.18 133.66 301.57 C 145.51 299.18 157.87 300.57 169.67 297.71 C 185.19 293.91 201.14 292.61 216.85 289.92 C 222.38 279.40 228.52 268.96 231.04 257.21 C 232.95 250.54 229.52 244.00 226.95 238.00 C 224.57 232.62 217.57 234.65 213.03 234.12 C 207.75 233.47 201.68 235.43 197.18 231.66 C 191.67 227.82 184.89 225.76 178.15 227.14 C 173.16 228.56 169.88 232.85 166.32 236.31 C 157.97 245.48 147.22 251.85 137.62 259.57 C 131.22 264.05 124.74 269.34 116.83 270.77 C 112.30 271.97 108.62 264.81 113.06 262.11 C 117.41 258.70 119.54 253.68 122.16 249.03 C 129.72 241.63 138.26 235.24 145.36 227.35 C 153.10 219.68 158.26 209.95 164.09 200.86 C 161.40 196.15 159.92 189.81 154.69 187.34 C 146.20 187.41 137.98 190.71 129.80 192.74 C 126.07 193.24 126.05 197.34 124.97 200.24 C 122.46 198.73 119.95 197.16 117.16 196.18 C 102.86 209.43 96.50 228.96 81.90 241.91 C 79.09 244.08 76.29 247.76 72.28 246.95 C 64.51 240.25 62.81 228.92 64.69 219.31 C 66.20 212.32 67.52 205.29 68.59 198.22 C 69.61 193.10 72.65 188.61 73.24 183.36 C 74.72 178.01 74.71 171.82 78.19 167.22 C 90.02 157.17 105.83 154.96 120.59 152.25 C 126.25 151.07 131.95 153.36 137.63 152.00 C 143.83 151.84 148.67 147.49 154.12 145.15 C 162.66 141.29 173.31 145.27 181.02 139.03 C 184.37 136.95 186.69 133.48 188.32 129.97 C 186.36 124.46 182.40 119.35 183.13 113.18 C 187.20 101.90 198.04 95.43 207.80 89.67 M 263.99 162.87 C 260.60 166.95 259.11 172.68 261.25 177.75 C 266.00 189.11 267.49 201.38 268.71 213.52 C 269.87 216.94 274.00 217.64 276.89 219.08 C 281.83 213.52 285.86 207.17 288.09 200.02 C 290.31 193.25 295.80 188.10 297.56 181.11 C 293.18 176.60 293.66 169.17 288.80 165.21 C 281.10 161.47 272.20 163.36 263.99 162.87 M 218.83 174.01 C 211.94 175.99 209.58 183.53 209.21 189.94 C 210.89 198.78 216.31 206.33 222.32 212.80 C 223.64 212.83 226.29 212.88 227.61 212.90 C 232.27 201.47 233.76 187.63 227.40 176.52 C 226.06 173.43 221.81 171.78 218.83 174.01 Z"/>
</g>
</g></g></g></svg>