<?xml version="1.0" encoding="utf-8"?><!DOCTYPE svg PUBLIC "-//W3C//DTD SVG 1.1//EN" "http://www.w3.org/Graphics/SVG/1.1/DTD/svg11.dtd"><svg version="1.1" xmlns="http://www.w3.org/2000/svg" width="160" height="160" viewBox="0 0 160 160"><g transform="scale(0.303,0.303)"><g transform="translate(0,0)"><g transform="translate(0,0)"><g transform="translate(0,0) scale(1,1)"><g transform="scale(2.9464285714285716,2.9464285714285716) translate(19.599999999999994,41.099999999999994)"><g transform="translate(0.000000,97.000000) scale(0.100000,-0.100000)" fill="#000000" stroke="none">
<path d="M665 945 c-55 -7 -123 -21 -151 -30 -48 -16 -52 -20 -68 -70 -16 -44 -16 -58 -6 -89 6 -20 20 -42 31 -49 24 -15 24 -30 -2 -130 -12 -45 -22 -91 -24 -102 -8 -59 -66 -121 -166 -178 -48 -27 -59 -26 -59 4 0 10 -10 24 -22 30 -29 16 -90 13 -103 -5 -5 -7 -17 -11 -25 -8 -8 3 -12 1 -8 -3 5 -5 -1 -14 -11 -22 -26 -18 -34 -61 -26 -143 7 -74 26 -106 67 -117 40 -10 108 -10 108 0 0 5 7 7 15 3 8 -3 14 0 12 6 -1 6 9 12 23 12 30 1 141 67 176 104 13 15 24 23 24 19 0 -4 20 12 44 35 23 24 41 46 39 50 -2 4 7 14 19 22 12 9 18 16 13 16 -6 0 -3 5 5 10 12 8 12 10 1 10 -11 0 -11 3 2 18 8 9 15 19 14 22 -2 8 22 127 50 252 l27 117 51 10 c58 11 225 11 225 0 0 -4 19 -8 43 -8 77 -2 107 -5 107 -12 0 -6 155 -4 197 2 7 2 22 22 35 46 13 24 27 43 31 43 5 0 6 9 2 19 -3 11 -1 22 5 26 6 4 9 14 5 22 -3 9 2 24 11 34 16 18 15 19 -22 20 -56 1 -167 9 -254 18 -116 13 -325 11 -435 -4z m-365 -859 c0 -2 -8 -10 -17 -17 -16 -13 -17 -12 -4 4 13 16 21 21 21 13z"/>
<path d="M792 667 c-5 -7 -13 -34 -16 -62 -4 -27 -11 -63 -16 -80 -4 -16 -15 -55 -24 -85 -24 -88 -28 -112 -26 -169 1 -61 13 -91 35 -91 10 0 15 -10 15 -30 0 -21 4 -28 14 -24 8 3 17 13 19 22 4 15 5 15 6 1 0 -9 9 -19 20 -22 14 -3 18 1 19 22 0 45 2 47 22 21 l20 -25 0 23 c0 13 4 20 10 17 6 -3 7 1 4 9 -5 14 6 16 72 17 108 1 146 -1 166 -12 10 -6 19 -5 23 1 11 18 23 11 34 -20 10 -30 25 -38 35 -21 4 5 16 8 29 7 19 -2 30 10 62 62 38 63 40 70 49 196 7 99 7 131 -2 134 -7 2 -10 8 -7 12 3 5 -3 18 -14 29 -11 11 -17 22 -13 25 8 9 -20 11 -323 19 -91 2 -141 8 -167 19 -28 13 -39 14 -46 5z m351 -217 c20 0 24 -40 5 -40 -7 0 -68 -1 -136 -3 -118 -2 -141 2 -104 19 24 11 173 32 197 28 11 -2 28 -4 38 -4z"/>
</g>
</g></g></g></g></g></svg>