<?xml version="1.0" encoding="utf-8"?><!DOCTYPE svg PUBLIC "-//W3C//DTD SVG 1.1//EN" "http://www.w3.org/Graphics/SVG/1.1/DTD/svg11.dtd"><svg version="1.1" xmlns="http://www.w3.org/2000/svg" width="160" height="160" viewBox="0 0 160 160"><g transform="scale(0.303,0.303)"><g transform="translate(0,0)"><g transform="translate(0,0)"><g transform="translate(0,0) scale(1,1)"><g transform="scale(2.9464285714285716,2.9464285714285716) translate(19.599999999999994,27.099999999999994)"><g transform="translate(0.000000,125.000000) scale(0.100000,-0.100000)" fill="#000000" stroke="none">
<path d="M713 1235 c-31 -34 -56 -107 -102 -300 -17 -71 -40 -163 -51 -204 -11 -40 -18 -87 -15 -105 2 -17 4 -37 4 -43 1 -18 46 -16 61 2 7 8 16 12 21 10 4 -3 11 11 15 32 9 51 34 91 85 133 24 19 45 35 48 35 3 1 17 7 30 14 l24 13 -21 -33 c-12 -19 -30 -51 -42 -71 -11 -20 -31 -48 -44 -61 -18 -19 -23 -32 -20 -65 4 -57 9 -62 60 -62 51 0 57 -14 21 -56 l-24 -27 -21 21 c-27 27 -93 30 -116 6 -50 -50 -71 -295 -31 -364 28 -47 94 -79 165 -80 31 0 100 11 154 25 120 30 362 111 396 133 35 21 79 74 80 94 0 25 -38 95 -70 127 -19 18 -32 46 -40 84 -6 32 -15 55 -20 52 -11 -7 -29 56 -33 111 -1 22 -7 46 -12 54 -5 8 -14 37 -20 65 -10 42 -12 11 -12 -205 0 -140 -3 -264 -6 -275 -10 -31 -383 -175 -452 -175 -40 0 -50 25 -50 125 0 63 4 97 14 108 18 23 31 21 31 -3 0 -18 7 -20 63 -20 61 0 111 16 111 35 0 6 -14 19 -31 31 l-31 21 56 56 c66 66 65 76 -11 117 -40 22 -44 28 -34 45 13 24 20 31 77 75 25 19 55 45 67 58 22 22 22 25 8 60 -9 20 -27 47 -41 60 -25 22 -68 30 -78 13 -6 -8 -152 -91 -161 -91 -2 0 2 12 10 28 49 92 90 221 87 272 -1 14 -11 46 -23 71 -23 51 -57 75 -76 54z"/>
<path d="M214 861 c-22 -10 -52 -34 -67 -52 l-26 -34 26 -27 c15 -16 32 -28 39 -28 7 0 15 -19 19 -42 3 -24 9 -56 12 -72 4 -24 2 -28 -12 -22 -9 3 -47 9 -84 12 -54 5 -69 4 -80 -10 -7 -9 -20 -16 -28 -16 -11 0 -11 -4 -3 -20 7 -12 8 -39 5 -64 -7 -43 14 -106 34 -106 4 0 21 -20 37 -45 28 -45 35 -49 87 -45 15 1 27 -1 27 -5 0 -8 -55 -123 -72 -150 -7 -11 -25 -35 -41 -53 -15 -18 -27 -37 -27 -41 0 -11 79 -31 123 -31 28 0 42 8 74 43 22 24 46 60 52 80 14 41 22 45 41 21 25 -29 48 -35 77 -21 16 8 33 13 39 10 6 -2 16 8 24 22 11 20 11 35 1 77 -15 65 -34 87 -83 94 l-38 7 5 66 c11 120 14 131 38 131 44 0 64 12 75 44 7 18 12 41 12 52 0 25 -58 64 -94 64 -28 0 -29 0 -22 49 8 58 -5 98 -36 110 -54 20 -93 20 -134 2z"/>
</g>
</g></g></g></g></g></svg>