<?xml version="1.0" encoding="utf-8"?><!DOCTYPE svg PUBLIC "-//W3C//DTD SVG 1.1//EN" "http://www.w3.org/Graphics/SVG/1.1/DTD/svg11.dtd"><svg version="1.1" xmlns="http://www.w3.org/2000/svg" width="160" height="160" viewBox="0 0 160 160"><g transform="scale(0.303,0.303)"><g transform="translate(0,0)"><g transform="translate(0,0)"><g transform="translate(0,0) scale(1,1)"><g transform="scale(2.384393063583815,2.384393063583815) translate(40.72,24.22)"><g transform="translate(0.000000,173.000000) scale(0.100000,-0.100000)" fill="#000000" stroke="none">
<path d="M731 1714 c-31 -14 -33 -17 -26 -52 6 -32 8 -82 6 -133 -1 -12 -26 -20 -107 -34 -59 -11 -108 -25 -111 -32 -7 -17 44 -113 77 -146 30 -30 75 -39 118 -24 16 6 22 5 22 -6 0 -9 -26 -23 -66 -36 -36 -12 -79 -28 -94 -36 -38 -20 -40 -19 -40 9 0 16 -12 31 -39 49 l-38 26 -7 -64 c-3 -35 -13 -80 -22 -101 -10 -25 -16 -72 -17 -138 -1 -91 2 -105 25 -146 42 -74 104 -91 164 -45 25 19 45 25 83 25 44 0 51 -3 51 -20 0 -16 -21 -26 -127 -60 -71 -22 -171 -52 -223 -65 -52 -13 -124 -36 -159 -50 -68 -28 -91 -27 -91 4 0 26 -45 37 -75 17 -35 -23 -41 -53 -17 -79 17 -18 20 -30 15 -65 -5 -38 -3 -44 16 -49 11 -3 21 -9 21 -13 0 -10 63 -50 79 -50 6 0 20 9 31 20 11 11 48 33 82 48 35 16 76 41 91 55 31 30 59 47 87 52 11 2 36 11 57 20 21 10 47 21 58 26 46 20 147 51 151 46 3 -2 9 -123 15 -268 9 -267 20 -379 32 -329 45 195 52 249 52 433 l0 188 85 30 c192 69 244 73 343 30 64 -28 105 -26 140 4 15 13 27 28 27 34 0 23 -69 80 -123 99 -71 27 -97 27 -145 3 -20 -10 -80 -26 -132 -35 -110 -20 -171 -33 -194 -42 -11 -4 -16 -1 -16 14 0 15 6 19 28 16 19 -2 36 6 57 25 17 16 45 36 63 45 17 9 32 20 32 25 0 4 43 51 96 103 96 95 96 96 89 135 -15 92 -157 180 -248 155 l-37 -10 21 40 c16 31 18 43 8 54 -8 10 -8 14 0 14 18 0 13 44 -7 56 -10 6 -32 15 -50 18 -17 4 -34 11 -37 16 -3 5 2 33 12 62 20 58 14 99 -19 131 -19 20 -23 20 -67 1z m187 -473 c10 -6 11 -18 3 -50 -5 -23 -11 -45 -14 -48 -3 -2 -20 3 -37 12 -22 11 -44 15 -66 10 -31 -5 -34 -4 -34 19 0 43 106 84 148 57z m-218 -86 c0 -8 -6 -15 -14 -15 -8 0 -17 -8 -20 -18 -6 -19 -96 -92 -114 -92 -5 0 -13 7 -16 16 -18 48 8 80 87 105 67 22 77 22 77 4z m184 -112 c-4 -16 -8 -29 -9 -31 -7 -8 -105 -18 -105 -10 0 23 23 48 43 48 12 0 29 5 37 10 28 18 41 12 34 -17z m-184 -63 c0 -27 -6 -34 -42 -50 l-42 -19 -23 32 c-12 17 -21 32 -19 34 6 6 90 31 109 32 13 1 17 -7 17 -29z"/>
</g>
</g></g></g></g></g></svg>