<?xml version="1.0" encoding="utf-8"?><!DOCTYPE svg PUBLIC "-//W3C//DTD SVG 1.1//EN" "http://www.w3.org/Graphics/SVG/1.1/DTD/svg11.dtd"><svg version="1.1" xmlns="http://www.w3.org/2000/svg" width="160" height="160" viewBox="0 0 160 160"><g transform="scale(0.303,0.303)"><g transform="translate(0,0)"><g transform="translate(0,0)">
<g transform="translate(0,0) scale(1,1)">

<path fill="#CC3300" d=" M 259.69 93.77 C 264.69 93.31 269.48 91.78 273.90 89.45 C 277.69 98.71 280.66 108.36 285.31 117.25 C 280.93 121.20 280.80 127.56 279.61 132.92 C 277.30 144.02 274.78 155.08 272.07 166.08 C 270.93 169.68 273.70 172.72 275.47 175.55 C 281.77 173.02 289.73 171.68 295.06 176.90 C 298.75 179.53 304.58 182.85 302.42 188.51 C 298.91 194.06 293.07 198.06 291.24 204.67 C 288.62 209.60 285.83 215.42 288.89 220.83 C 284.48 227.05 275.92 234.83 280.59 243.11 C 279.17 242.78 277.77 242.45 276.36 242.13 C 274.62 250.27 270.00 258.24 272.30 266.76 C 274.08 271.38 274.89 277.47 279.45 280.32 C 287.98 284.07 298.43 286.43 304.03 294.59 C 305.10 294.08 306.16 293.56 307.24 293.05 C 310.18 304.50 309.46 317.06 304.92 327.95 C 299.44 334.10 290.47 335.30 283.35 339.05 C 279.10 341.48 277.67 335.27 275.41 332.82 C 274.71 342.83 273.02 352.76 272.69 362.80 C 273.49 375.72 274.86 388.62 276.43 401.47 C 276.89 408.44 280.05 414.95 280.48 421.89 C 278.91 427.78 275.00 432.82 271.95 438.02 C 269.39 442.14 263.89 442.55 259.82 444.14 C 254.49 438.31 251.07 431.05 245.65 425.32 C 243.40 422.93 243.79 419.39 243.09 416.38 C 242.29 410.96 240.69 405.70 239.79 400.31 C 237.99 376.20 236.38 352.05 236.90 327.85 C 230.81 337.97 223.39 347.20 217.14 357.21 C 215.18 361.02 210.33 361.52 208.08 365.00 C 203.38 371.56 198.76 378.32 192.35 383.37 C 185.43 389.23 179.15 395.83 172.05 401.48 C 167.13 404.19 161.92 406.39 156.75 408.58 C 156.12 403.52 152.03 396.67 156.42 392.44 C 162.78 386.12 167.70 377.63 168.39 368.59 C 181.80 357.12 181.40 337.04 193.70 324.76 C 196.65 318.86 200.09 312.67 200.48 305.93 C 207.30 297.81 211.06 287.73 216.55 278.74 C 220.73 270.11 226.19 262.17 230.32 253.52 C 224.09 255.73 219.39 260.56 213.70 263.73 C 207.90 267.17 202.24 270.85 196.70 274.68 C 191.78 278.18 186.10 281.22 183.63 287.11 C 180.48 286.55 177.07 285.50 174.02 286.90 C 168.10 289.45 161.95 291.73 156.80 295.70 C 147.99 300.90 137.53 302.05 128.46 306.70 C 117.42 312.67 104.86 315.13 92.44 316.05 C 80.64 315.73 72.59 304.00 70.65 293.33 C 69.27 286.86 73.03 281.12 75.03 275.32 C 89.66 277.05 102.72 268.74 114.98 261.97 C 147.04 241.47 179.41 221.42 212.41 202.47 C 220.20 198.53 229.01 196.52 235.85 190.81 C 241.27 183.23 236.59 173.51 237.89 164.98 C 237.71 151.89 243.09 139.51 242.73 126.37 C 245.64 117.66 241.77 109.01 242.42 100.27 C 246.12 94.32 253.78 95.10 259.69 93.77 Z"/>
<path fill="#CC3300" d=" M 405.80 118.76 C 410.01 116.02 415.26 118.05 419.86 118.17 C 427.84 119.27 434.02 124.85 441.19 128.02 C 446.43 132.40 450.32 138.21 454.15 143.83 C 458.07 149.60 457.61 156.87 458.10 163.49 C 456.16 165.12 453.83 166.60 452.91 169.08 C 450.54 174.75 447.28 179.97 444.19 185.26 C 439.79 192.56 440.32 201.48 439.55 209.67 C 436.84 234.93 445.49 259.40 446.90 284.41 C 445.63 299.91 443.81 315.45 444.68 331.02 C 444.69 338.50 445.91 346.29 443.28 353.50 C 439.93 363.62 439.49 374.48 435.44 384.40 C 432.12 393.52 422.69 398.16 418.60 406.87 C 416.04 405.88 413.36 404.99 410.89 403.86 C 402.98 398.33 402.52 388.02 396.86 380.99 C 399.03 377.40 399.29 373.18 399.68 369.10 C 391.66 367.90 383.86 365.67 375.83 364.58 C 377.70 364.54 379.58 364.51 381.46 364.47 C 375.72 361.31 369.93 358.23 364.29 354.89 C 362.96 361.91 361.86 369.06 358.10 375.31 C 356.54 381.03 353.72 388.64 346.37 388.05 C 338.34 374.43 329.95 359.69 330.42 343.34 C 331.79 329.03 335.64 314.54 332.86 300.13 C 329.12 277.25 329.67 253.85 332.99 230.95 C 334.74 218.30 334.30 205.30 338.00 192.96 C 338.75 190.09 341.84 189.07 344.08 187.64 C 343.06 175.29 336.66 164.50 327.81 156.14 C 329.98 153.32 332.62 150.66 336.55 150.54 C 354.96 145.72 374.19 141.28 389.79 129.80 C 395.12 126.11 400.24 122.11 405.80 118.76 M 367.67 191.58 C 360.09 193.48 352.11 192.98 344.76 190.41 C 353.26 195.96 361.48 202.76 365.85 212.13 C 366.96 217.31 362.41 220.25 359.64 223.68 C 371.46 217.26 385.09 219.31 397.99 220.05 C 397.98 207.81 398.02 195.57 398.05 183.34 C 388.05 186.53 377.81 188.90 367.67 191.58 M 358.26 247.43 C 359.04 254.14 359.79 260.89 359.46 267.66 C 369.95 267.99 380.27 270.62 389.64 275.34 C 392.41 279.74 392.66 285.23 394.28 290.07 C 388.29 294.22 382.49 298.70 375.99 302.04 C 374.89 302.97 373.67 303.30 372.54 302.45 C 368.52 300.28 364.69 297.75 361.22 294.78 C 362.51 298.18 364.19 301.47 365.06 305.02 C 364.47 310.76 362.98 316.38 362.48 322.15 C 374.05 323.26 385.79 322.73 397.25 324.88 C 398.67 310.30 397.56 295.61 398.12 280.99 C 398.18 272.80 399.59 264.71 399.58 256.52 C 393.56 258.48 386.54 260.00 381.02 255.98 C 374.04 251.59 366.06 249.73 358.26 247.43 Z"/>
</g>
</g></g></g></svg>