<?xml version="1.0" encoding="utf-8"?><!DOCTYPE svg PUBLIC "-//W3C//DTD SVG 1.1//EN" "http://www.w3.org/Graphics/SVG/1.1/DTD/svg11.dtd"><svg version="1.1" xmlns="http://www.w3.org/2000/svg" width="160" height="160" viewBox="0 0 160 160"><g transform="scale(0.303,0.303)"><g transform="translate(0,0)"><g transform="translate(0,0)">
<g transform="translate(0,0) scale(1,1)">

<path fill="#000000" d=" M 187.06 73.42 C 194.69 72.40 202.36 71.55 210.06 71.23 C 213.79 70.34 217.61 70.93 220.12 73.88 C 226.59 79.76 233.20 85.49 239.66 91.39 C 242.73 94.31 243.28 98.78 244.96 102.52 C 247.33 107.66 247.99 113.31 248.90 118.84 C 245.26 118.18 241.18 121.62 243.00 125.10 C 246.23 131.15 248.65 137.62 248.53 144.60 C 249.53 151.48 244.75 156.88 242.36 162.87 C 254.73 163.04 267.17 163.34 279.46 161.68 C 293.26 161.22 309.74 159.20 321.18 168.80 C 329.04 174.54 336.98 181.41 339.90 191.04 C 341.59 197.52 342.08 204.30 341.92 210.98 C 339.84 219.95 332.39 225.91 326.65 232.59 C 321.20 239.56 313.89 245.18 305.67 248.48 C 295.74 250.66 285.46 252.06 275.28 250.90 C 268.54 249.75 262.48 253.21 256.19 254.85 C 250.17 256.33 244.16 257.80 238.14 259.29 C 235.93 265.75 234.10 272.37 231.43 278.66 C 228.63 283.46 224.90 287.68 222.34 292.62 C 233.43 295.91 245.86 295.55 255.69 302.30 C 267.04 310.78 277.25 321.10 284.21 333.55 C 289.22 350.72 293.66 368.81 289.75 386.75 C 286.51 399.62 278.02 410.50 269.56 420.44 C 265.26 425.67 262.92 432.29 258.30 437.27 C 249.63 443.49 239.44 447.31 231.09 454.06 C 225.97 458.56 218.90 457.55 212.60 457.72 C 206.22 457.07 199.11 459.16 193.31 455.65 C 184.68 450.48 173.60 451.84 165.50 445.58 C 158.01 440.45 148.65 438.52 141.87 432.29 C 136.80 429.69 135.83 423.90 133.31 419.38 C 132.43 414.81 132.76 409.60 135.92 405.92 C 139.45 402.73 137.32 397.93 137.39 394.03 C 139.93 393.21 142.47 392.40 145.03 391.62 C 150.67 399.97 154.39 410.05 163.04 415.95 C 171.83 421.54 182.10 426.25 192.77 425.43 C 201.48 421.54 209.15 415.48 218.19 412.16 C 217.11 410.84 216.01 409.54 214.91 408.25 C 207.67 408.16 200.01 409.50 193.15 406.64 C 183.94 403.52 172.54 399.40 169.45 389.25 C 168.53 386.86 166.16 384.84 163.18 385.79 C 153.14 384.54 143.04 383.77 133.01 382.38 C 129.70 382.00 126.98 379.49 126.36 376.23 C 125.09 371.31 121.35 366.41 123.24 361.19 C 125.38 354.49 127.79 347.89 129.87 341.19 C 126.11 338.54 123.17 334.93 121.12 330.82 C 120.60 326.56 121.37 322.32 122.81 318.34 C 124.63 314.17 124.74 308.72 129.05 306.08 C 140.79 294.73 155.64 286.66 165.24 273.18 C 170.49 266.72 176.74 261.18 182.27 254.98 C 177.83 254.53 173.33 252.26 168.85 253.05 C 161.15 257.30 153.43 261.91 147.26 268.27 C 140.95 274.72 129.36 269.97 124.01 277.97 C 119.66 271.12 114.70 264.70 109.78 258.27 C 105.78 249.04 111.86 240.72 115.88 232.85 C 125.97 217.27 134.87 200.40 148.89 187.89 C 153.16 183.94 156.24 178.93 159.49 174.16 C 151.78 171.52 143.37 171.68 136.00 167.94 C 132.71 166.72 132.67 162.33 131.03 159.57 C 127.84 154.45 132.64 148.92 134.20 144.10 C 141.72 131.17 153.95 121.89 163.41 110.50 C 168.10 103.53 172.99 96.69 178.07 90.00 C 181.90 84.98 185.63 79.69 187.06 73.42 M 251.09 198.30 C 235.17 205.54 221.10 216.12 205.90 224.66 C 212.06 226.01 219.32 225.23 224.54 229.36 C 228.78 232.45 233.78 234.17 238.69 235.86 C 243.80 230.30 249.57 225.37 254.82 219.97 C 259.38 212.97 266.04 207.88 272.24 202.42 C 275.22 198.03 277.54 193.22 280.12 188.58 C 269.99 190.33 260.85 195.30 251.09 198.30 M 212.65 313.49 C 215.31 317.92 218.71 321.84 221.75 326.00 C 224.15 330.60 224.88 335.88 227.15 340.56 C 233.23 351.81 233.48 364.90 236.30 377.13 C 236.71 376.91 237.54 376.48 237.96 376.27 C 242.99 363.61 246.54 349.99 245.22 336.26 C 242.19 328.05 238.95 318.75 230.79 314.26 C 225.25 311.08 218.59 313.04 212.65 313.49 Z"/>
<path fill="#000000" d=" M 352.83 271.33 C 358.94 273.22 366.45 274.98 369.85 281.07 C 378.66 296.33 385.88 313.17 387.23 330.89 C 391.96 333.32 397.93 332.46 402.33 335.70 C 405.22 338.12 407.95 340.73 410.71 343.31 C 417.15 348.20 418.33 356.72 420.51 364.01 C 410.61 368.32 400.50 372.11 390.21 375.40 C 381.50 378.36 372.16 379.04 363.59 382.49 C 356.17 384.86 348.88 387.85 341.12 388.98 C 343.80 385.49 346.62 381.88 350.55 379.74 C 356.37 376.81 360.92 372.04 366.00 368.06 C 371.55 363.78 376.93 359.30 382.16 354.63 C 376.82 353.81 370.85 355.02 366.17 351.67 C 359.63 348.17 353.17 344.20 345.61 343.40 C 344.37 336.38 342.52 329.42 342.74 322.23 C 342.86 314.59 341.08 306.92 342.09 299.30 C 342.71 288.86 351.27 281.52 352.83 271.33 Z"/>
<path fill="#000000" d=" M 125.29 422.22 C 126.92 424.90 128.10 427.74 128.76 430.85 C 126.86 428.36 125.37 425.46 125.29 422.22 Z"/>
<path fill="#000000" d=" M 129.64 434.96 C 131.59 436.12 133.49 437.35 135.36 438.64 C 133.52 438.41 131.68 438.17 129.83 437.95 C 129.77 436.95 129.70 435.95 129.64 434.96 Z"/>
</g>
</g></g></g></svg>