<?xml version="1.0" encoding="utf-8"?><!DOCTYPE svg PUBLIC "-//W3C//DTD SVG 1.1//EN" "http://www.w3.org/Graphics/SVG/1.1/DTD/svg11.dtd"><svg version="1.1" xmlns="http://www.w3.org/2000/svg" width="160" height="160" viewBox="0 0 160 160"><g transform="scale(0.303,0.303)"><g transform="translate(0,0)"><g transform="translate(0,0)"><g transform="translate(0,0) scale(1,1)"><g transform="scale(2.9464285714285716,2.9464285714285716) translate(27.599999999999994,19.599999999999994)"><g transform="translate(0.000000,140.000000) scale(0.100000,-0.100000)" fill="#000000" stroke="none">
<path d="M829 1362 c34 -42 51 -121 51 -239 l0 -73 -57 -55 c-48 -46 -59 -53 -66 -39 -20 35 -63 74 -91 80 -28 7 -29 6 -21 -22 12 -42 8 -163 -5 -179 -7 -8 -14 -33 -16 -57 -3 -23 -6 -45 -7 -48 -5 -16 47 -98 73 -115 16 -11 30 -23 30 -28 0 -4 13 -1 28 7 25 13 31 25 47 98 9 46 21 88 26 94 5 6 6 14 2 17 -3 4 -1 7 5 7 7 0 12 8 12 18 0 9 8 29 18 43 16 26 17 13 17 -325 0 -374 8 -453 46 -463 10 -3 24 -21 33 -41 8 -21 16 -32 16 -27 2 11 6 32 11 55 2 8 10 20 16 28 21 22 35 93 29 151 -8 83 -16 212 -21 329 -4 117 1 123 55 61 33 -38 37 -40 72 -34 28 5 43 16 59 42 25 40 49 183 49 295 l0 77 -67 51 c-64 49 -71 51 -120 48 l-52 -3 5 30 c3 16 8 34 13 40 19 26 11 76 -21 124 -38 57 -82 83 -151 87 l-48 4 30 -38z m260 -337 c18 -17 21 -63 10 -146 -17 -125 -13 -120 -86 -111 -10 2 -13 35 -13 132 0 112 2 130 18 139 19 12 50 5 71 -14z"/>
<path d="M274 1271 c-17 -15 -37 -30 -45 -33 -22 -7 1 -28 31 -28 27 0 28 -1 20 -31 -5 -18 -15 -39 -22 -48 -8 -9 -13 -38 -13 -64 1 -38 6 -53 27 -72 23 -21 31 -23 53 -15 15 6 39 10 54 10 16 0 35 8 42 17 10 11 10 14 2 9 -7 -4 -13 -5 -13 -1 0 3 12 10 26 15 25 10 26 16 7 66 -2 6 7 24 20 40 27 32 40 73 29 90 -14 22 -99 63 -142 68 -40 6 -48 3 -76 -23z"/>
<path d="M12 1121 c6 -20 18 -52 28 -72 25 -47 33 -138 21 -224 -5 -38 -12 -90 -16 -115 -3 -25 -11 -58 -17 -73 -12 -30 -5 -148 12 -191 5 -14 16 -26 25 -26 8 0 15 -7 15 -15 0 -8 7 -15 15 -15 8 0 15 7 15 15 0 12 4 13 18 4 15 -10 24 -8 45 11 14 13 24 27 21 32 -3 4 -1 8 5 8 5 0 11 10 14 23 4 22 4 22 16 -3 8 -18 10 -19 7 -5 -2 11 -7 28 -11 37 -5 13 -1 18 17 22 12 2 50 9 83 16 33 7 88 16 122 20 35 4 69 13 77 19 19 16 9 80 -17 101 l-20 17 23 31 c14 18 25 50 27 79 5 45 3 51 -23 68 -16 11 -40 21 -53 23 -14 2 -32 7 -42 13 -28 15 -43 11 -75 -19 -27 -26 -58 -44 -95 -55 -14 -5 -18 6 -24 61 -12 117 -22 139 -84 181 -54 36 -104 62 -127 67 -9 1 -9 -8 -2 -35z m308 -348 c0 -24 -44 -121 -62 -135 -32 -28 -36 -22 -33 40 2 31 4 67 4 80 1 19 6 22 46 22 25 0 45 -3 45 -7z"/>
</g>
</g></g></g></g></g></svg>