<?xml version="1.0" encoding="utf-8"?><!DOCTYPE svg PUBLIC "-//W3C//DTD SVG 1.1//EN" "http://www.w3.org/Graphics/SVG/1.1/DTD/svg11.dtd"><svg version="1.1" xmlns="http://www.w3.org/2000/svg" width="160" height="160" viewBox="0 0 160 160"><g transform="scale(0.303,0.303)"><g transform="translate(0,0)"><g transform="translate(0,0)"><g transform="translate(0,0) scale(1,1)"><g transform="scale(2.844827586206897,2.844827586206897) translate(22.799999999999997,20.299999999999997)"><g transform="translate(0.000000,145.000000) scale(0.100000,-0.100000)" fill="#CC3300" stroke="none">
<path d="M725 1442 c-11 -12 -4 -42 10 -42 8 0 15 -5 15 -11 0 -29 -65 -198 -121 -314 -75 -157 -113 -220 -153 -260 -17 -16 -31 -35 -32 -42 -3 -18 23 -35 43 -29 26 8 123 112 158 167 6 9 22 35 38 57 15 23 41 67 58 99 17 31 42 71 55 88 13 18 24 37 24 43 0 7 5 12 10 12 6 0 10 9 10 20 0 11 4 20 10 20 5 0 12 11 16 25 4 14 9 24 11 21 8 -8 43 66 43 91 0 36 -43 57 -122 58 -37 1 -70 -1 -73 -3z"/>
<path d="M1005 1348 c-16 -6 -39 -17 -50 -24 -17 -13 -13 -14 43 -14 56 0 62 -2 62 -20 0 -28 -22 -69 -93 -174 -49 -71 -63 -85 -71 -73 -6 8 -25 17 -43 21 -26 6 -37 2 -67 -24 -47 -42 -64 -96 -46 -150 12 -37 12 -43 -7 -68 -11 -15 -37 -52 -59 -82 l-38 -55 76 68 c42 37 78 67 81 67 3 0 19 14 37 30 18 17 38 30 45 30 22 0 132 108 180 174 59 84 85 139 92 195 5 41 2 51 -22 79 -29 35 -62 40 -120 20z m-181 -340 c-17 -55 -36 -88 -49 -88 -25 0 -18 57 10 85 30 31 49 33 39 3z"/>
<path d="M222 1240 c18 -14 22 -33 29 -126 19 -271 20 -378 6 -398 -9 -12 -19 -16 -27 -11 -9 6 -10 9 0 15 10 6 10 19 -1 59 -10 39 -20 56 -43 71 -34 20 -138 61 -143 56 -7 -6 22 -101 32 -108 5 -4 10 -11 10 -15 0 -18 65 -100 89 -112 14 -8 26 -19 26 -24 0 -5 -29 -39 -64 -76 -52 -53 -67 -64 -77 -53 -18 17 -29 15 -29 -6 0 -10 -7 -28 -16 -40 -13 -19 -13 -28 -3 -60 6 -20 15 -39 18 -42 4 -3 14 -16 22 -30 9 -14 33 -31 53 -38 35 -13 38 -12 57 9 13 16 20 36 18 59 -3 48 9 107 32 157 10 23 23 63 29 89 11 49 28 87 31 69 11 -73 21 -438 12 -452 -6 -9 -22 -8 -66 2 -64 15 -63 15 -10 -51 18 -23 33 -46 33 -53 0 -22 31 -59 60 -71 37 -15 81 0 105 36 22 33 19 126 -10 329 -16 114 -21 180 -19 280 3 184 14 378 24 410 5 17 9 44 8 61 -1 29 -5 33 -63 53 -34 12 -81 24 -103 25 -40 3 -40 3 -20 -14z"/>
<path d="M976 872 c1 -27 -1 -53 -4 -58 -4 -5 -32 -19 -62 -31 -30 -11 -116 -44 -190 -73 -74 -29 -156 -63 -182 -76 -26 -13 -54 -24 -63 -24 -28 0 -15 -24 40 -78 48 -48 58 -53 84 -47 17 3 47 22 67 41 45 41 276 159 296 152 8 -4 15 -22 16 -44 2 -22 9 -93 16 -159 7 -66 13 -158 12 -204 l-1 -85 -60 -23 c-60 -24 -126 -27 -195 -8 -19 5 -11 -6 35 -50 82 -78 128 -97 238 -99 84 -1 90 0 112 26 22 26 43 126 31 147 -12 20 -56 312 -63 413 l-6 107 26 10 c14 6 71 9 125 8 98 -2 99 -2 125 28 14 17 27 33 27 36 1 18 -80 81 -115 90 -47 13 -127 6 -178 -16 -51 -21 -54 -20 -77 25 -12 24 -28 40 -38 40 -15 0 -17 -8 -16 -48z"/>
<path d="M637 453 c3 -7 13 -15 24 -18 11 -4 38 -27 62 -52 42 -45 109 -83 146 -83 29 0 64 37 55 58 -3 9 -9 27 -11 39 -3 12 -16 31 -29 44 -21 20 -34 22 -137 23 -86 1 -113 -2 -110 -11z"/>
</g>
</g></g></g></g></g></svg>