<?xml version="1.0" encoding="utf-8"?><!DOCTYPE svg PUBLIC "-//W3C//DTD SVG 1.1//EN" "http://www.w3.org/Graphics/SVG/1.1/DTD/svg11.dtd"><svg version="1.1" xmlns="http://www.w3.org/2000/svg" width="160" height="160" viewBox="0 0 160 160"><g transform="scale(0.303,0.303)"><g transform="translate(0,0)"><g transform="translate(0,0)">
<g transform="translate(0,0) scale(1,1)">

<path fill="#000000" d=" M 297.01 90.03 C 299.43 86.22 304.72 85.18 308.62 87.39 C 320.69 94.71 331.72 103.56 343.13 111.85 C 354.33 119.55 363.31 130.53 369.20 142.71 C 372.07 158.10 370.95 173.86 370.32 189.42 C 371.00 193.71 369.02 197.45 366.21 200.39 C 367.35 207.96 365.26 215.77 367.77 223.17 C 368.57 226.10 371.69 228.29 374.98 227.05 C 384.45 227.50 394.66 229.13 403.12 223.74 C 418.00 225.87 431.30 233.61 445.34 238.61 C 449.41 240.56 455.45 241.37 456.56 246.59 C 457.71 249.58 456.28 252.57 455.04 255.24 C 456.10 256.83 457.18 258.41 458.27 259.98 C 450.44 261.50 449.98 270.16 446.67 275.87 C 445.12 280.81 439.33 280.36 435.30 281.78 C 424.39 286.03 412.92 288.61 402.07 293.06 C 393.18 296.57 383.27 297.35 374.74 301.70 C 368.89 310.55 368.21 321.60 369.17 331.90 C 367.83 340.16 364.61 348.09 365.00 356.65 C 384.56 357.44 404.14 356.86 423.71 356.58 C 435.80 356.17 444.62 365.67 452.24 373.76 C 455.83 378.12 460.66 382.62 459.93 388.91 C 460.33 399.51 450.03 403.89 442.66 408.82 C 438.24 411.30 434.45 416.14 429.00 416.29 C 424.04 415.77 419.11 414.91 414.15 414.43 C 406.49 413.70 401.03 406.41 392.99 407.14 C 378.66 406.33 364.31 407.61 350.12 409.52 C 334.31 414.40 318.01 418.32 301.41 419.08 C 294.97 420.11 288.70 421.98 282.33 423.35 C 270.43 425.75 259.28 430.69 247.97 434.94 C 245.02 435.56 241.04 438.30 238.13 435.87 C 231.99 431.07 226.62 425.36 220.77 420.23 C 215.03 414.61 208.47 408.91 205.75 401.12 C 204.30 397.75 207.17 394.44 210.01 393.00 C 216.82 387.97 223.74 396.64 230.95 395.06 C 252.10 390.31 272.86 383.94 293.54 377.50 C 294.20 365.06 295.77 352.55 294.83 340.11 C 293.90 335.59 288.71 336.90 285.28 337.60 C 277.15 340.08 269.07 342.82 260.88 345.09 C 240.36 345.75 218.34 345.40 199.93 335.09 C 189.34 326.46 188.13 311.64 187.79 298.98 C 198.95 294.16 211.17 290.66 220.26 282.21 C 228.92 273.41 240.51 268.02 248.10 258.09 C 249.97 258.93 251.84 259.77 253.73 260.60 C 252.73 262.28 251.86 264.09 250.50 265.53 C 241.48 273.54 230.20 278.35 220.68 285.68 C 216.55 289.80 213.52 294.88 210.03 299.54 C 217.74 298.36 225.45 297.01 232.95 294.85 C 242.10 291.48 250.69 286.77 259.38 282.38 C 266.65 278.19 273.50 273.00 281.70 270.69 C 286.67 268.70 292.25 268.35 297.03 265.94 C 302.80 258.96 301.69 248.99 301.69 240.59 C 300.94 231.96 301.89 222.80 298.29 214.69 C 295.42 207.85 296.33 200.24 296.94 193.04 C 297.31 178.50 295.94 163.78 298.42 149.37 C 300.79 135.49 297.07 121.33 291.43 108.68 C 288.31 102.06 293.26 95.28 297.01 90.03 M 364.42 242.89 C 366.39 242.11 368.56 241.64 370.28 240.35 C 371.62 238.21 372.32 235.75 373.19 233.40 C 368.63 234.67 363.45 236.58 364.42 242.89 Z"/>
<path fill="#000000" d=" M 149.77 111.92 C 160.66 117.06 171.63 122.30 181.00 130.00 C 190.56 137.78 201.56 143.97 209.81 153.26 C 213.96 157.60 218.93 160.97 223.64 164.65 C 222.62 171.43 217.67 176.94 215.83 183.55 C 214.96 192.57 206.26 196.13 200.13 201.17 C 196.04 204.25 196.75 210.03 194.12 214.05 C 188.27 216.35 182.15 217.87 176.32 220.21 C 178.90 223.91 181.86 227.36 183.79 231.48 C 177.20 236.14 167.36 238.86 165.47 247.76 C 163.38 255.72 154.41 258.89 151.61 266.40 C 145.51 275.08 134.98 282.95 136.46 294.92 C 143.39 297.98 151.38 299.48 156.79 305.19 C 162.54 310.81 168.79 316.61 171.57 324.37 C 173.69 330.19 176.13 335.88 178.53 341.59 C 181.32 347.89 180.13 354.92 180.52 361.62 C 181.59 373.63 176.82 385.10 176.11 397.00 C 174.94 406.48 176.04 416.08 175.14 425.56 C 172.29 431.55 168.56 437.10 165.53 443.00 C 158.27 442.63 150.93 442.37 143.81 441.01 C 131.56 434.40 118.56 423.83 117.37 408.89 C 116.65 394.58 117.95 380.25 119.27 366.02 C 121.53 351.39 119.76 336.44 116.60 322.09 C 105.06 326.56 93.79 331.68 82.22 336.09 C 72.50 331.18 68.52 320.21 68.12 309.97 C 68.04 302.59 67.90 294.50 72.15 288.08 C 77.08 280.48 84.15 274.35 87.96 265.99 C 94.85 250.19 104.33 235.72 112.62 220.64 C 118.02 212.24 122.55 202.96 123.28 192.84 C 123.60 185.98 127.21 179.79 131.28 174.46 C 133.37 173.66 135.63 173.46 137.82 173.01 C 138.92 165.13 139.69 157.18 141.72 149.47 C 144.75 137.02 145.94 124.19 149.77 111.92 Z"/>
</g>
</g></g></g></svg>