<?xml version="1.0" encoding="utf-8"?><!DOCTYPE svg PUBLIC "-//W3C//DTD SVG 1.1//EN" "http://www.w3.org/Graphics/SVG/1.1/DTD/svg11.dtd"><svg version="1.1" xmlns="http://www.w3.org/2000/svg" width="160" height="160" viewBox="0 0 160 160"><g transform="scale(0.303,0.303)"><g transform="translate(0,0)"><g transform="translate(0,0)"><g transform="translate(0,0) scale(1,1)"><g transform="scale(2.9464285714285716,2.9464285714285716) translate(19.599999999999994,29.099999999999994)"><g transform="translate(0.000000,121.000000) scale(0.100000,-0.100000)" fill="#000000" stroke="none">
<path d="M892 1197 c-121 -67 -176 -122 -168 -168 3 -13 5 -29 5 -36 1 -7 15 -26 31 -43 33 -34 36 -56 15 -115 -8 -22 -15 -50 -15 -63 0 -25 -54 -54 -139 -73 -25 -6 -57 -16 -71 -24 -14 -7 -52 -21 -85 -30 -33 -10 -85 -25 -115 -35 -30 -10 -115 -33 -188 -51 -151 -37 -152 -37 -152 -135 0 -44 5 -60 26 -83 l26 -29 46 14 c26 8 88 26 137 39 87 22 147 42 212 71 17 8 37 14 45 14 7 0 48 11 91 25 119 38 116 39 113 -55 -3 -77 -15 -110 -41 -110 -6 0 -20 -9 -30 -20 -35 -38 -136 -93 -174 -94 -35 -1 -36 -3 -39 -41 -9 -104 23 -136 138 -141 36 -1 67 -4 70 -4 3 -1 21 -1 39 0 32 2 75 19 156 64 17 9 36 16 44 16 7 0 37 13 65 29 47 27 72 33 199 45 15 2 39 14 53 27 21 20 24 30 19 59 -10 59 -45 124 -82 153 -32 24 -45 27 -110 27 -41 0 -83 -5 -94 -10 -21 -12 -23 -6 -19 56 3 66 3 66 87 94 44 15 89 30 99 34 11 4 19 6 19 5 0 -1 32 14 70 34 127 64 215 144 215 195 0 9 -10 29 -23 45 -17 22 -32 28 -72 31 -27 2 -54 0 -60 -4 -16 -12 -65 -18 -71 -9 -7 11 -54 12 -54 1 0 -7 -74 -34 -157 -57 -27 -7 -27 -4 -9 61 8 27 17 69 19 94 3 25 8 66 12 92 6 36 4 53 -9 72 -23 36 -48 47 -74 33z"/>
</g>
</g></g></g></g></g></svg>