<?xml version="1.0" encoding="utf-8"?><!DOCTYPE svg PUBLIC "-//W3C//DTD SVG 1.1//EN" "http://www.w3.org/Graphics/SVG/1.1/DTD/svg11.dtd"><svg version="1.1" xmlns="http://www.w3.org/2000/svg" width="160" height="160" viewBox="0 0 160 160"><g transform="scale(0.303,0.303)"><g transform="translate(0,0)"><g transform="translate(0,0)"><g transform="translate(0,0) scale(1,1)"><g transform="scale(2.627388535031847,2.627388535031847) translate(30.480000000000004,21.980000000000004)"><g transform="translate(0.000000,157.000000) scale(0.100000,-0.100000)" fill="#000000" stroke="none">
<path d="M765 1526 c-106 -36 -230 -91 -239 -105 -3 -5 26 -41 65 -80 62 -63 70 -75 64 -100 -4 -21 -20 -35 -63 -58 -31 -17 -57 -36 -57 -41 0 -6 14 -25 31 -44 17 -18 29 -39 27 -45 -2 -6 6 -18 17 -26 32 -23 21 -48 -27 -65 -24 -7 -43 -18 -43 -23 0 -5 -7 -9 -15 -9 -8 0 -15 -4 -15 -9 0 -10 84 -87 101 -93 7 -2 14 -26 16 -54 4 -38 1 -54 -11 -67 -16 -16 -86 -40 -94 -32 -2 2 -8 55 -13 117 -11 133 -33 294 -55 396 -14 61 -14 78 -4 98 11 19 11 28 1 48 -15 26 -60 51 -71 39 -5 -4 -4 -51 1 -103 16 -182 21 -416 11 -534 -12 -138 -6 -166 47 -213 38 -35 43 -35 48 0 7 41 22 47 86 32 68 -16 70 -17 61 -39 -5 -14 -16 -16 -68 -10 l-61 7 20 -22 c11 -13 20 -40 22 -61 3 -45 39 -109 77 -134 15 -9 24 -21 21 -25 -2 -5 9 -14 25 -21 17 -7 30 -17 30 -22 0 -5 -10 -3 -22 3 -22 12 -22 11 -8 -6 8 -10 35 -37 59 -59 25 -23 55 -53 68 -67 22 -24 68 -50 134 -77 34 -13 99 0 116 24 7 10 19 33 25 51 7 18 16 33 20 33 4 0 8 5 8 11 0 7 26 50 58 98 59 89 91 147 92 169 0 6 5 12 10 12 6 0 10 6 10 13 0 18 87 194 100 202 6 3 8 11 5 16 -4 5 -2 9 4 9 15 0 -13 47 -42 70 -14 11 -30 20 -37 20 -6 0 -8 5 -4 12 4 6 3 8 -3 5 -5 -3 -33 2 -61 13 -43 16 -68 19 -159 15 -59 -3 -142 -11 -183 -19 -41 -7 -76 -13 -78 -11 -1 1 4 19 11 41 13 37 19 41 114 80 88 35 99 43 96 62 -1 12 1 22 6 22 17 0 3 41 -21 64 -13 13 -36 26 -52 30 -25 6 -26 9 -12 19 9 7 17 30 18 54 2 26 8 43 15 43 8 0 5 12 -8 35 -12 19 -28 35 -36 35 -8 0 -36 7 -64 16 -52 17 -63 38 -26 50 12 4 24 10 27 14 3 4 32 17 65 28 33 12 53 21 45 22 -20 0 -23 50 -3 50 12 0 13 3 4 14 -10 11 -8 17 6 25 12 7 13 10 4 11 -7 0 -11 6 -8 14 4 9 -2 17 -14 21 -10 4 -19 10 -19 15 0 8 -62 30 -85 30 -5 0 -55 -16 -110 -34z m399 -772 c38 -15 -2 -185 -72 -304 -21 -36 -41 -73 -45 -83 -3 -9 -11 -17 -17 -17 -5 0 -10 -6 -10 -13 0 -15 -31 -47 -42 -44 -3 1 -10 -2 -15 -7 -5 -6 -2 -6 7 -1 13 8 13 7 1 -8 -8 -10 -16 -15 -19 -12 -3 2 -10 -3 -17 -12 -11 -15 -21 -15 -106 -3 -52 7 -103 14 -114 15 -11 1 -24 3 -30 4 -5 0 5 15 23 32 17 16 32 34 32 40 0 5 -11 32 -25 59 -14 27 -25 57 -25 66 0 10 -8 26 -17 36 -16 18 -15 20 7 36 46 33 59 34 67 4 3 -15 19 -44 34 -65 60 -82 107 -96 161 -45 l28 26 -37 64 c-20 35 -49 76 -65 91 -15 16 -28 32 -28 36 0 12 122 63 210 87 98 27 93 26 114 18z"/>
<path d="M108 567 c-8 -17 -20 -45 -26 -62 -5 -16 -14 -39 -18 -50 -4 -11 -8 -22 -8 -25 -1 -3 -6 -12 -11 -20 -5 -8 -8 -23 -7 -33 2 -10 -3 -28 -11 -41 -12 -17 -13 -33 -6 -71 13 -68 24 -78 79 -71 25 4 57 8 71 10 14 1 31 6 38 11 11 6 50 80 58 110 1 6 7 28 13 50 6 22 12 45 13 50 1 6 6 16 10 22 12 19 -21 56 -83 96 -97 61 -96 61 -112 24z"/>
<path d="M335 443 c-22 -136 55 -272 133 -232 45 23 49 32 51 105 1 70 1 71 -36 101 -48 38 -96 63 -122 63 -15 0 -21 -9 -26 -37z"/>
</g>
</g></g></g></g></g></svg>