<?xml version="1.0" encoding="utf-8"?><!DOCTYPE svg PUBLIC "-//W3C//DTD SVG 1.1//EN" "http://www.w3.org/Graphics/SVG/1.1/DTD/svg11.dtd"><svg version="1.1" xmlns="http://www.w3.org/2000/svg" width="160" height="160" viewBox="0 0 160 160"><g transform="scale(0.303,0.303)"><g transform="translate(0,0)"><g transform="translate(0,0)"><g transform="translate(0,0) scale(1,1)"><g transform="scale(2.9464285714285716,2.9464285714285716) translate(19.599999999999994,27.599999999999994)"><g transform="translate(0.000000,124.000000) scale(0.100000,-0.100000)" fill="#000000" stroke="none">
<path d="M740 1231 c0 -6 -6 -11 -12 -11 -7 0 -38 -22 -68 -49 -30 -28 -79 -62 -108 -78 -30 -15 -59 -34 -65 -41 -15 -18 -14 -557 1 -575 7 -8 6 -16 -3 -24 -7 -6 -15 -10 -17 -8 -4 4 -145 -43 -253 -85 -44 -17 -91 -35 -105 -40 -14 -4 -45 -16 -69 -27 l-44 -19 37 -36 c48 -46 92 -66 115 -50 9 7 36 23 61 37 25 14 59 34 75 44 68 40 247 131 259 131 8 0 40 14 72 31 116 62 219 91 339 96 147 7 162 3 110 -26 l-40 -22 35 8 c19 4 96 8 170 8 l135 2 16 28 c10 15 15 34 12 43 -4 8 -35 28 -70 43 l-63 29 -153 -20 c-147 -20 -269 -47 -391 -90 -80 -27 -86 -26 -86 13 0 49 134 230 207 280 30 20 63 37 74 37 16 0 17 -3 7 -27 -7 -16 -20 -40 -30 -55 -10 -14 -18 -29 -18 -32 0 -3 -15 -28 -33 -54 -48 -69 -53 -77 -36 -66 24 15 82 33 91 28 4 -3 8 0 8 5 0 6 11 11 23 11 13 0 27 3 31 7 15 16 75 30 90 21 10 -6 16 -5 16 2 0 5 21 20 48 33 43 21 47 26 45 56 -2 43 -20 57 -136 101 -78 30 -140 24 -237 -23 -41 -21 -91 -50 -110 -67 -19 -16 -36 -28 -37 -26 -7 7 20 163 33 191 22 47 59 64 129 59 70 -5 115 10 115 38 0 10 7 21 15 24 11 5 13 10 5 19 -5 6 -8 14 -6 16 2 2 -24 27 -58 55 -58 49 -126 79 -126 55z"/>
<path d="M981 242 c18 -31 39 -70 47 -85 26 -51 87 -107 116 -107 18 0 25 -4 20 -12 -5 -7 -2 -8 7 -3 34 20 40 27 28 41 -9 11 -8 14 2 14 10 0 15 18 17 65 l2 64 -41 21 c-36 19 -140 47 -207 55 -23 3 -23 3 9 -53z"/>
<path d="M660 265 c-16 -19 -81 -54 -123 -66 -25 -7 -30 -4 -49 27 -19 32 -22 34 -38 19 -9 -8 -22 -33 -29 -55 -7 -23 -16 -38 -21 -35 -11 7 -7 -15 8 -43 7 -12 10 -22 6 -22 -5 0 23 -42 53 -79 2 -3 18 -6 36 -7 36 -3 67 19 67 48 0 10 4 18 8 18 5 0 9 7 10 15 1 8 3 22 4 30 1 8 5 15 10 15 5 0 8 6 6 13 -1 6 7 28 17 47 11 19 19 38 20 42 0 4 9 14 20 22 11 8 17 17 14 20 -3 4 -12 -1 -19 -9z"/>
</g>
</g></g></g></g></g></svg>