<?xml version="1.0" encoding="utf-8"?><!DOCTYPE svg PUBLIC "-//W3C//DTD SVG 1.1//EN" "http://www.w3.org/Graphics/SVG/1.1/DTD/svg11.dtd"><svg version="1.1" xmlns="http://www.w3.org/2000/svg" width="160" height="160" viewBox="0 0 160 160"><g transform="scale(0.303,0.303)"><g transform="translate(0,0)"><g transform="translate(0,0)">
<g transform="translate(0,0) scale(1,1)">

<path fill="#CC3300" d=" M 222.26 73.71 C 225.98 72.25 229.89 71.06 233.95 71.27 C 241.92 72.53 249.57 76.49 257.79 75.87 C 259.62 75.83 261.62 75.60 263.21 76.71 C 267.97 79.91 273.46 82.34 277.52 86.47 C 279.83 90.75 279.75 95.94 280.51 100.66 C 280.20 104.95 282.24 109.93 279.94 113.91 C 278.20 116.78 274.82 118.85 271.40 118.42 C 262.97 117.43 254.04 114.69 245.72 117.64 C 240.91 119.26 235.82 117.95 230.92 117.48 C 233.65 112.65 236.74 107.98 238.74 102.78 C 239.54 100.44 237.47 98.55 236.28 96.80 C 230.52 89.83 225.92 81.96 222.26 73.71 Z"/>
<path fill="#CC3300" d=" M 318.30 109.47 C 320.67 108.72 323.08 109.93 325.32 110.49 C 333.50 112.87 341.41 116.01 349.29 119.21 C 348.31 123.63 347.80 128.41 345.15 132.21 C 342.10 135.37 336.53 133.96 334.03 138.07 C 330.01 142.53 325.19 148.44 327.15 154.87 C 329.78 166.68 328.85 179.02 332.28 190.66 C 344.02 192.37 357.00 189.51 367.93 195.11 C 375.72 198.20 376.76 206.77 380.38 213.23 C 373.96 218.28 366.75 222.41 358.94 224.88 C 350.58 227.13 341.74 226.09 333.30 227.61 C 324.83 233.12 315.77 238.54 308.96 246.12 C 309.51 248.16 310.68 249.94 311.77 251.72 C 309.09 255.86 307.81 260.56 309.45 265.28 C 321.95 263.13 334.34 260.12 347.04 259.30 C 361.81 258.25 376.59 257.31 391.37 256.49 C 401.94 256.74 413.22 258.41 421.60 265.44 C 425.14 268.53 428.94 272.16 429.95 276.94 C 428.51 280.66 425.35 283.98 421.56 285.32 C 411.97 285.78 402.51 283.78 393.00 283.00 C 370.67 280.54 348.38 284.43 326.29 287.26 C 323.13 287.98 318.99 287.93 316.90 290.91 C 310.92 298.90 311.13 309.33 308.97 318.66 C 306.09 330.51 306.48 342.75 306.48 354.84 C 303.39 378.02 307.83 401.36 305.40 424.58 C 304.82 428.54 302.32 431.80 300.31 435.15 C 298.04 438.87 298.74 444.04 295.00 446.95 C 292.35 449.65 290.40 453.03 287.52 455.51 C 282.58 457.67 276.97 457.55 271.71 458.41 C 270.37 454.75 268.73 451.05 268.49 447.13 C 270.95 422.77 266.21 398.43 266.92 374.02 C 267.97 362.65 264.46 351.64 264.45 340.34 C 265.13 327.85 266.07 315.35 266.06 302.83 C 257.26 304.71 248.07 305.22 239.68 308.65 C 216.01 318.34 192.35 328.03 168.61 337.54 C 160.65 340.88 151.70 342.32 144.71 347.61 C 141.15 352.07 138.30 357.26 133.10 360.13 C 127.16 366.66 118.48 361.68 111.92 359.11 C 105.97 357.17 104.39 350.47 103.90 345.00 C 103.93 340.08 101.26 336.05 98.62 332.20 C 104.99 327.62 111.52 323.27 118.04 318.93 C 123.27 320.13 128.69 322.69 134.00 320.10 C 151.31 314.67 168.12 307.57 184.44 299.65 C 201.08 293.58 218.54 290.31 235.87 286.90 C 247.65 284.72 258.55 279.34 268.74 273.23 C 268.24 266.75 267.49 260.29 265.37 254.12 C 261.33 253.91 256.27 256.40 252.84 253.06 C 257.34 249.85 263.38 248.37 266.71 243.73 C 266.57 238.99 264.08 234.77 262.67 230.34 C 260.60 224.98 260.54 219.15 260.27 213.48 C 250.83 227.53 244.35 244.01 231.28 255.28 C 226.07 260.15 220.32 264.35 214.73 268.76 C 209.48 272.94 202.39 272.80 196.21 274.57 C 189.79 276.01 183.64 280.32 176.88 278.84 C 172.88 275.16 168.75 270.59 168.30 264.89 C 168.26 260.76 170.63 257.10 172.65 253.67 C 177.68 246.36 183.57 239.69 189.26 232.89 C 182.62 229.00 175.84 225.09 170.37 219.61 C 164.90 213.35 161.79 205.54 158.09 198.21 C 170.51 191.23 184.70 188.23 197.01 181.03 C 220.36 167.35 243.50 153.24 265.57 137.55 C 273.36 132.02 280.46 125.43 289.04 121.09 C 298.35 116.20 308.24 112.47 318.30 109.47 M 292.74 177.99 C 287.84 182.68 282.80 187.23 277.88 191.90 C 271.31 198.13 267.77 206.60 262.99 214.12 C 272.54 215.20 281.57 218.53 290.73 221.22 C 298.01 223.01 304.92 219.37 311.40 216.57 C 308.11 211.26 303.93 206.53 300.88 201.07 C 296.59 194.05 294.43 185.98 292.74 177.99 Z"/>
</g>
</g></g></g></svg>