<?xml version="1.0" encoding="UTF-8" standalone="no"?>
<svg
   version="1.1"
   width="160"
   height="160"
   viewBox="0 0 160 160"
   id="svg8"
   sodipodi:docname="stone.svg"
   inkscape:version="1.3 (0e150ed6c4, 2023-07-21)"
   xmlns:inkscape="http://www.inkscape.org/namespaces/inkscape"
   xmlns:sodipodi="http://sodipodi.sourceforge.net/DTD/sodipodi-0.dtd"
   xmlns="http://www.w3.org/2000/svg"
   xmlns:svg="http://www.w3.org/2000/svg">
  <defs
     id="defs8" />
  <sodipodi:namedview
     id="namedview8"
     pagecolor="#ffffff"
     bordercolor="#000000"
     borderopacity="0.25"
     inkscape:showpageshadow="2"
     inkscape:pageopacity="0.0"
     inkscape:pagecheckerboard="0"
     inkscape:deskcolor="#d1d1d1"
     inkscape:zoom="4.64375"
     inkscape:cx="79.892328"
     inkscape:cy="80"
     inkscape:window-width="1920"
     inkscape:window-height="974"
     inkscape:window-x="-11"
     inkscape:window-y="-11"
     inkscape:window-maximized="1"
     inkscape:current-layer="svg8" />
  <g
     transform="scale(0.303,0.303)"
     id="g8"
     style="fill:#000000;fill-opacity:1">
    <g
       transform="translate(0,0)"
       id="g7"
       style="fill:#000000;fill-opacity:1">
      <g
         transform="translate(0,0)"
         id="g6"
         style="fill:#000000;fill-opacity:1">
        <g
           transform="translate(0,0) scale(1,1)"
           id="g5"
           style="fill:#000000;fill-opacity:1">
          <g
             transform="scale(2.9464285714285716,2.9464285714285716) translate(19.599999999999994,25.099999999999994)"
             id="g4"
             style="fill:#000000;fill-opacity:1">
            <g
               transform="translate(0.000000,129.000000) scale(0.100000,-0.100000)"
               fill="#000000"
               stroke="none"
               id="g3"
               style="fill:#000000;fill-opacity:1">
              <path
                 d="M1038 1271 c-13 -11 -46 -22 -73 -26 -87 -11 -159 -27 -190 -40 -39 -17 -58 -23 -68 -21 -4 0 -11 -4 -15 -9 -4 -6 -28 -22 -54 -35 -27 -14 -48 -28 -48 -32 0 -20 -41 -6 -52 17 -14 32 -19 31 -40 -5 -9 -17 -24 -30 -31 -30 -21 0 -27 -23 -20 -79 6 -56 51 -121 83 -121 20 0 120 58 120 70 0 4 10 11 23 14 12 3 39 22 61 41 21 19 42 35 46 35 5 0 15 6 22 13 8 6 23 17 33 24 11 6 19 16 18 21 -1 5 7 8 17 5 12 -3 20 0 20 6 0 7 4 10 9 7 5 -4 11 0 14 6 2 7 7 11 9 8 3 -3 -16 -39 -43 -80 -342 -530 -377 -578 -559 -762 -97 -98 -140 -134 -184 -154 -31 -14 -63 -23 -71 -20 -8 3 -15 1 -15 -4 0 -6 -9 -10 -20 -10 -26 0 -26 -22 1 -38 11 -7 18 -19 15 -27 -6 -17 1 -22 35 -29 13 -2 37 -7 52 -11 16 -4 48 -2 74 5 92 26 298 252 394 434 23 45 67 122 97 171 30 50 68 115 85 146 33 62 129 200 192 274 44 52 125 115 147 115 17 0 68 44 68 59 0 16 -42 51 -79 67 -43 18 -44 18 -73 -5z"
                 id="path1"
                 style="fill:#000000;fill-opacity:1" />
              <path
                 d="M1175 675 c-22 -13 -52 -24 -67 -25 -40 0 -174 -46 -247 -84 l-63 -33 38 -32 c22 -17 49 -34 61 -37 30 -8 84 11 141 50 26 18 58 38 70 45 24 13 24 12 -4 -36 -15 -26 -33 -55 -41 -64 -7 -8 -13 -20 -13 -26 0 -5 -9 -18 -20 -28 -11 -10 -17 -22 -14 -27 3 -5 -1 -17 -9 -26 -7 -9 -16 -24 -20 -33 -8 -24 -68 -50 -85 -37 -18 15 -36 -5 -38 -42 -1 -20 7 -37 27 -56 27 -26 38 -29 142 -36 61 -4 136 -10 165 -13 36 -4 52 -2 52 6 0 7 9 9 26 5 17 -5 23 -3 19 4 -3 5 1 10 10 10 9 0 13 4 10 10 -11 18 -14 50 -4 50 5 0 -5 18 -22 40 -21 26 -47 44 -71 52 -21 6 -38 14 -38 17 1 3 23 24 50 46 27 22 48 44 47 50 -1 5 4 9 11 8 6 -2 12 5 12 14 0 9 3 14 6 10 17 -17 75 67 88 129 6 27 3 35 -25 58 -17 15 -45 30 -61 33 -15 3 -31 10 -34 14 -10 16 -58 8 -99 -16z"
                 id="path2"
                 style="fill:#000000;fill-opacity:1" />
              <path
                 d="M685 450 c-4 -36 -14 -77 -21 -92 -21 -42 -18 -151 6 -198 13 -26 27 -40 39 -40 11 0 33 -11 49 -25 17 -14 37 -23 45 -19 15 5 33 65 28 93 -1 8 2 10 11 5 7 -4 6 1 -3 12 -16 18 -45 98 -52 139 -1 11 -15 40 -29 65 -14 25 -35 63 -46 85 l-20 39 -7 -64z"
                 id="path3"
                 style="fill:#000000;fill-opacity:1" />
            </g>
          </g>
        </g>
      </g>
    </g>
  </g>
</svg>
