<?xml version="1.0" encoding="utf-8"?><!DOCTYPE svg PUBLIC "-//W3C//DTD SVG 1.1//EN" "http://www.w3.org/Graphics/SVG/1.1/DTD/svg11.dtd"><svg version="1.1" xmlns="http://www.w3.org/2000/svg" width="160" height="160" viewBox="0 0 160 160"><g transform="scale(0.303,0.303)"><g transform="translate(0,0)"><g transform="translate(0,0)">
<g transform="translate(0,0) scale(1,1)">

<path fill="#CC3300" d=" M 303.19 73.88 C 305.70 69.68 311.76 70.19 315.91 71.03 C 334.42 76.99 346.70 96.74 344.48 115.91 C 355.02 111.71 365.04 106.39 375.08 101.15 C 381.58 97.42 390.00 101.56 393.09 107.86 C 397.18 115.84 400.95 125.33 398.36 134.36 C 395.67 142.79 385.12 143.09 382.07 151.01 C 377.32 159.66 372.80 168.66 365.59 175.60 C 360.97 179.71 360.40 186.56 355.68 190.67 C 347.79 198.82 339.98 207.06 332.06 215.19 C 332.76 216.51 333.45 217.82 334.15 219.15 C 341.64 217.93 349.58 213.06 356.98 217.01 C 370.66 223.25 381.67 234.16 390.38 246.23 C 401.85 246.15 412.85 242.82 423.78 239.79 C 428.61 237.47 433.48 240.62 438.05 241.85 C 447.59 245.50 460.54 248.90 462.88 260.55 C 452.47 266.26 439.90 270.38 428.13 266.59 C 416.33 262.73 403.73 261.66 391.39 262.45 C 388.48 262.87 386.09 264.86 384.54 267.29 C 383.63 276.74 384.27 286.30 382.70 295.70 C 381.24 303.41 382.43 311.26 381.52 319.02 C 380.46 335.67 381.05 352.37 382.02 369.01 C 383.26 387.36 379.85 405.64 375.35 423.36 C 373.90 428.78 370.25 433.49 365.66 436.66 C 355.73 443.68 346.86 452.35 335.94 457.88 C 333.88 459.19 331.04 459.52 328.99 458.03 C 319.40 452.93 324.46 440.17 321.00 431.81 C 313.15 420.15 301.49 411.60 288.75 405.94 C 301.31 405.37 313.69 407.24 326.09 408.86 C 331.46 409.80 336.70 404.42 335.88 399.03 C 337.46 382.03 340.63 365.13 340.04 347.99 C 340.13 335.12 335.89 322.45 337.42 309.54 C 337.83 303.28 339.95 296.92 338.46 290.66 C 337.03 284.20 336.54 277.61 336.42 271.01 C 324.33 271.58 312.78 275.59 301.00 278.00 C 283.92 282.21 266.50 285.17 249.63 290.19 C 261.83 302.65 275.77 313.60 286.40 327.49 C 295.60 339.32 286.26 357.96 273.01 361.84 C 263.30 359.65 254.50 353.50 247.52 346.59 C 243.70 335.10 242.54 322.86 238.31 311.48 C 236.23 307.14 233.66 303.07 231.03 299.06 C 220.45 303.66 208.80 306.32 197.25 304.62 C 189.29 300.55 182.27 294.96 174.93 289.91 C 171.61 310.97 174.83 332.15 178.24 352.95 C 180.96 368.27 180.26 384.05 177.01 399.21 C 174.81 403.53 172.02 407.53 169.12 411.41 C 164.15 409.88 159.04 408.35 154.84 405.18 C 145.78 395.89 144.73 382.17 144.51 369.88 C 145.90 361.76 150.36 354.35 150.76 346.01 C 151.65 333.00 149.92 320.01 149.99 307.00 C 149.72 291.91 151.37 276.85 150.55 261.77 C 136.57 266.49 129.77 280.61 122.10 292.07 C 117.37 301.24 115.72 311.65 112.47 321.38 C 109.36 336.25 106.37 351.51 97.97 364.48 C 88.19 362.75 77.71 357.05 75.52 346.61 C 72.96 329.73 69.15 313.11 65.39 296.48 C 74.24 292.14 84.80 299.40 92.91 292.89 C 107.04 282.87 117.33 268.64 129.93 256.92 C 136.78 249.79 144.36 243.06 149.13 234.25 C 151.81 225.38 150.62 215.97 148.93 207.03 C 137.66 212.19 125.06 212.50 112.97 214.11 C 106.49 215.05 102.35 220.94 98.33 225.52 C 97.58 226.92 95.90 226.30 94.65 226.27 C 95.81 219.50 101.98 214.51 101.71 207.40 C 99.15 203.65 95.25 201.08 92.14 197.82 C 86.06 192.44 82.31 185.13 78.56 178.06 C 90.02 177.14 101.51 176.68 112.99 176.11 C 122.36 175.74 132.87 175.45 140.89 181.17 C 144.92 183.37 148.03 186.76 151.56 189.60 C 151.76 186.41 152.10 183.23 152.06 180.03 C 150.10 161.92 155.23 143.66 152.24 125.62 C 153.21 114.86 150.44 103.61 154.23 93.26 C 156.59 86.71 165.15 86.56 170.76 88.33 C 183.04 92.62 193.50 101.47 200.82 112.13 C 205.50 118.49 207.25 126.96 205.61 134.65 C 201.82 140.72 195.43 144.96 192.94 151.96 C 184.39 166.66 185.31 184.12 181.15 200.13 C 180.25 204.64 178.57 209.09 178.59 213.73 C 179.51 217.83 184.36 218.65 187.59 220.28 C 182.45 224.58 180.07 231.10 178.72 237.47 C 175.68 253.37 175.28 269.65 175.20 285.80 C 194.07 281.27 212.83 276.29 231.72 271.85 C 244.81 270.57 252.50 258.65 261.39 250.42 C 268.43 241.19 274.60 231.26 282.92 223.06 C 288.35 215.32 294.79 207.95 297.67 198.76 C 288.46 193.38 277.94 188.72 272.16 179.26 C 265.58 182.04 258.88 184.55 252.31 187.35 C 244.13 191.04 240.49 199.99 233.58 205.17 C 228.85 206.09 223.96 206.01 219.21 206.81 C 218.35 205.86 217.50 204.90 216.65 203.95 C 229.35 187.58 241.46 170.73 255.18 155.19 C 262.86 146.61 267.71 135.95 275.52 127.48 C 289.23 112.46 298.11 93.43 303.19 73.88 M 314.19 144.32 C 308.29 147.61 303.09 152.06 296.94 154.95 C 293.97 156.31 291.74 158.73 290.03 161.46 C 299.30 166.76 308.76 171.79 317.32 178.24 C 330.57 162.89 343.16 146.91 354.41 130.03 C 340.51 133.27 327.18 138.47 314.19 144.32 M 283.80 261.86 C 299.61 261.07 315.38 259.38 330.76 255.48 C 332.61 244.03 331.88 232.37 331.98 220.82 C 316.62 235.31 299.90 248.23 283.80 261.86 Z"/>
<path fill="#CC3300" d=" M 188.53 209.09 C 190.24 209.51 191.95 209.95 193.67 210.39 C 192.14 212.34 190.49 214.18 188.75 215.94 C 188.69 214.22 188.58 210.80 188.53 209.09 Z"/>
</g>
</g></g></g></svg>