<?xml version="1.0" encoding="utf-8"?><!DOCTYPE svg PUBLIC "-//W3C//DTD SVG 1.1//EN" "http://www.w3.org/Graphics/SVG/1.1/DTD/svg11.dtd"><svg version="1.1" xmlns="http://www.w3.org/2000/svg" width="160" height="160" viewBox="0 0 160 160"><g transform="scale(0.303,0.303)"><g transform="translate(0,0)"><g transform="translate(0,0)">
<g transform="translate(0,0) scale(1,1)">

<path fill="#CC3300" d=" M 370.03 77.08 C 380.73 79.04 388.57 67.88 399.09 69.85 C 417.31 77.60 427.07 96.51 433.18 114.26 C 429.36 117.99 426.05 122.37 421.62 125.39 C 409.30 122.82 396.69 120.93 384.02 122.09 C 371.76 122.13 360.24 126.53 348.62 129.83 C 358.19 117.71 368.37 106.10 378.19 94.19 C 380.00 91.97 381.43 89.49 382.79 86.97 C 360.33 82.11 337.49 87.51 314.96 88.74 C 279.34 90.63 244.39 98.21 209.59 105.59 C 205.06 106.08 200.12 108.64 195.71 106.32 C 186.64 101.39 178.99 94.32 170.84 88.05 C 186.72 83.30 203.19 79.87 219.85 80.38 C 228.40 81.07 237.15 82.61 245.65 80.56 C 252.84 78.89 260.08 77.01 267.56 77.57 C 301.72 78.93 335.86 76.24 370.03 77.08 Z"/>
<path fill="#CC3300" d=" M 133.39 76.68 C 142.18 78.84 150.58 83.72 155.30 91.68 C 160.02 98.79 165.99 105.01 170.58 112.18 C 170.38 120.67 168.37 129.09 166.16 137.28 C 160.25 154.31 153.81 171.25 144.95 187.00 C 140.52 195.51 130.77 198.71 122.70 202.67 C 110.84 192.95 106.81 176.72 107.06 162.03 C 106.81 156.08 111.47 151.94 113.82 146.91 C 117.01 140.24 120.07 133.36 121.09 125.97 C 123.29 115.06 128.11 104.92 131.46 94.36 C 133.07 89.42 131.47 84.27 131.08 79.28 C 131.85 78.41 132.62 77.55 133.39 76.68 Z"/>
<path fill="#CC3300" d=" M 240.39 100.40 C 255.04 102.52 266.83 112.39 278.11 121.20 C 277.86 131.47 278.43 142.68 272.66 151.72 C 269.76 156.09 269.15 161.33 267.99 166.31 C 274.89 167.62 282.04 168.35 289.00 167.09 C 300.35 165.20 312.01 164.67 323.01 161.03 C 333.84 157.50 345.96 155.10 357.06 158.89 C 363.34 161.56 367.26 167.83 370.96 173.23 C 371.23 177.22 367.38 179.91 364.04 181.06 C 351.54 185.90 337.94 182.60 324.99 183.05 C 315.56 182.73 306.31 184.86 297.01 186.02 C 284.44 187.71 271.75 189.69 259.78 193.92 C 253.64 198.75 250.12 206.25 244.97 212.04 C 240.84 216.53 239.49 222.60 236.90 227.96 C 231.84 240.10 221.96 249.88 219.14 263.02 C 230.70 261.57 242.13 259.18 253.71 257.79 C 257.00 257.00 261.07 257.26 263.75 254.77 C 265.42 248.44 263.79 241.73 265.32 235.36 C 267.52 225.75 267.54 215.88 268.36 206.11 C 269.38 201.44 271.56 196.12 276.33 194.27 C 281.13 192.30 286.81 194.15 290.66 197.36 C 296.20 202.11 301.34 207.51 305.20 213.73 C 310.46 224.48 309.44 237.02 313.69 248.13 C 329.04 245.93 346.02 243.33 359.83 251.98 C 358.90 256.52 358.73 263.47 353.35 265.28 C 344.94 266.37 336.41 265.76 327.96 266.01 C 320.02 264.00 315.47 271.53 310.34 275.94 C 312.17 288.19 311.74 300.61 312.51 312.95 C 312.61 316.06 314.18 320.66 318.92 317.81 C 331.23 316.84 344.50 318.91 355.95 313.40 C 365.78 310.95 376.05 313.17 385.98 311.76 C 400.35 306.72 415.99 302.98 431.15 306.78 C 440.48 309.38 447.59 316.33 454.07 323.17 C 450.97 328.14 449.13 334.66 443.65 337.61 C 430.47 342.75 416.72 337.71 403.33 336.71 C 384.92 335.49 366.45 336.17 348.03 335.33 C 337.26 336.06 326.48 337.15 315.84 338.90 C 313.11 339.32 312.22 342.32 311.76 344.64 C 308.50 367.70 307.15 390.99 304.06 414.08 C 303.37 420.01 299.24 424.77 297.84 430.51 C 295.80 442.86 288.72 454.31 278.23 461.23 C 274.11 452.09 268.05 443.80 264.92 434.26 C 261.91 404.86 266.83 374.80 260.47 345.70 C 240.61 348.21 220.81 351.12 201.00 353.99 C 189.46 355.51 178.64 360.05 167.64 363.62 C 156.79 367.13 146.60 372.81 135.16 374.32 C 127.26 375.53 119.39 377.95 111.35 377.55 C 101.42 374.21 93.41 366.98 84.93 361.09 C 81.41 357.98 76.47 355.83 74.66 351.20 C 76.55 349.52 78.65 348.17 80.94 347.16 C 100.97 341.99 121.45 339.02 141.87 335.88 C 155.88 334.39 170.03 335.54 184.04 334.04 C 200.66 332.25 217.27 330.22 233.62 326.68 C 243.07 324.46 253.33 324.84 262.07 320.18 C 261.91 306.96 262.35 293.73 261.45 280.54 C 249.99 283.01 238.68 286.27 227.86 290.80 C 218.36 294.72 207.33 297.58 201.46 306.78 C 196.02 305.08 190.53 303.22 185.62 300.30 C 179.78 293.19 172.80 285.85 171.58 276.33 C 171.47 270.72 176.90 267.63 180.65 264.52 C 187.01 259.73 189.98 252.07 193.11 245.04 C 198.76 231.64 205.94 218.73 208.47 204.25 C 203.61 205.18 198.52 207.41 193.65 205.38 C 182.28 200.50 171.57 193.74 163.08 184.63 C 169.05 180.84 175.62 177.83 182.84 177.75 C 195.71 177.01 208.43 174.94 221.14 172.88 C 233.87 150.69 235.15 124.83 240.39 100.40 Z"/>
</g>
</g></g></g></svg>