<?xml version="1.0" encoding="utf-8"?><!DOCTYPE svg PUBLIC "-//W3C//DTD SVG 1.1//EN" "http://www.w3.org/Graphics/SVG/1.1/DTD/svg11.dtd"><svg version="1.1" xmlns="http://www.w3.org/2000/svg" width="160" height="160" viewBox="0 0 160 160"><g transform="scale(0.303,0.303)"><g transform="translate(0,0)"><g transform="translate(0,0)"><g transform="translate(0,0) scale(1,1)"><g transform="scale(2.9464285714285716,2.9464285714285716) translate(19.599999999999994,40.599999999999994)"><g transform="translate(0.000000,98.000000) scale(0.100000,-0.100000)" fill="#CC3300" stroke="none">
<path d="M678 968 c12 -6 22 -19 22 -28 0 -36 -48 -148 -98 -228 -29 -46 -52 -88 -52 -93 0 -5 -5 -9 -11 -9 -5 0 -8 -4 -4 -9 3 -5 -3 -16 -12 -23 -18 -13 -31 -43 -16 -36 113 53 246 206 307 352 22 52 21 55 -19 72 -42 17 -154 19 -117 2z"/>
<path d="M934 836 c-17 -8 -59 -34 -94 -60 -34 -25 -71 -46 -81 -46 -33 0 -21 -14 32 -38 86 -38 92 -37 166 4 38 20 80 47 95 59 25 21 25 24 12 44 -8 11 -22 21 -30 21 -8 0 -17 7 -20 15 -7 18 -39 19 -80 1z"/>
<path d="M345 753 c-11 -2 -34 -11 -52 -19 -17 -8 -37 -14 -44 -14 -7 0 -34 -18 -59 -39 -39 -33 -49 -38 -61 -27 -17 17 -115 30 -123 17 -4 -5 9 -22 27 -38 18 -15 39 -41 45 -58 17 -43 29 -146 21 -176 -7 -26 17 -82 36 -86 6 -1 18 -5 28 -8 15 -6 17 -1 17 38 l0 44 58 17 c32 9 80 16 106 16 29 0 53 6 62 15 9 8 11 15 5 15 -6 0 -11 5 -11 12 0 6 -8 20 -17 30 -15 17 -15 21 -1 51 8 17 16 37 17 42 2 6 8 16 14 24 7 8 17 32 22 55 10 37 8 44 -10 63 -23 23 -50 33 -80 26z m-27 -138 c-7 -54 -48 -119 -91 -140 -16 -8 -33 -15 -38 -15 -4 0 -5 34 -3 76 3 65 6 79 25 92 19 13 59 25 103 31 5 0 6 -19 4 -44z"/>
<path d="M795 562 c-27 -16 -81 -48 -120 -72 -53 -33 -81 -44 -112 -44 -36 -1 -43 -4 -43 -21 1 -21 32 -49 74 -64 30 -12 74 17 161 108 33 33 63 61 67 61 5 0 -6 -24 -23 -52 -62 -106 -149 -311 -149 -352 0 -39 19 -71 53 -91 69 -41 380 -30 550 20 136 39 166 83 136 201 -7 27 -15 41 -19 34 -4 -7 -19 21 -35 67 -16 43 -32 82 -37 88 -4 5 -8 -22 -9 -60 -1 -110 -18 -165 -56 -188 -66 -38 -316 -87 -447 -87 -84 0 -96 42 -43 149 30 59 136 189 175 213 19 13 27 27 28 48 1 26 -5 34 -37 51 -49 25 -54 24 -114 -9z"/>
</g>
</g></g></g></g></g></svg>