<?xml version="1.0" encoding="UTF-8" standalone="no"?>
<svg
   version="1.1"
   width="160"
   height="160"
   viewBox="0 0 160 160"
   id="svg9"
   sodipodi:docname="1_3_åƒ.svg"
   inkscape:version="1.3 (0e150ed6c4, 2023-07-21)"
   xmlns:inkscape="http://www.inkscape.org/namespaces/inkscape"
   xmlns:sodipodi="http://sodipodi.sourceforge.net/DTD/sodipodi-0.dtd"
   xmlns:xlink="http://www.w3.org/1999/xlink"
   xmlns="http://www.w3.org/2000/svg"
   xmlns:svg="http://www.w3.org/2000/svg">
  <defs
     id="defs9">
    <linearGradient
       id="linearGradient32"
       inkscape:collect="always">
      <stop
         style="stop-color:#fee95c;stop-opacity:1;"
         offset="0"
         id="stop32" />
      <stop
         style="stop-color:#ffffb9;stop-opacity:1;"
         offset="0.50165015"
         id="stop34" />
      <stop
         style="stop-color:#fee95c;stop-opacity:1;"
         offset="1"
         id="stop33" />
    </linearGradient>
    <linearGradient
       id="linearGradient23"
       inkscape:collect="always">
      <stop
         style="stop-color:#3a0982;stop-opacity:0.24934383;"
         offset="0"
         id="stop24" />
      <stop
         style="stop-color:#3a0982;stop-opacity:0.80000001;"
         offset="1"
         id="stop23" />
    </linearGradient>
    <radialGradient
       inkscape:collect="always"
       xlink:href="#linearGradient23"
       id="radialGradient24"
       cx="50.502476"
       cy="44.63026"
       fx="50.502476"
       fy="44.63026"
       r="81.784569"
       gradientTransform="matrix(1,0,0,0.949918,0,2.2351728)"
       gradientUnits="userSpaceOnUse" />
    <linearGradient
       inkscape:collect="always"
       xlink:href="#linearGradient32"
       id="linearGradient33"
       x1="59.303726"
       y1="262.57291"
       x2="470.13754"
       y2="262.57291"
       gradientUnits="userSpaceOnUse"
       spreadMethod="repeat" />
  </defs>
  <sodipodi:namedview
     id="namedview9"
     pagecolor="#ffffff"
     bordercolor="#000000"
     borderopacity="0.25"
     inkscape:showpageshadow="2"
     inkscape:pageopacity="0.0"
     inkscape:pagecheckerboard="0"
     inkscape:deskcolor="#d1d1d1"
     inkscape:zoom="2.321875"
     inkscape:cx="86.567968"
     inkscape:cy="19.596231"
     inkscape:window-width="1920"
     inkscape:window-height="974"
     inkscape:window-x="-11"
     inkscape:window-y="-11"
     inkscape:window-maximized="1"
     inkscape:current-layer="svg9" />
  <path
     sodipodi:type="star"
     style="fill:url(#radialGradient24);fill-opacity:0.75711203;stroke:#3a0982;stroke-width:5.99967353;stroke-linecap:square;stroke-dasharray:none;stroke-dashoffset:0;stroke-opacity:1;paint-order:stroke fill markers"
     id="path19"
     inkscape:flatsided="false"
     sodipodi:sides="12"
     sodipodi:cx="49.528938"
     sodipodi:cy="48.452221"
     sodipodi:r1="63.853825"
     sodipodi:r2="76.016457"
     sodipodi:arg1="-0.15071093"
     sodipodi:arg2="0.11108846"
     inkscape:rounded="0.54"
     inkscape:randomized="0.083"
     d="m 107.67479,39.564498 c 1.91048,11.548955 22.42545,7.712292 21.59279,19.374985 -0.83267,11.662693 -9.46916,7.059746 -14.79976,17.904929 -5.3306,10.845184 6.13007,1.322155 0.25865,11.308906 -5.87141,9.986751 -14.3819,-2.65995 -24.217142,4.434499 -9.835241,7.09445 -3.311163,16.688163 -14.007878,22.223103 -10.696716,5.53493 -8.175878,-1.14698 -20.452155,-0.66792 -12.276276,0.47906 -2.528265,5.07853 -14.393131,5.17468 -11.864865,0.0961 -6.120262,-5.09588 -17.990229,-8.04987 -11.869967,-2.954 -11.439408,6.81136 -20.4315321,-1.37964 C -5.7577208,101.69716 9.8774352,91.35507 1.7486647,82.81533 -6.3801059,74.275591 -21.387693,93.36769 -25.301069,82.594239 -29.214445,71.820788 -5.3811876,63.764362 -8.5587124,52.112879 -11.736237,40.461396 -28.160604,45.763469 -28.281568,33.907318 -28.402533,22.051167 -10.643809,40.028635 -7.1206497,28.641338 -3.5974906,17.25404 -21.182331,6.4455054 -13.060199,-2.100908 c 8.1221326,-8.546413 11.1534241,4.5417052 20.3019702,-2.2435468 9.1485458,-6.7852522 0.586354,-5.5634888 10.7772158,-11.2009512 10.190861,-5.637463 11.653167,-2.429505 23.00255,-3.559843 11.349382,-1.130337 3.317443,-13.264979 15.073601,-10.571858 11.756157,2.693121 5.885542,10.504233 17.322746,14.537162 11.437204,4.032929 10.565782,-5.790256 20.431532,1.379643 9.865754,7.1698997 -0.142545,7.2177358 6.068193,16.9973817 6.210741,9.7796463 8.724881,10.0823733 13.763721,20.7243243 5.03884,10.641951 -7.91702,4.054138 -6.00654,15.603094 z"
     inkscape:transform-center-x="0.42988143"
     inkscape:transform-center-y="0.72426465"
     transform="matrix(-0.62290811,0.41116852,-0.41116852,-0.62290811,130.25695,90.900308)" />
  <g
     transform="scale(0.303,0.303)"
     id="g9"
     style="stroke:none;stroke-opacity:1;stroke-width:1.99009901;stroke-dasharray:none;fill:url(#linearGradient33);fill-opacity:1">
    <g
       transform="translate(0,0)"
       id="g8"
       style="stroke:none;stroke-opacity:1;fill:url(#linearGradient33);fill-opacity:1;stroke-width:1.99009901;stroke-dasharray:none">
      <g
         transform="translate(0,0)"
         id="g7"
         style="stroke:none;stroke-opacity:1;fill:url(#linearGradient33);fill-opacity:1;stroke-width:1.99009901;stroke-dasharray:none">
        <g
           id="g6"
           style="mix-blend-mode:normal;fill:url(#linearGradient33);fill-opacity:1;stroke:none;stroke-width:1.9901;stroke-dasharray:none;stroke-opacity:1">
          <g
             transform="matrix(2.9464286,0,0,2.9464286,57.75,119.625)"
             id="g5"
             style="fill:url(#linearGradient33);fill-opacity:1;stroke:none;stroke-width:0.675428;stroke-dasharray:none;stroke-opacity:1">
            <g
               transform="matrix(0.1,0,0,-0.1,0,98)"
               fill="#CC3300"
               stroke="none"
               id="g4"
               style="fill:url(#linearGradient33);fill-opacity:1;stroke:none;stroke-width:6.75428;stroke-dasharray:none;stroke-opacity:1">
              <path
                 d="m 678,968 c 12,-6 22,-19 22,-28 0,-36 -48,-148 -98,-228 -29,-46 -52,-88 -52,-93 0,-5 -5,-9 -11,-9 -5,0 -8,-4 -4,-9 3,-5 -3,-16 -12,-23 -18,-13 -31,-43 -16,-36 113,53 246,206 307,352 22,52 21,55 -19,72 -42,17 -154,19 -117,2 z"
                 id="path1"
                 style="fill:url(#linearGradient33);fill-opacity:1;stroke:none;stroke-width:6.75428;stroke-dasharray:none;stroke-opacity:1" />
              <path
                 d="m 934,836 c -17,-8 -59,-34 -94,-60 -34,-25 -71,-46 -81,-46 -33,0 -21,-14 32,-38 86,-38 92,-37 166,4 38,20 80,47 95,59 25,21 25,24 12,44 -8,11 -22,21 -30,21 -8,0 -17,7 -20,15 -7,18 -39,19 -80,1 z"
                 id="path2"
                 style="fill:url(#linearGradient33);fill-opacity:1;stroke:none;stroke-width:6.75428;stroke-dasharray:none;stroke-opacity:1" />
              <path
                 d="m 345,753 c -11,-2 -34,-11 -52,-19 -17,-8 -37,-14 -44,-14 -7,0 -34,-18 -59,-39 -39,-33 -49,-38 -61,-27 -17,17 -115,30 -123,17 -4,-5 9,-22 27,-38 18,-15 39,-41 45,-58 17,-43 29,-146 21,-176 -7,-26 17,-82 36,-86 6,-1 18,-5 28,-8 15,-6 17,-1 17,38 v 44 l 58,17 c 32,9 80,16 106,16 29,0 53,6 62,15 9,8 11,15 5,15 -6,0 -11,5 -11,12 0,6 -8,20 -17,30 -15,17 -15,21 -1,51 8,17 16,37 17,42 2,6 8,16 14,24 7,8 17,32 22,55 10,37 8,44 -10,63 -23,23 -50,33 -80,26 z M 318,615 c -7,-54 -48,-119 -91,-140 -16,-8 -33,-15 -38,-15 -4,0 -5,34 -3,76 3,65 6,79 25,92 19,13 59,25 103,31 5,0 6,-19 4,-44 z"
                 id="path3"
                 style="fill:url(#linearGradient33);fill-opacity:1;stroke:none;stroke-width:6.75428;stroke-dasharray:none;stroke-opacity:1" />
              <path
                 d="m 795,562 c -27,-16 -81,-48 -120,-72 -53,-33 -81,-44 -112,-44 -36,-1 -43,-4 -43,-21 1,-21 32,-49 74,-64 30,-12 74,17 161,108 33,33 63,61 67,61 5,0 -6,-24 -23,-52 C 737,372 650,167 650,126 c 0,-39 19,-71 53,-91 69,-41 380,-30 550,20 136,39 166,83 136,201 -7,27 -15,41 -19,34 -4,-7 -19,21 -35,67 -16,43 -32,82 -37,88 -4,5 -8,-22 -9,-60 -1,-110 -18,-165 -56,-188 -66,-38 -316,-87 -447,-87 -84,0 -96,42 -43,149 30,59 136,189 175,213 19,13 27,27 28,48 1,26 -5,34 -37,51 -49,25 -54,24 -114,-9 z"
                 id="path4"
                 style="fill:url(#linearGradient33);fill-opacity:1;stroke:none;stroke-width:6.75428;stroke-dasharray:none;stroke-opacity:1" />
            </g>
          </g>
        </g>
      </g>
    </g>
  </g>
</svg>
