<?xml version="1.0" encoding="utf-8"?><!DOCTYPE svg PUBLIC "-//W3C//DTD SVG 1.1//EN" "http://www.w3.org/Graphics/SVG/1.1/DTD/svg11.dtd"><svg version="1.1" xmlns="http://www.w3.org/2000/svg" width="160" height="160" viewBox="0 0 160 160"><g transform="scale(0.303,0.303)"><g transform="translate(0,0)"><g transform="translate(0,0)">
<g transform="translate(0,0) scale(1,1)">

<path fill="#CC3300" d=" M 276.35 69.36 C 281.25 66.89 286.76 69.42 291.32 71.55 C 300.90 75.56 308.73 82.78 315.63 90.37 C 318.61 94.25 321.77 98.75 320.85 103.96 C 319.99 121.92 309.26 137.00 300.94 152.24 C 309.29 149.78 317.93 147.80 325.60 143.53 C 329.94 140.65 333.25 136.53 337.25 133.24 C 339.35 131.34 342.34 132.61 344.63 133.42 C 354.43 138.44 361.68 146.94 368.97 154.96 C 362.91 167.35 360.56 182.14 349.27 191.26 C 336.81 201.77 326.41 214.49 313.72 224.71 C 307.20 228.00 298.65 228.03 292.93 223.07 C 296.92 218.84 297.48 212.95 299.05 207.64 C 306.36 196.54 311.36 184.17 316.46 171.96 C 306.17 170.95 295.28 168.84 285.23 172.28 C 264.43 189.33 248.48 213.56 222.46 223.55 C 223.48 219.84 224.88 216.24 227.01 213.03 C 237.41 196.50 243.91 177.96 250.94 159.85 C 257.08 147.07 264.91 134.74 267.54 120.59 C 269.81 106.82 271.10 92.90 272.04 78.97 C 272.45 75.50 272.96 71.25 276.35 69.36 Z"/>
<path fill="#CC3300" d=" M 172.25 79.12 C 173.79 75.20 178.70 73.81 182.55 74.41 C 194.49 82.27 205.53 93.13 210.08 107.02 C 211.35 110.16 209.44 113.28 208.33 116.14 C 206.12 121.08 204.06 126.28 200.16 130.16 C 196.86 134.07 191.73 135.58 188.06 139.03 C 186.13 141.34 185.01 144.18 183.49 146.75 C 178.67 155.79 170.57 162.33 164.09 170.08 C 147.97 190.18 132.57 210.84 117.74 231.92 C 123.99 239.56 130.12 247.31 135.99 255.26 C 142.89 246.80 151.45 239.19 155.62 228.87 C 158.43 220.19 164.40 212.98 167.46 204.38 C 170.75 195.09 176.55 187.11 181.65 178.78 C 185.35 173.71 184.54 167.31 184.32 161.44 C 193.86 159.61 203.14 164.07 211.07 169.00 C 214.72 173.03 216.69 178.60 217.55 183.91 C 212.40 195.02 204.46 204.67 198.42 215.35 C 194.77 222.51 188.06 227.42 184.30 234.49 C 177.74 246.51 166.96 255.61 160.63 267.77 C 154.21 279.59 145.52 289.97 138.65 301.52 C 140.56 301.29 142.52 301.23 144.38 300.72 C 158.68 295.05 172.24 287.72 186.02 280.91 C 188.77 279.29 191.98 279.95 194.92 280.55 C 191.42 287.47 185.75 292.94 179.84 297.84 C 158.20 316.19 136.85 334.87 115.51 353.55 C 112.87 355.60 110.49 358.39 107.19 359.37 C 96.49 357.61 85.03 350.41 82.97 339.03 C 82.01 333.76 80.27 326.77 84.46 322.42 C 98.60 305.23 116.76 290.72 126.63 270.36 C 113.80 263.93 101.36 255.83 86.60 254.94 C 81.48 249.87 76.89 244.01 73.29 237.74 C 68.63 229.11 78.01 221.63 84.41 217.61 C 89.60 217.12 94.80 216.82 100.01 216.71 C 114.74 196.39 128.16 175.12 140.09 153.04 C 143.47 146.61 148.33 141.01 151.29 134.36 C 155.76 121.14 163.28 109.22 167.83 96.03 C 169.58 90.47 170.10 84.56 172.25 79.12 Z"/>
<path fill="#CC3300" d=" M 352.54 220.33 C 360.27 217.72 368.37 220.68 375.59 223.43 C 381.11 228.34 385.80 234.22 389.22 240.77 C 390.74 244.83 393.09 249.69 390.93 253.94 C 386.31 262.98 382.50 272.79 374.86 279.85 C 368.57 286.98 360.19 291.76 353.22 298.07 C 350.03 304.73 349.54 313.20 342.79 317.69 C 336.50 320.55 329.34 319.57 322.68 320.87 C 314.24 322.61 305.40 322.32 297.19 325.15 C 283.72 329.92 270.07 334.27 256.06 337.19 C 254.01 348.77 250.80 360.18 249.53 371.88 C 250.67 383.93 252.84 397.92 262.97 406.01 C 275.05 414.44 290.61 414.23 304.67 416.39 C 326.25 420.06 348.22 418.89 370.00 419.09 C 382.29 419.14 395.47 419.04 406.56 412.97 C 412.43 409.55 421.22 408.19 423.82 400.90 C 426.79 393.17 430.02 385.55 434.51 378.56 C 448.20 384.98 458.33 397.19 466.04 409.84 C 466.80 417.28 465.14 425.91 458.96 430.86 C 450.95 436.29 443.05 442.03 434.26 446.17 C 419.01 451.94 402.91 454.94 387.05 458.50 C 352.75 462.89 317.48 461.31 284.11 451.86 C 273.00 448.55 262.71 443.11 252.71 437.32 C 242.40 432.07 236.86 421.28 231.30 411.67 C 226.29 398.15 227.40 383.21 227.19 369.03 C 230.44 341.47 231.96 313.70 232.99 285.97 C 234.83 274.44 226.64 265.69 220.52 257.08 C 225.81 253.39 231.17 249.56 237.31 247.38 C 249.16 243.79 261.54 242.83 273.68 240.63 C 293.88 237.07 314.21 234.22 334.38 230.48 C 341.84 229.61 344.80 220.57 352.54 220.33 M 321.88 249.66 C 314.97 251.73 307.80 252.89 301.02 255.42 C 303.99 259.01 307.97 262.29 308.84 267.10 C 310.25 277.21 307.79 287.30 304.89 296.93 C 309.77 295.04 317.40 296.61 320.07 291.10 C 327.63 275.49 335.79 259.79 339.34 242.66 C 333.42 244.76 327.75 247.45 321.88 249.66 M 258.79 306.83 C 266.25 305.81 273.71 304.72 281.10 303.21 C 279.98 290.98 279.25 278.72 277.67 266.55 C 269.28 278.87 264.47 293.15 258.79 306.83 Z"/>
<path fill="#CC3300" d=" M 193.17 334.58 C 194.91 340.28 195.20 346.67 189.63 350.64 C 165.38 374.38 140.53 397.55 116.32 421.34 C 114.08 423.46 111.48 425.67 107.99 424.89 C 101.07 425.33 94.05 425.57 87.16 424.69 C 83.38 423.15 80.81 419.67 77.06 418.05 C 70.63 414.78 62.35 412.22 60.18 404.54 C 65.10 403.00 70.02 401.36 74.43 398.61 C 86.73 391.46 100.53 387.69 113.68 382.51 C 129.38 373.45 143.37 361.50 159.99 353.98 C 171.65 348.59 183.07 342.58 193.17 334.58 Z"/>
</g>
</g></g></g></svg>