<?xml version="1.0" encoding="utf-8"?><!DOCTYPE svg PUBLIC "-//W3C//DTD SVG 1.1//EN" "http://www.w3.org/Graphics/SVG/1.1/DTD/svg11.dtd"><svg version="1.1" xmlns="http://www.w3.org/2000/svg" width="160" height="160" viewBox="0 0 160 160"><g transform="scale(0.303,0.303)"><g transform="translate(0,0)"><g transform="translate(0,0)">
<g transform="translate(0,0) scale(1,1)">

<path fill="#CC3300" d=" M 287.87 60.75 C 293.08 55.51 301.90 57.06 308.13 59.77 C 315.94 63.80 326.09 65.96 330.46 74.40 C 334.04 81.93 336.94 90.24 335.72 98.71 C 333.14 105.89 326.46 110.22 321.02 115.06 C 312.17 123.14 301.99 129.62 293.37 137.97 C 309.55 145.42 325.86 152.60 342.14 159.84 C 348.80 162.47 352.51 168.82 356.64 174.27 C 360.72 179.77 363.68 186.13 364.56 192.98 C 357.58 195.41 350.84 199.54 343.38 200.17 C 332.65 197.36 323.05 191.15 312.14 188.84 C 304.00 187.53 297.72 181.61 290.07 178.95 C 279.55 175.25 268.71 172.22 257.66 170.66 C 249.96 170.46 243.32 175.25 237.13 179.18 C 224.31 187.80 210.48 194.82 198.07 204.06 C 193.55 207.15 187.66 206.67 182.77 208.87 C 177.45 211.74 172.46 215.19 167.28 218.30 C 159.89 222.58 151.34 223.90 143.35 226.59 C 137.09 228.43 131.31 231.51 125.29 233.98 C 129.14 227.65 135.21 223.05 141.50 219.33 C 155.02 210.06 167.70 199.65 180.87 189.90 C 195.68 178.98 209.91 166.80 220.66 151.74 C 212.35 147.88 205.28 141.92 196.99 138.04 C 183.13 131.32 168.97 125.12 155.78 117.13 C 153.35 115.63 153.52 112.51 153.15 110.04 C 166.53 111.76 179.98 112.93 193.35 114.74 C 211.66 118.04 229.89 121.79 247.78 126.91 C 254.95 118.68 262.60 110.88 269.26 102.22 C 274.32 95.98 281.79 91.59 284.89 83.87 C 288.03 76.59 285.46 68.13 287.87 60.75 Z"/>
<path fill="#CC3300" d=" M 241.85 193.82 C 249.59 194.76 257.35 195.62 265.01 197.11 C 281.51 200.31 296.57 212.98 299.91 229.89 C 317.48 229.94 335.09 229.78 352.59 228.18 C 360.18 225.20 366.58 219.41 374.68 217.72 C 384.19 215.68 393.40 219.31 401.91 223.12 C 407.43 226.19 413.47 230.09 415.65 236.34 C 416.33 240.25 413.84 243.78 412.34 247.20 C 400.23 246.65 388.12 246.29 376.00 246.87 C 349.94 247.56 323.37 245.85 297.76 251.73 C 296.85 271.12 296.65 290.58 298.16 309.96 C 315.74 315.55 334.50 315.31 351.99 321.15 C 376.39 329.00 401.16 335.77 425.09 344.99 C 436.44 351.62 445.35 361.76 452.19 372.86 C 456.51 377.84 454.79 385.02 455.03 391.01 C 455.02 395.19 450.62 397.00 447.33 398.31 C 437.68 400.55 427.75 398.19 419.05 393.91 C 407.64 388.24 395.47 383.70 385.48 375.58 C 370.22 366.03 353.67 358.80 338.04 349.90 C 324.73 342.23 311.43 334.52 297.84 327.38 C 296.00 334.81 297.83 342.45 296.87 349.96 C 294.69 372.41 295.44 395.46 287.92 417.02 C 281.66 428.60 274.19 439.61 265.45 449.49 C 253.65 460.08 239.32 467.42 224.32 472.34 C 221.15 467.64 216.65 463.64 215.27 457.93 C 212.40 451.07 212.95 442.17 207.42 436.66 C 198.08 430.08 188.00 424.60 178.84 417.74 C 182.11 417.10 185.43 416.56 188.65 415.69 C 179.86 411.05 170.45 407.75 161.51 403.45 C 175.52 401.41 190.03 399.76 204.00 402.91 C 212.95 404.58 222.85 406.89 231.30 402.30 C 237.43 396.38 236.94 387.10 238.43 379.34 C 244.14 346.13 238.27 312.23 242.59 278.92 C 242.65 272.98 240.68 267.26 239.12 261.60 C 218.33 260.75 199.80 270.45 180.88 277.36 C 189.53 282.05 198.28 286.52 207.08 290.93 C 210.05 292.56 213.60 294.50 213.44 298.59 C 215.71 306.88 216.95 315.92 215.32 324.34 C 209.73 331.36 201.61 335.94 195.36 342.37 C 181.16 356.67 164.69 368.38 148.52 380.27 C 127.70 388.41 110.36 402.95 91.23 414.09 C 87.19 414.88 83.05 413.39 79.02 412.94 C 82.49 405.01 88.93 398.96 94.58 392.60 C 113.20 371.85 132.62 351.77 150.22 330.15 C 155.82 322.92 161.17 315.45 165.43 307.35 C 169.38 299.79 167.82 290.72 166.15 282.73 C 156.95 284.54 147.74 286.31 138.70 288.81 C 130.79 291.00 123.58 295.93 115.11 295.76 C 101.15 293.57 88.99 285.50 78.26 276.75 C 75.80 274.72 74.57 271.78 73.14 269.05 C 78.88 266.20 84.17 261.77 90.64 260.69 C 102.40 259.82 114.30 260.96 125.97 258.94 C 142.59 256.15 158.97 251.86 175.82 250.53 C 196.74 247.51 217.49 243.41 238.33 239.89 C 238.98 230.09 238.93 220.15 236.31 210.63 C 234.19 204.45 239.35 199.10 241.85 193.82 Z"/>
</g>
</g></g></g></svg>