<?xml version="1.0" encoding="utf-8"?><!DOCTYPE svg PUBLIC "-//W3C//DTD SVG 1.1//EN" "http://www.w3.org/Graphics/SVG/1.1/DTD/svg11.dtd"><svg version="1.1" xmlns="http://www.w3.org/2000/svg" width="160" height="160" viewBox="0 0 160 160"><g transform="scale(0.303,0.303)"><g transform="translate(0,0)"><g transform="translate(0,0)">
<g transform="translate(0,0) scale(1,1)">

<path fill="#000000" d=" M 262.77 65.78 C 265.78 62.16 271.34 63.15 275.39 61.67 C 281.69 69.58 289.63 76.06 295.40 84.41 C 299.84 92.84 303.76 102.07 301.74 111.87 C 297.56 131.47 283.37 146.49 275.73 164.60 C 276.58 165.35 277.44 166.10 278.31 166.85 C 298.66 162.35 319.25 158.97 339.64 154.67 C 350.63 153.38 358.33 142.85 369.82 143.32 C 389.55 152.20 403.21 174.20 401.04 196.00 C 401.28 207.18 397.87 217.92 397.11 229.00 C 396.13 237.86 396.22 246.84 394.46 255.62 C 389.39 278.05 385.13 300.70 378.58 322.77 C 370.64 345.74 351.68 362.47 331.94 375.56 C 328.13 371.31 323.65 367.51 320.64 362.63 C 318.79 357.14 318.93 350.71 314.86 346.11 C 308.22 337.89 299.38 331.88 291.61 324.82 C 303.58 322.32 315.85 324.59 327.91 325.13 C 335.74 314.87 340.67 302.56 343.25 289.98 C 343.15 282.42 345.98 275.40 347.97 268.24 C 349.80 254.93 347.98 241.31 351.13 228.13 C 355.07 208.91 358.41 188.94 353.90 169.50 C 344.35 171.15 335.10 174.63 327.11 180.16 C 318.21 186.24 308.19 192.15 297.13 192.57 C 286.89 191.26 278.75 182.66 268.08 183.08 C 264.20 184.40 261.61 188.06 259.30 191.30 C 250.62 205.41 240.28 218.38 231.00 232.10 C 247.11 230.63 263.58 231.44 279.36 227.39 C 287.95 225.35 293.70 216.74 303.02 216.82 C 308.70 215.83 314.39 217.33 320.05 217.80 C 323.74 223.77 328.78 229.17 331.13 235.90 C 333.06 241.85 329.77 247.35 327.67 252.67 C 325.30 258.03 323.34 263.58 320.75 268.84 C 317.09 275.60 312.32 281.67 308.42 288.27 C 306.53 291.45 306.33 295.36 304.41 298.50 C 299.28 303.31 292.53 305.97 285.73 307.37 C 274.90 310.16 265.76 318.74 254.02 317.67 C 251.46 324.42 248.30 331.10 247.79 338.41 C 246.75 345.49 247.52 352.99 244.63 359.71 C 240.09 370.57 242.14 382.66 244.19 393.87 C 245.49 400.06 247.77 407.10 254.07 409.87 C 264.38 415.26 274.33 421.42 285.11 425.88 C 299.15 431.26 314.33 429.56 329.02 430.63 C 355.67 432.02 382.76 430.68 408.58 423.48 C 415.60 421.56 421.76 417.26 429.00 415.96 C 432.87 414.74 437.12 414.63 440.75 412.75 C 444.21 408.39 445.46 402.72 447.93 397.79 C 450.85 392.06 452.47 385.82 454.72 379.82 C 457.96 381.39 461.80 381.98 464.54 384.42 C 468.08 391.09 466.99 399.41 471.15 405.88 C 475.39 412.18 481.08 417.30 485.56 423.41 C 487.68 426.48 487.98 431.35 484.93 433.87 C 477.35 439.71 469.51 445.78 459.99 447.98 C 453.29 449.43 447.98 453.91 441.90 456.72 C 419.86 463.95 396.46 464.44 373.56 466.39 C 340.40 467.43 306.00 469.77 274.05 458.90 C 260.58 454.88 245.78 450.73 236.07 439.93 C 226.92 427.74 222.60 412.26 222.26 397.15 C 223.43 376.46 222.71 355.73 223.22 335.02 C 224.53 312.16 227.25 289.40 228.54 266.54 C 229.38 257.20 226.92 248.05 223.76 239.37 C 217.46 244.87 211.77 251.00 205.86 256.91 C 203.81 259.29 200.92 260.69 198.02 261.77 C 200.47 258.66 203.06 255.66 205.40 252.47 C 212.12 242.42 212.98 229.76 219.55 219.63 C 227.47 207.62 231.19 193.59 237.82 180.93 C 245.80 164.91 249.47 147.26 254.36 130.16 C 257.57 119.26 258.56 107.88 259.80 96.64 C 260.56 89.36 258.67 82.17 258.19 74.94 C 257.81 71.27 260.79 68.49 262.77 65.78 M 263.15 269.18 C 257.81 276.05 259.24 284.99 258.75 293.06 C 265.33 289.66 272.50 287.62 279.95 288.63 C 286.44 274.92 290.35 260.21 293.25 245.36 C 280.36 248.57 270.51 258.64 263.15 269.18 Z"/>
<path fill="#000000" d=" M 133.10 65.09 C 135.61 62.99 139.48 64.41 141.61 66.43 C 147.29 70.96 153.18 75.45 157.69 81.20 C 163.31 90.85 167.47 101.63 168.41 112.80 C 163.84 139.28 165.69 166.24 163.35 192.91 C 171.90 181.75 177.28 168.74 183.28 156.15 C 185.40 152.95 188.08 146.40 193.11 147.78 C 204.01 151.79 210.34 162.13 217.86 170.33 C 215.77 175.81 214.84 183.03 208.90 185.82 C 196.68 192.89 183.97 199.12 172.21 207.01 C 170.48 205.25 168.77 203.49 167.04 201.74 C 162.04 205.39 154.99 208.33 155.66 215.82 C 152.46 236.19 149.23 256.56 145.85 276.90 C 153.75 282.66 162.42 287.66 168.63 295.39 C 177.95 306.43 187.76 317.67 192.08 331.75 C 193.99 341.57 192.97 351.71 191.11 361.48 C 184.70 359.75 178.27 357.74 172.50 354.40 C 164.91 349.89 161.46 341.29 156.65 334.31 C 150.43 325.09 145.76 315.00 141.12 304.94 C 140.39 304.99 138.93 305.09 138.21 305.14 C 132.42 320.01 126.99 335.12 119.02 349.01 C 108.88 369.12 101.33 391.07 86.34 408.32 C 79.65 416.64 70.60 423.56 66.67 433.81 C 66.02 433.86 64.73 433.97 64.08 434.03 C 64.72 430.54 65.30 427.01 65.77 423.50 C 65.15 423.40 63.92 423.20 63.30 423.11 C 58.48 430.23 53.14 437.03 47.04 443.10 C 45.05 445.25 41.81 445.33 39.27 446.27 C 42.71 441.29 48.36 437.81 49.55 431.45 C 52.28 423.53 57.73 417.10 61.77 409.90 C 75.57 378.66 90.41 347.65 99.76 314.70 C 103.26 302.69 108.38 291.05 110.17 278.62 C 108.93 269.38 115.00 261.85 117.06 253.29 C 120.08 234.28 123.23 215.28 125.29 196.14 C 127.91 174.46 134.18 152.71 130.05 130.79 C 129.78 115.78 126.15 101.24 123.24 86.60 C 123.31 83.90 121.27 80.51 122.97 77.89 C 126.07 73.47 128.81 68.52 133.10 65.09 Z"/>
<path fill="#000000" d=" M 62.33 209.17 C 64.82 204.97 69.82 202.94 73.58 199.93 C 81.28 207.10 89.68 213.48 98.04 219.80 C 100.06 231.35 103.98 243.71 99.62 255.18 C 96.52 267.38 94.62 280.16 88.08 291.17 C 85.84 294.62 81.21 294.12 77.63 293.48 C 71.94 292.17 66.44 288.54 63.67 283.33 C 61.39 276.72 62.36 269.45 61.12 262.63 C 57.69 244.96 59.56 226.78 62.33 209.17 Z"/>
</g>
</g></g></g></svg>