<?xml version="1.0" encoding="utf-8"?><!DOCTYPE svg PUBLIC "-//W3C//DTD SVG 1.1//EN" "http://www.w3.org/Graphics/SVG/1.1/DTD/svg11.dtd"><svg version="1.1" xmlns="http://www.w3.org/2000/svg" width="160" height="160" viewBox="0 0 160 160"><g transform="scale(0.303,0.303)"><g transform="translate(0,0)"><g transform="translate(0,0)"><g transform="translate(0,0) scale(1,1)"><g transform="scale(2.9464285714285716,2.9464285714285716) translate(20.099999999999994,19.599999999999994)"><g transform="translate(0.000000,140.000000) scale(0.100000,-0.100000)" fill="#000000" stroke="none">
<path d="M477 1389 c-26 -15 -21 -28 17 -44 36 -15 57 -52 59 -107 2 -28 -3 -35 -35 -50 -55 -26 -117 -38 -144 -27 -29 11 -32 -5 -7 -41 38 -55 84 -65 141 -30 51 31 62 27 62 -23 l0 -44 -75 -38 c-54 -27 -78 -35 -87 -27 -20 15 -95 23 -124 12 -21 -8 -24 -13 -15 -24 7 -8 22 -17 35 -20 33 -8 55 -62 72 -174 17 -118 25 -137 63 -157 28 -14 31 -14 40 4 9 16 77 51 100 51 10 0 21 -73 14 -99 -4 -14 -30 -24 -121 -44 -64 -15 -134 -29 -154 -32 -21 -3 -57 -9 -80 -14 -24 -6 -78 -8 -121 -6 -43 2 -85 1 -93 -2 -14 -5 -20 -33 -6 -33 4 0 18 -10 32 -23 116 -105 137 -109 248 -55 48 23 98 50 112 58 29 19 178 75 184 69 3 -2 9 -51 16 -109 15 -140 14 -131 35 -247 10 -57 22 -103 26 -103 10 0 29 58 29 89 0 15 7 51 15 81 9 30 18 96 21 145 10 165 16 190 44 193 14 2 72 12 129 22 144 28 261 24 336 -9 57 -26 104 -34 124 -22 14 9 22 79 9 87 -7 4 -6 9 2 14 19 12 -73 60 -127 66 -26 3 -51 8 -56 11 -4 3 -34 -4 -65 -15 -31 -11 -126 -37 -210 -57 -85 -20 -160 -39 -168 -42 -12 -5 -15 4 -12 48 l3 54 38 3 c27 2 37 -1 37 -11 0 -18 17 -25 50 -20 14 2 31 4 38 5 6 1 12 5 12 9 0 4 8 10 18 13 15 5 52 63 55 86 2 16 80 160 87 160 14 0 33 59 25 77 -5 10 -9 21 -9 24 -3 15 -37 36 -96 57 -114 40 -121 41 -203 17 l-77 -22 0 42 c0 65 17 74 140 77 91 3 105 5 108 21 5 24 -51 70 -102 83 -32 8 -48 8 -76 -4 -19 -8 -32 -11 -28 -7 3 4 2 20 -4 36 -17 49 -88 79 -185 78 -43 0 -86 -5 -96 -10z m398 -388 c-4 -27 -12 -71 -20 -98 -12 -47 -13 -48 -23 -21 -14 34 -39 47 -79 41 l-33 -5 0 44 0 45 68 21 c97 29 95 30 87 -27z m-299 -88 c-1 -47 -1 -48 -56 -74 -30 -15 -57 -25 -60 -22 -3 3 -5 19 -6 36 0 18 -4 40 -8 49 -6 13 -2 19 21 23 15 4 37 10 48 15 23 10 47 18 56 19 4 1 6 -20 5 -46z m261 -78 c-2 -5 -10 -27 -18 -47 -11 -33 -17 -38 -45 -38 -24 0 -33 5 -38 23 -11 40 -6 58 17 67 29 12 89 9 84 -5z m-257 -77 l0 -53 -53 -17 c-28 -9 -54 -15 -55 -13 -2 2 -6 30 -9 63 l-6 61 34 4 c92 11 89 13 89 -45z"/>
</g>
</g></g></g></g></g></svg>