<?xml version="1.0" encoding="utf-8"?><!DOCTYPE svg PUBLIC "-//W3C//DTD SVG 1.1//EN" "http://www.w3.org/Graphics/SVG/1.1/DTD/svg11.dtd"><svg version="1.1" xmlns="http://www.w3.org/2000/svg" width="160" height="160" viewBox="0 0 160 160"><g transform="scale(0.303,0.303)"><g transform="translate(0,0)"><g transform="translate(0,0)"><g transform="translate(0,0) scale(1,1)"><g transform="scale(2.9464285714285716,2.9464285714285716) translate(23.599999999999994,19.599999999999994)"><g transform="translate(0.000000,140.000000) scale(0.100000,-0.100000)" fill="#000000" stroke="none">
<path d="M323 1382 c25 -27 22 -40 -29 -116 -85 -130 -127 -176 -237 -259 -34 -26 -43 -37 -30 -38 41 -3 70 4 99 22 65 40 91 19 101 -79 4 -32 13 -67 20 -79 14 -21 13 -22 -46 -40 l-61 -19 31 -33 c27 -30 32 -32 47 -19 21 18 183 80 190 73 5 -5 -79 -100 -132 -148 -17 -16 -60 -49 -96 -74 -36 -25 -56 -42 -45 -38 11 5 30 8 42 8 13 -1 20 3 17 8 -3 5 1 7 8 4 7 -3 35 6 62 20 27 14 54 25 59 25 5 0 23 10 40 22 17 12 27 16 22 8 -5 -8 5 -4 22 8 46 33 68 28 40 -9 -7 -9 -41 -40 -77 -70 -36 -29 -74 -61 -85 -71 -10 -10 -47 -37 -82 -59 -35 -23 -63 -43 -63 -44 0 -2 15 1 33 6 17 6 39 12 47 14 33 7 73 26 123 57 77 48 79 49 140 93 48 34 55 44 50 65 -7 32 -15 41 -42 43 -22 1 -28 12 -11 22 10 6 58 -23 90 -54 21 -20 24 -188 4 -271 -15 -66 -55 -150 -83 -173 -14 -12 -26 -12 -83 2 -66 17 -66 17 -65 -3 1 -12 11 -32 23 -45 19 -20 28 -42 34 -86 3 -18 33 -45 50 -45 50 0 165 93 199 160 25 49 53 162 60 243 l6 69 64 -92 c42 -59 85 -106 124 -135 32 -25 62 -45 65 -46 4 0 15 -2 25 -4 9 -2 17 1 17 6 0 6 5 7 10 4 6 -3 10 -1 10 4 0 6 17 11 38 11 20 1 57 5 82 10 25 5 71 12 103 14 94 7 90 22 -16 61 -213 80 -281 111 -377 170 -95 59 -160 113 -160 133 0 16 103 68 151 76 17 2 41 14 53 25 12 12 27 21 32 21 19 0 54 41 54 64 0 19 -9 25 -57 39 -81 23 -119 26 -108 7 7 -12 -48 -88 -111 -156 l-39 -42 -45 24 c-25 13 -54 24 -65 24 -11 0 -26 4 -33 9 -11 7 -11 9 2 14 28 11 18 46 -19 68 -19 12 -35 22 -35 24 0 1 43 13 96 25 78 19 103 21 132 12 34 -11 37 -9 75 28 22 22 44 40 50 40 6 0 7 3 4 6 -8 8 58 71 96 90 49 26 29 79 -48 128 -53 34 -105 47 -105 26 0 -5 -17 -12 -37 -15 -33 -6 -105 -27 -168 -50 -15 -6 -14 -3 5 11 14 9 44 35 67 56 24 21 51 38 62 38 29 0 43 23 32 52 -7 20 -23 28 -77 43 -72 19 -97 14 -102 -22 -3 -20 -49 -53 -76 -53 -19 0 -21 16 -3 27 7 4 21 21 31 37 28 43 10 70 -57 90 -30 9 -76 16 -103 16 -45 0 -46 -1 -31 -18z m182 -181 c2 -4 -6 -23 -18 -41 -12 -19 -32 -51 -44 -72 l-21 -38 21 11 c20 10 20 10 7 -3 -8 -9 -40 -25 -71 -38 l-57 -23 -30 22 c-17 11 -36 21 -44 21 -7 0 7 14 32 30 25 16 74 56 109 88 49 45 70 58 88 54 13 -2 25 -8 28 -11z m230 -182 c-19 -44 -35 -82 -35 -84 0 -2 -27 -4 -61 -4 -60 0 -61 0 -46 22 16 25 8 60 -19 75 -11 6 -13 11 -5 16 25 16 147 55 173 55 l27 1 -34 -81z m-264 -63 c-10 -56 -32 -83 -79 -96 -20 -5 -37 -8 -38 -7 -1 1 -4 31 -6 67 l-3 65 30 -3 c17 -2 46 4 65 12 19 8 36 13 38 12 1 -2 -2 -24 -7 -50z"/>
<path d="M520 557 c0 -15 -98 -111 -185 -183 -33 -27 -62 -51 -65 -54 -14 -15 -82 -61 -130 -89 -30 -18 -47 -30 -36 -27 10 4 39 11 65 18 91 22 209 96 354 222 62 55 76 95 38 116 -26 14 -41 13 -41 -3z"/>
</g>
</g></g></g></g></g></svg>