<?xml version="1.0" encoding="utf-8"?><!DOCTYPE svg PUBLIC "-//W3C//DTD SVG 1.1//EN" "http://www.w3.org/Graphics/SVG/1.1/DTD/svg11.dtd"><svg version="1.1" xmlns="http://www.w3.org/2000/svg" width="160" height="160" viewBox="0 0 160 160"><g transform="scale(0.303,0.303)"><g transform="translate(0,0)"><g transform="translate(0,0)"><g transform="translate(0,0) scale(1,1)"><g transform="scale(2.9464285714285716,2.9464285714285716) translate(19.599999999999994,34.599999999999994)"><g transform="translate(0.000000,110.000000) scale(0.100000,-0.100000)" fill="#CC3300" stroke="none">
<path d="M376 1068 c-23 -33 -21 -68 4 -68 19 0 20 -7 20 -118 l0 -117 -88 -38 c-98 -41 -129 -45 -147 -20 -14 19 -35 9 -35 -17 0 -31 38 -94 70 -118 35 -26 53 -28 71 -6 16 20 89 57 89 46 0 -9 -86 -135 -124 -183 -12 -14 -34 -43 -51 -64 -69 -86 -109 -131 -134 -147 -48 -33 9 -21 85 17 99 49 101 51 190 143 l81 83 5 -123 c4 -85 2 -125 -6 -131 -6 -4 -38 -6 -71 -4 -48 4 -56 3 -41 -7 36 -21 106 -97 106 -114 1 -26 32 -61 59 -64 16 -2 30 6 45 25 22 30 23 55 26 427 l1 85 23 -45 c31 -59 68 -91 90 -78 9 5 16 6 16 2 0 -4 9 5 20 19 25 32 25 73 0 114 -19 32 -30 37 -104 47 -21 3 -40 7 -43 10 -2 2 -1 21 3 41 5 30 13 40 40 51 39 16 97 18 124 4 28 -15 77 -1 84 23 9 34 -20 66 -89 98 -77 36 -100 36 -121 4 -9 -14 -18 -24 -20 -23 -2 3 4 49 21 151 9 56 -33 91 -115 96 -25 2 -50 7 -57 12 -8 7 -16 3 -27 -13z"/>
<path d="M1099 911 c-28 -9 -94 -50 -152 -94 -40 -31 -47 -31 -145 -1 -10 3 -11 -2 -6 -19 4 -12 10 -24 14 -27 20 -13 30 -103 31 -267 0 -127 4 -185 14 -203 12 -23 11 -25 -26 -42 -21 -9 -39 -21 -39 -26 0 -12 90 -47 110 -43 8 1 22 9 30 16 22 20 163 65 203 65 54 0 67 -8 67 -45 0 -42 18 -92 36 -99 8 -3 14 -12 14 -19 0 -23 28 -15 35 10 3 13 9 21 14 19 36 -23 63 139 57 341 -3 119 -1 174 11 223 14 63 15 71 11 106 -2 20 -40 46 -111 78 -64 28 -130 39 -168 27z m80 -136 c5 -28 12 -104 15 -170 4 -66 9 -150 12 -186 l6 -66 -50 5 c-38 3 -65 -2 -113 -21 -35 -14 -76 -29 -91 -32 l-28 -7 0 60 0 60 34 0 c34 0 149 45 175 68 27 24 5 44 -49 44 -42 0 -57 -6 -96 -35 -25 -19 -50 -35 -55 -35 -5 0 -9 27 -9 60 0 56 4 65 31 62 3 -1 43 18 90 41 63 32 84 47 84 62 0 17 -8 20 -51 23 -45 3 -55 -1 -84 -28 -18 -17 -41 -35 -52 -41 -16 -9 -18 -6 -18 28 0 65 8 76 73 108 87 42 151 65 159 56 4 -4 12 -29 17 -56z"/>
</g>
</g></g></g></g></g></svg>