<?xml version="1.0" encoding="utf-8"?><!DOCTYPE svg PUBLIC "-//W3C//DTD SVG 1.1//EN" "http://www.w3.org/Graphics/SVG/1.1/DTD/svg11.dtd"><svg version="1.1" xmlns="http://www.w3.org/2000/svg" width="160" height="160" viewBox="0 0 160 160"><g transform="scale(0.303,0.303)"><g transform="translate(0,0)"><g transform="translate(0,0)"><g transform="translate(0,0) scale(1,1)"><g transform="scale(2.9464285714285716,2.9464285714285716) translate(19.599999999999994,23.099999999999994)"><g transform="translate(0.000000,133.000000) scale(0.100000,-0.100000)" fill="#CC3300" stroke="none">
<path d="M290 1314 c-47 -20 -48 -23 -21 -43 l23 -18 -43 -72 c-24 -39 -52 -84 -61 -99 -10 -15 -23 -37 -30 -50 -8 -15 -17 -20 -29 -17 -10 4 -41 10 -69 14 -57 9 -63 0 -30 -41 18 -23 20 -43 21 -234 2 -115 6 -265 9 -333 l7 -124 51 -49 c28 -26 56 -48 62 -48 6 0 17 14 24 32 12 27 11 38 -2 76 -15 47 -9 61 28 62 9 0 40 9 71 19 59 21 178 29 245 17 40 -7 42 -6 52 24 17 48 -8 89 -55 90 -13 0 -23 2 -23 5 0 13 37 62 67 89 18 16 33 37 33 48 0 27 -56 75 -94 81 -17 2 -46 9 -64 15 -27 9 -36 8 -51 -6 -18 -17 -33 -27 -100 -64 -66 -37 -102 -60 -98 -64 13 -13 121 -24 151 -15 l35 9 -6 -31 c-15 -79 -17 -80 -74 -98 -30 -9 -71 -24 -93 -33 -21 -10 -39 -16 -41 -14 -2 3 -25 254 -25 281 0 12 8 17 28 17 15 1 45 8 67 16 86 33 182 57 225 58 39 1 45 4 48 24 2 13 -4 32 -14 43 -19 21 -17 25 49 91 31 31 32 34 15 71 -10 20 -24 29 -63 37 -27 7 -56 13 -63 16 -9 2 1 22 28 58 70 92 63 126 -30 158 -57 20 -116 21 -160 2z m86 -269 l-46 -44 40 -12 c45 -14 45 -14 25 -62 -12 -29 -23 -38 -67 -53 -29 -9 -80 -30 -112 -46 l-59 -30 9 34 c4 18 8 63 9 100 0 66 1 68 29 78 16 5 39 10 52 10 13 0 52 16 86 35 35 19 67 34 72 35 5 0 -12 -20 -38 -45z"/>
<path d="M853 1305 c-18 -8 -33 -19 -33 -25 0 -5 -6 -10 -14 -10 -32 0 -24 -20 16 -42 50 -27 56 -43 57 -160 l1 -88 -41 -21 -42 -21 -61 20 c-34 11 -73 18 -88 15 l-28 -5 23 -18 c13 -10 29 -36 35 -58 15 -50 15 -193 1 -242 -11 -36 -10 -40 31 -93 48 -64 73 -77 100 -52 17 16 19 30 16 139 -3 66 -7 135 -11 152 -6 27 -3 34 30 58 20 15 39 26 41 23 3 -3 8 -108 10 -234 5 -252 17 -396 40 -476 8 -28 21 -74 28 -101 16 -64 30 -68 34 -10 1 25 13 97 27 161 16 76 27 168 31 269 4 85 11 154 16 154 4 0 7 -3 7 -8 -1 -4 0 -10 1 -14 1 -5 3 -11 4 -15 4 -19 31 -59 48 -71 10 -7 18 -19 18 -26 0 -8 6 -16 13 -18 21 -8 77 -1 92 12 8 7 15 9 15 5 0 -4 7 -2 15 5 8 7 13 16 10 20 -3 5 0 10 6 12 23 8 69 183 89 332 11 88 11 90 -12 111 -25 23 -107 59 -116 51 -2 -3 -17 1 -32 9 -25 13 -46 13 -132 0 -27 -4 -28 -3 -28 45 0 27 4 51 9 55 17 10 9 63 -13 87 -22 25 -29 29 -106 58 -25 9 -52 20 -60 23 -8 3 -30 0 -47 -8z m320 -410 c0 -38 0 -98 -1 -132 l-2 -63 -55 0 -56 0 2 125 c1 141 4 147 72 142 l39 -2 1 -70z"/>
</g>
</g></g></g></g></g></svg>