<?xml version="1.0" encoding="utf-8"?><!DOCTYPE svg PUBLIC "-//W3C//DTD SVG 1.1//EN" "http://www.w3.org/Graphics/SVG/1.1/DTD/svg11.dtd"><svg version="1.1" xmlns="http://www.w3.org/2000/svg" width="160" height="160" viewBox="0 0 160 160"><g transform="scale(0.303,0.303)"><g transform="translate(0,0)"><g transform="translate(0,0)"><g transform="translate(0,0) scale(1,1)"><g transform="scale(2.9464285714285716,2.9464285714285716) translate(19.599999999999994,31.099999999999994)"><g transform="translate(0.000000,117.000000) scale(0.100000,-0.100000)" fill="#000000" stroke="none">
<path d="M826 1133 c-20 -21 -57 -67 -80 -103 -24 -36 -60 -80 -80 -98 -39 -34 -45 -45 -19 -35 11 4 14 3 9 -5 -10 -16 49 6 65 24 6 8 17 14 24 14 7 0 29 14 50 30 52 41 117 69 195 83 91 17 92 37 3 78 -37 17 -76 35 -85 40 -30 15 -43 10 -82 -28z"/>
<path d="M415 1130 c-3 -5 -15 -10 -26 -10 -26 0 -24 -16 6 -46 23 -23 25 -32 25 -118 0 -71 -4 -97 -15 -106 -8 -7 -15 -9 -15 -4 0 5 -4 3 -9 -5 -17 -26 -34 0 -28 43 3 23 2 48 -3 56 -14 23 -89 38 -132 27 -42 -10 -44 -14 -23 -41 15 -20 21 -110 9 -141 -4 -9 -24 -23 -44 -31 -53 -21 -58 -53 -14 -88 40 -32 51 -32 65 -3 9 20 105 87 126 87 4 0 19 9 33 20 44 34 50 27 50 -60 0 -70 -2 -80 -18 -80 -10 0 -56 -19 -103 -41 -71 -35 -98 -43 -161 -48 -19 -2 -5 -33 31 -73 l40 -43 -36 -65 c-48 -89 -123 -189 -146 -196 -13 -4 -16 -9 -8 -17 7 -7 27 -6 68 3 46 11 67 23 98 55 56 59 135 164 135 181 0 8 4 14 10 14 5 0 0 16 -12 37 l-22 36 34 28 c18 16 45 32 60 38 l28 9 -4 -56 c-2 -32 -6 -112 -8 -180 -5 -122 -5 -124 22 -162 15 -21 34 -47 42 -59 8 -11 23 -21 32 -21 15 0 18 9 19 48 0 26 0 58 0 72 1 14 -3 103 -7 199 l-7 173 41 -27 c37 -24 45 -26 73 -16 42 14 51 6 99 -89 22 -43 50 -85 65 -94 26 -17 28 -17 51 5 13 12 24 28 24 36 0 7 4 13 9 13 28 0 -32 136 -64 144 -11 3 -36 6 -55 7 -82 2 -77 14 21 57 97 42 233 81 245 69 4 -3 9 -98 12 -211 l5 -205 -26 -6 c-26 -7 -131 2 -152 12 -5 2 2 -7 18 -21 15 -14 27 -29 27 -34 0 -5 7 -15 15 -22 9 -7 13 -15 10 -18 -3 -3 2 -16 11 -30 8 -13 13 -30 10 -38 -3 -8 1 -14 10 -14 8 0 30 -16 49 -36 33 -34 34 -35 58 -19 29 19 72 101 89 171 12 48 15 308 5 424 -3 31 -1 60 5 68 14 17 73 15 92 -3 8 -8 19 -15 24 -15 5 0 23 -7 41 -16 38 -19 57 -13 72 20 13 28 5 76 -13 76 -6 0 -19 6 -27 14 -33 28 -174 41 -191 17 -12 -18 -42 -18 -93 -2 l-55 17 30 24 c75 61 147 140 142 154 -8 20 -78 46 -142 52 l-54 5 22 -31 22 -31 -42 -64 c-46 -70 -56 -79 -46 -40 5 21 0 28 -34 50 -22 14 -47 25 -55 25 -9 0 -25 5 -36 10 -15 8 -19 7 -19 -4 0 -8 5 -18 10 -21 6 -3 10 -19 10 -35 0 -43 30 -90 60 -91 14 -1 29 -1 33 0 13 2 -67 -101 -95 -122 -27 -20 -210 -83 -270 -93 l-38 -7 0 80 c0 44 3 83 7 87 4 3 8 12 9 19 1 7 5 28 8 47 4 19 13 76 20 126 7 49 15 95 19 100 8 14 -22 39 -78 65 -25 12 -48 25 -51 30 -7 12 -21 11 -29 -1z m-65 -300 c0 -4 -6 -10 -14 -13 -10 -4 -12 0 -9 14 5 18 23 18 23 -1z m628 -83 c24 -14 21 -15 -128 -65 -11 -4 -10 0 4 16 10 12 23 20 30 19 6 -1 10 3 9 10 -2 7 3 10 11 7 8 -3 20 2 27 10 17 18 18 19 47 3z"/>
<path d="M667 852 c-2 -4 -4 -24 -6 -44 -3 -41 36 -118 56 -111 6 2 14 -1 18 -6 6 -11 75 -16 75 -6 0 3 -6 20 -13 38 -8 18 -12 37 -10 43 6 18 -112 102 -120 86z"/>
</g>
</g></g></g></g></g></svg>