<?xml version="1.0" encoding="utf-8"?><!DOCTYPE svg PUBLIC "-//W3C//DTD SVG 1.1//EN" "http://www.w3.org/Graphics/SVG/1.1/DTD/svg11.dtd"><svg version="1.1" xmlns="http://www.w3.org/2000/svg" width="160" height="160" viewBox="0 0 160 160"><g transform="scale(0.303,0.303)"><g transform="translate(0,0)"><g transform="translate(0,0)"><g transform="translate(0,0) scale(1,1)"><g transform="scale(2.9464285714285716,2.9464285714285716) translate(19.599999999999994,38.599999999999994)"><g transform="translate(0.000000,102.000000) scale(0.100000,-0.100000)" fill="#000000" stroke="none">
<path d="M557 997 c-12 -13 -30 -26 -39 -30 -32 -11 -19 -35 28 -53 27 -10 49 -26 54 -39 11 -28 24 -154 25 -229 l0 -59 -60 -13 c-78 -17 -300 -68 -443 -102 -64 -15 -112 -31 -112 -38 0 -6 31 -37 69 -68 81 -67 130 -81 158 -48 42 50 361 197 382 176 3 -3 4 -54 2 -114 -1 -65 2 -117 8 -129 11 -19 7 -22 -46 -36 -32 -9 -96 -27 -143 -41 -47 -13 -97 -24 -111 -24 -21 0 -28 -6 -32 -26 -3 -16 0 -28 10 -31 7 -3 20 -18 28 -34 26 -49 48 -54 129 -28 39 12 83 30 97 40 15 10 52 25 83 33 31 8 60 17 65 21 5 3 47 12 93 21 98 19 182 13 230 -16 62 -38 89 -24 93 50 3 41 -10 70 -30 70 -7 0 -15 4 -17 8 -1 5 -33 19 -70 31 -61 19 -71 20 -105 7 -21 -8 -56 -17 -77 -21 l-39 -6 7 43 c4 24 10 84 13 133 3 50 9 94 14 99 12 13 283 17 341 6 31 -6 66 -24 99 -50 28 -22 60 -40 71 -40 25 0 47 27 48 58 0 13 5 32 10 42 8 15 5 24 -12 43 -52 54 -258 121 -270 88 -1 -6 -59 -19 -128 -31 -69 -11 -133 -23 -142 -26 -16 -5 -18 3 -18 71 0 56 5 87 20 117 11 23 20 51 20 63 0 30 -51 73 -113 94 -140 49 -158 51 -190 18z"/>
</g>
</g></g></g></g></g></svg>