<?xml version="1.0" encoding="utf-8"?><!DOCTYPE svg PUBLIC "-//W3C//DTD SVG 1.1//EN" "http://www.w3.org/Graphics/SVG/1.1/DTD/svg11.dtd"><svg version="1.1" xmlns="http://www.w3.org/2000/svg" width="160" height="160" viewBox="0 0 160 160"><g transform="scale(0.303,0.303)"><g transform="translate(0,0)"><g transform="translate(0,0)"><g transform="translate(0,0) scale(1,1)"><g transform="scale(2.9464285714285716,2.9464285714285716) translate(19.599999999999994,39.599999999999994)"><g transform="translate(0.000000,100.000000) scale(0.100000,-0.100000)" fill="#CC3300" stroke="none">
<path d="M355 990 c-4 -6 2 -21 14 -34 l21 -23 -54 -109 c-80 -163 -157 -269 -279 -386 -28 -26 -46 -51 -42 -57 3 -6 12 -8 18 -4 7 4 17 8 22 8 32 1 120 61 202 139 51 49 96 86 99 83 6 -6 5 -271 -1 -357 -9 -123 -5 -150 22 -181 15 -16 41 -38 59 -48 l33 -20 20 25 c17 21 18 29 8 62 -17 53 -16 417 1 434 24 24 14 57 -29 88 -23 16 -50 32 -60 35 -25 8 -24 19 4 34 12 7 38 35 57 64 19 29 49 66 67 84 83 81 31 149 -128 170 -31 4 -49 1 -54 -7z"/>
<path d="M881 984 c-18 -8 -42 -14 -52 -14 -31 0 -6 -36 40 -59 42 -22 46 -33 56 -148 3 -37 8 -79 10 -94 4 -29 9 -27 -193 -95 -73 -25 -137 -42 -142 -39 -34 21 18 -71 55 -97 14 -11 67 -10 61 0 -13 21 113 111 198 142 l29 11 -7 -86 c-6 -69 -4 -89 8 -107 21 -29 20 -38 -3 -38 -10 0 -69 -16 -131 -36 -102 -33 -111 -38 -95 -50 10 -8 15 -14 9 -14 -5 0 1 -6 12 -13 12 -6 32 -20 46 -29 24 -18 27 -17 119 23 207 89 284 101 352 55 52 -35 102 -41 128 -15 14 14 19 28 15 44 -7 28 -48 75 -65 75 -7 0 -30 9 -52 19 -49 24 -99 36 -99 24 0 -10 -63 -43 -81 -43 -12 0 -8 214 4 226 11 11 145 8 159 -4 33 -26 107 -59 119 -51 8 5 13 28 14 60 0 48 -3 55 -32 75 -21 14 -55 24 -102 28 -59 6 -75 4 -107 -13 -21 -12 -43 -21 -48 -21 -11 0 -1 108 13 124 5 6 12 37 14 68 l5 56 -42 20 c-55 27 -169 36 -215 16z"/>
</g>
</g></g></g></g></g></svg>