<?xml version="1.0" encoding="utf-8"?><!DOCTYPE svg PUBLIC "-//W3C//DTD SVG 1.1//EN" "http://www.w3.org/Graphics/SVG/1.1/DTD/svg11.dtd"><svg version="1.1" xmlns="http://www.w3.org/2000/svg" width="160" height="160" viewBox="0 0 160 160"><g transform="scale(0.303,0.303)"><g transform="translate(0,0)"><g transform="translate(0,0)"><g transform="translate(0,0) scale(1,1)"><g transform="scale(2.9464285714285716,2.9464285714285716) translate(27.099999999999994,19.599999999999994)"><g transform="translate(0.000000,140.000000) scale(0.100000,-0.100000)" fill="#000000" stroke="none">
<path d="M605 1354 c-89 -43 -108 -50 -252 -94 -40 -11 -75 -25 -78 -30 -6 -9 12 -29 59 -65 38 -29 53 -31 76 -10 8 8 32 21 53 30 36 15 36 15 52 -14 8 -17 15 -43 15 -60 0 -25 -7 -33 -52 -55 -68 -34 -82 -33 -98 9 -14 37 -37 49 -117 61 -39 6 -43 4 -43 -13 0 -12 7 -26 15 -33 10 -9 15 -32 15 -77 0 -95 -30 -333 -45 -363 -15 -28 -7 -88 14 -114 6 -7 8 -15 5 -18 -8 -9 57 -69 67 -62 5 3 9 2 8 -3 -1 -4 0 -15 3 -23 3 -8 11 -35 18 -60 15 -56 47 -120 60 -120 15 0 59 72 61 100 6 65 0 81 -36 96 -19 7 -49 15 -67 15 -18 1 -25 3 -16 6 14 3 16 15 14 67 l-2 63 37 -19 c34 -18 40 -18 67 -4 45 23 205 66 295 78 95 13 262 16 273 5 11 -11 -13 -151 -42 -243 -15 -48 -40 -100 -63 -130 -41 -55 -52 -57 -165 -42 -63 9 -80 4 -56 -15 40 -32 53 -59 56 -113 4 -68 14 -81 67 -89 83 -12 170 47 254 173 20 30 44 63 53 72 19 19 56 93 90 180 12 30 29 67 38 82 13 23 14 32 4 48 -6 10 -9 26 -6 34 3 9 -5 26 -20 41 -14 14 -26 29 -26 33 0 4 -30 22 -67 41 -38 18 -76 37 -85 42 -29 15 -127 10 -227 -11 -133 -28 -134 -28 -127 18 2 21 9 49 15 64 5 14 7 29 4 32 -4 3 -2 6 3 7 5 0 29 1 53 3 60 3 78 28 50 67 -17 24 -27 29 -64 29 l-44 0 6 53 c7 59 14 67 61 67 107 0 87 91 -21 94 -26 1 -51 9 -65 21 -13 11 -31 20 -40 21 -64 4 -67 5 -52 13 18 10 196 49 229 49 13 1 28 5 32 9 9 9 -22 81 -31 75 -3 -2 -22 4 -42 12 -54 23 -72 19 -173 -30z m-75 -405 l0 -57 -47 -20 c-27 -11 -59 -23 -73 -27 -14 -3 -34 -9 -44 -12 -18 -5 -19 -1 -13 47 4 28 14 68 24 88 l17 37 68 0 68 0 0 -56z m-127 -156 c15 -3 30 -10 33 -14 7 -12 61 -11 69 1 14 23 23 7 21 -41 l-1 -51 -70 -18 c-38 -10 -81 -23 -95 -28 -26 -10 -26 -10 -24 42 1 28 2 68 3 90 1 32 4 37 19 31 9 -3 29 -9 45 -12z"/>
<path d="M729 533 l-26 -4 28 -30 c15 -16 27 -38 26 -49 -1 -21 53 -140 64 -140 19 0 69 93 69 130 0 58 -81 104 -161 93z"/>
<path d="M510 481 c-9 -7 -10 -11 -3 -11 6 0 14 -10 18 -22 3 -13 18 -51 32 -86 18 -45 30 -62 42 -60 23 4 51 66 51 114 0 34 -4 43 -25 52 -38 18 -98 24 -115 13z"/>
<path d="M10 401 c0 -4 5 -12 11 -18 5 -5 10 -40 10 -77 0 -36 3 -66 7 -66 4 0 18 -20 31 -45 20 -38 26 -43 43 -34 27 15 58 69 58 102 0 50 -22 117 -42 128 -23 12 -118 21 -118 10z"/>
</g>
</g></g></g></g></g></svg>