<?xml version="1.0" encoding="utf-8"?><!DOCTYPE svg PUBLIC "-//W3C//DTD SVG 1.1//EN" "http://www.w3.org/Graphics/SVG/1.1/DTD/svg11.dtd"><svg version="1.1" xmlns="http://www.w3.org/2000/svg" width="160" height="160" viewBox="0 0 160 160"><g transform="scale(0.303,0.303)"><g transform="translate(0,0)"><g transform="translate(0,0)"><g transform="translate(0,0) scale(1,1)"><g transform="scale(2.9464285714285716,2.9464285714285716) translate(19.599999999999994,20.099999999999994)"><g transform="translate(0.000000,139.000000) scale(0.100000,-0.100000)" fill="#000000" stroke="none">
<path d="M566 1381 c-4 -6 3 -18 14 -28 30 -25 42 -49 56 -116 10 -51 10 -59 -5 -66 -37 -19 -243 -81 -271 -81 -26 0 -30 -3 -30 -28 0 -29 26 -62 49 -62 7 0 30 10 51 22 29 17 42 20 50 12 24 -24 -47 -133 -168 -258 -46 -47 -52 -57 -32 -51 14 4 35 6 46 6 12 0 27 6 34 14 7 8 16 15 20 15 4 0 38 20 74 45 68 46 86 53 86 35 0 -18 62 -80 81 -80 11 0 16 -5 13 -14 -3 -7 2 -16 10 -19 22 -9 20 -27 -3 -27 -11 0 -23 -5 -26 -10 -3 -6 -17 -7 -31 -4 -15 4 -24 2 -24 -6 0 -8 -9 -10 -25 -6 -16 4 -25 2 -25 -5 0 -7 -9 -9 -25 -5 -14 4 -25 3 -25 -2 0 -4 -15 -9 -32 -9 -39 -1 -46 -3 -203 -39 -66 -15 -142 -30 -169 -33 -49 -6 -63 -16 -48 -36 23 -32 158 -111 164 -97 13 31 345 163 464 185 l31 6 7 -137 c10 -201 50 -448 71 -446 6 0 13 25 18 55 4 30 16 70 26 89 24 46 39 138 47 282 7 139 11 189 16 194 9 9 201 26 249 22 81 -7 169 -28 212 -50 70 -35 105 -6 78 65 -14 37 -106 89 -146 83 -194 -34 -340 -62 -340 -67 0 -1 -13 -2 -30 -3 -19 -2 -35 4 -42 15 -8 11 -38 21 -82 29 l-68 11 2 41 c2 31 7 42 21 44 15 2 50 10 74 17 3 1 16 14 28 29 13 15 29 28 36 28 7 0 27 -30 44 -68 18 -37 41 -73 53 -80 62 -39 99 -14 101 67 2 56 -16 85 -57 95 -13 3 -36 11 -50 16 l-26 10 30 37 c28 36 35 53 32 80 0 6 -26 25 -56 42 -30 17 -55 34 -55 37 0 11 97 -4 119 -17 16 -11 25 -10 45 0 61 33 27 96 -57 105 -26 3 -55 1 -65 -4 -9 -5 -42 -16 -73 -24 l-57 -14 9 32 c15 52 10 81 -16 106 -21 20 -38 24 -109 28 -54 3 -86 1 -90 -7z m265 -222 c-17 -7 -21 -14 -16 -27 19 -45 -13 -118 -88 -197 l-55 -60 -24 23 c-13 12 -30 22 -36 22 -16 0 -15 15 2 29 17 14 28 51 15 51 -5 0 -9 6 -9 14 0 8 -20 20 -45 27 -51 15 -55 23 -22 41 40 22 241 86 272 87 29 0 29 -1 6 -10z"/>
</g>
</g></g></g></g></g></svg>