<?xml version="1.0" encoding="utf-8"?><!DOCTYPE svg PUBLIC "-//W3C//DTD SVG 1.1//EN" "http://www.w3.org/Graphics/SVG/1.1/DTD/svg11.dtd"><svg version="1.1" xmlns="http://www.w3.org/2000/svg" width="160" height="160" viewBox="0 0 160 160"><g transform="scale(0.303,0.303)"><g transform="translate(0,0)"><g transform="translate(0,0)"><g transform="translate(0,0) scale(1,1)"><g transform="scale(2.9464285714285716,2.9464285714285716) translate(19.599999999999994,31.099999999999994)"><g transform="translate(0.000000,117.000000) scale(0.100000,-0.100000)" fill="#CC3300" stroke="none">
<path d="M709 1144 l-22 -23 27 -7 c14 -3 26 -13 26 -22 0 -20 -197 -215 -239 -236 -17 -9 -31 -20 -31 -25 0 -4 -25 -6 -55 -3 -30 2 -55 1 -55 -4 0 -5 14 -24 30 -42 41 -47 68 -127 76 -224 4 -47 13 -90 20 -99 13 -14 3 -18 -93 -39 -60 -12 -155 -37 -214 -55 -65 -20 -117 -30 -138 -27 -29 4 -32 2 -29 -20 3 -23 20 -45 85 -115 25 -26 45 -29 65 -10 14 14 128 70 168 82 14 4 30 11 35 15 6 5 35 18 65 29 55 21 90 27 90 14 0 -3 -54 -77 -120 -165 l-119 -158 35 4 c20 3 46 12 59 20 14 9 30 16 36 16 15 0 169 105 214 146 55 50 47 73 -43 126 -47 28 -46 32 14 47 95 24 130 33 144 38 8 4 18 5 23 5 4 -1 7 2 7 7 0 8 40 17 130 28 25 3 106 6 180 7 124 1 137 -1 165 -21 38 -28 108 -38 128 -18 8 8 17 11 21 8 14 -14 5 64 -10 86 -9 12 -50 39 -90 58 -68 33 -76 34 -92 20 -9 -8 -39 -18 -67 -22 -27 -4 -103 -18 -168 -31 -64 -13 -122 -24 -129 -24 -13 0 -4 12 9 12 4 0 20 9 35 19 14 10 29 19 34 19 4 0 21 10 38 23 17 12 43 28 59 35 29 12 35 38 15 65 -17 22 -126 77 -154 77 -23 0 -40 -25 -23 -35 11 -7 -79 -185 -93 -185 -5 0 -7 -4 -4 -9 11 -17 -33 -42 -93 -52 -34 -6 -63 -10 -65 -8 -2 2 -6 50 -10 107 -6 96 -5 102 13 102 11 0 52 16 92 35 41 19 81 35 90 35 9 0 42 9 73 20 60 20 100 23 178 14 45 -6 48 -4 58 22 9 23 7 31 -11 50 -11 12 -37 25 -57 29 -20 4 -48 13 -63 21 -24 12 -29 11 -52 -10 -14 -13 -47 -33 -74 -46 -26 -12 -89 -42 -140 -66 -51 -24 -99 -44 -108 -44 -14 0 -20 16 -17 51 1 18 -36 38 -71 40 -12 0 0 7 27 14 28 8 53 12 57 9 9 -5 120 54 202 108 38 25 70 38 92 38 51 0 64 9 71 46 8 42 -8 62 -75 99 -58 33 -130 33 -162 -1z"/>
<path d="M848 353 c-16 -2 -28 -7 -28 -11 0 -4 22 -23 49 -42 40 -28 58 -53 98 -129 50 -98 87 -135 135 -137 22 -1 31 6 48 38 26 50 25 90 -2 145 -41 83 -75 111 -148 123 -94 16 -122 18 -152 13z"/>
</g>
</g></g></g></g></g></svg>