<?xml version="1.0" encoding="utf-8"?><!DOCTYPE svg PUBLIC "-//W3C//DTD SVG 1.1//EN" "http://www.w3.org/Graphics/SVG/1.1/DTD/svg11.dtd"><svg version="1.1" xmlns="http://www.w3.org/2000/svg" width="160" height="160" viewBox="0 0 160 160"><g transform="scale(0.303,0.303)"><g transform="translate(0,0)"><g transform="translate(0,0)"><g transform="translate(0,0) scale(1,1)"><g transform="scale(2.9464285714285716,2.9464285714285716) translate(19.599999999999994,41.099999999999994)"><g transform="translate(0.000000,97.000000) scale(0.100000,-0.100000)" fill="#CC3300" stroke="none">
<path d="M985 946 c-38 -13 -111 -40 -162 -60 -103 -40 -178 -52 -241 -38 -27 6 -44 6 -48 0 -7 -11 32 -55 90 -101 l38 -31 48 27 c27 15 69 30 94 33 40 6 46 4 46 -12 0 -30 -139 -250 -174 -276 -5 -3 -11 -14 -12 -23 -2 -15 -112 -138 -124 -139 -3 -1 -21 -18 -40 -38 -19 -21 -39 -38 -46 -38 -6 0 -25 -13 -42 -30 -21 -19 -37 -27 -48 -23 -12 4 -15 3 -10 -5 4 -7 -10 -20 -36 -33 -24 -12 -44 -21 -45 -20 -11 6 -32 -3 -57 -24 -16 -13 -33 -22 -38 -19 -6 4 -13 3 -17 -2 -10 -14 -75 -42 -115 -49 -20 -4 -36 -11 -36 -16 0 -20 285 -15 360 6 71 20 150 57 144 67 -3 4 0 8 6 8 16 0 103 94 126 135 10 19 21 35 24 35 6 0 34 -97 50 -173 11 -49 27 -86 45 -99 12 -9 35 19 35 43 0 15 15 16 148 13 81 -1 186 -6 233 -10 145 -11 170 7 100 72 -37 35 -38 37 -24 65 8 16 18 31 23 34 5 3 27 44 50 91 22 47 48 88 56 91 51 20 -45 78 -178 107 -15 4 -36 2 -45 -3 -10 -5 -94 -39 -188 -75 -161 -63 -217 -77 -229 -58 -3 5 22 42 55 83 33 41 79 99 101 129 23 30 52 64 66 75 l24 21 -57 52 c-32 29 -55 55 -52 58 6 6 106 19 217 28 190 16 238 61 123 117 -68 33 -149 35 -238 5z m165 -632 c-5 -22 -12 -60 -15 -86 -5 -35 -11 -48 -23 -49 -96 -5 -217 -26 -275 -48 l-27 -11 -1 73 c0 39 -2 87 -5 105 -3 25 0 32 14 33 68 3 123 9 162 19 25 6 62 14 83 16 21 3 48 9 60 13 29 11 39 -13 27 -65z"/>
</g>
</g></g></g></g></g></svg>